<svg width="1440" height="1080" viewBox="0 0 1440 1080" fill="none" xmlns="http://www.w3.org/2000/svg">
<rect width="1440" height="1080" fill="#E5E5E5"/>
<g id="Ocean" clip-path="url(#clip0_0_1)">
<g id="Animate">
<path id="Vector" fill-rule="evenodd" clip-rule="evenodd" d="M1440 153.389C1160.1 153.389 1071.09 -0.31643 710.1 0.000489408C350.1 0.000489408 260.1 153.389 -3.05176e-05 153.389V251V584.566H1440V251C1440 251 1440 190.152 1440 153.389Z" fill="#4584C3"/>
</g>
<g id="Layers">
<path id="Vector_2" d="M0 197L26.7 185.3C53.3 173.7 106.7 150.3 160 149.3C213.3 148.3 266.7 169.7 320 186C373.3 202.3 426.7 213.7 480 209.5C533.3 205.3 586.7 185.7 640 170.7C693.3 155.7 746.7 145.3 800 143.7C853.3 142 906.7 149 960 154.5C1013.3 160 1066.7 164 1120 166C1173.3 168 1226.7 168 1280 171C1333.3 174 1386.7 180 1413.3 183L1440 186V1081H1413.3C1386.7 1081 1333.3 1081 1280 1081C1226.7 1081 1173.3 1081 1120 1081C1066.7 1081 1013.3 1081 960 1081C906.7 1081 853.3 1081 800 1081C746.7 1081 693.3 1081 640 1081C586.7 1081 533.3 1081 480 1081C426.7 1081 373.3 1081 320 1081C266.7 1081 213.3 1081 160 1081C106.7 1081 53.3 1081 26.7 1081H0V197Z" fill="#2C5C67"/>
<path id="Vector_3" d="M0 334L26.7 335.8C53.3 337.7 106.7 341.3 160 342.8C213.3 344.3 266.7 343.7 320 339.7C373.3 335.7 426.7 328.3 480 337.3C533.3 346.3 586.7 371.7 640 380.8C693.3 390 746.7 383 800 385.2C853.3 387.3 906.7 398.7 960 397.2C1013.3 395.7 1066.7 381.3 1120 377.5C1173.3 373.7 1226.7 380.3 1280 374.8C1333.3 369.3 1386.7 351.7 1413.3 342.8L1440 334V1081H1413.3C1386.7 1081 1333.3 1081 1280 1081C1226.7 1081 1173.3 1081 1120 1081C1066.7 1081 1013.3 1081 960 1081C906.7 1081 853.3 1081 800 1081C746.7 1081 693.3 1081 640 1081C586.7 1081 533.3 1081 480 1081C426.7 1081 373.3 1081 320 1081C266.7 1081 213.3 1081 160 1081C106.7 1081 53.3 1081 26.7 1081H0V334Z" fill="#264954"/>
<path id="Vector_4" d="M0 485L26.7 501.5C53.3 518 106.7 551 160 558.2C213.3 565.3 266.7 546.7 320 537C373.3 527.3 426.7 526.7 480 529.8C533.3 533 586.7 540 640 546.8C693.3 553.7 746.7 560.3 800 564.5C853.3 568.7 906.7 570.3 960 568.7C1013.3 567 1066.7 562 1120 560.8C1173.3 559.7 1226.7 562.3 1280 552.2C1333.3 542 1386.7 519 1413.3 507.5L1440 496V1081H1413.3C1386.7 1081 1333.3 1081 1280 1081C1226.7 1081 1173.3 1081 1120 1081C1066.7 1081 1013.3 1081 960 1081C906.7 1081 853.3 1081 800 1081C746.7 1081 693.3 1081 640 1081C586.7 1081 533.3 1081 480 1081C426.7 1081 373.3 1081 320 1081C266.7 1081 213.3 1081 160 1081C106.7 1081 53.3 1081 26.7 1081H0V485Z" fill="#203740"/>
<path id="Vector_5" d="M0 725L26.7 715C53.3 705 106.7 685 160 692.7C213.3 700.3 266.7 735.7 320 735.8C373.3 736 426.7 701 480 688.5C533.3 676 586.7 686 640 700.7C693.3 715.3 746.7 734.7 800 746.3C853.3 758 906.7 762 960 755C1013.3 748 1066.7 730 1120 718.3C1173.3 706.7 1226.7 701.3 1280 704.2C1333.3 707 1386.7 718 1413.3 723.5L1440 729V1081H1413.3C1386.7 1081 1333.3 1081 1280 1081C1226.7 1081 1173.3 1081 1120 1081C1066.7 1081 1013.3 1081 960 1081C906.7 1081 853.3 1081 800 1081C746.7 1081 693.3 1081 640 1081C586.7 1081 533.3 1081 480 1081C426.7 1081 373.3 1081 320 1081C266.7 1081 213.3 1081 160 1081C106.7 1081 53.3 1081 26.7 1081H0V725Z" fill="#19262D"/>
<path id="Vector_6" d="M0 854L26.7 864.7C53.3 875.3 106.7 896.7 160 903.5C213.3 910.3 266.7 902.7 320 895C373.3 887.3 426.7 879.7 480 875.5C533.3 871.3 586.7 870.7 640 868.7C693.3 866.7 746.7 863.3 800 874.5C853.3 885.7 906.7 911.3 960 920.2C1013.3 929 1066.7 921 1120 914.8C1173.3 908.7 1226.7 904.3 1280 893C1333.3 881.7 1386.7 863.3 1413.3 854.2L1440 845V1080H1413.3C1386.7 1080 1333.3 1080 1280 1080C1226.7 1080 1173.3 1080 1120 1080C1066.7 1080 1013.3 1080 960 1080C906.7 1080 853.3 1080 800 1080C746.7 1080 693.3 1080 640 1080C586.7 1080 533.3 1080 480 1080C426.7 1080 373.3 1080 320 1080C266.7 1080 213.3 1080 160 1080C106.7 1080 53.3 1080 26.7 1080H0V854Z" fill="#10171B"/>
</g>
</g>
<defs>
<clipPath id="clip0_0_1">
<rect width="1440" height="1080" fill="white"/>
</clipPath>
</defs>
</svg>
