<svg width="94" height="43" viewBox="0 0 94 43" fill="none" xmlns="http://www.w3.org/2000/svg">
<path id="fish-left" d="M87.0194 19.4383C87.3192 18.7944 89.3683 16.0784 91.2234 13.263C91.2251 13.261 91.2266 13.2591 91.2276 13.2573C91.6462 12.6221 92.0543 11.9822 92.4313 11.3596C92.4418 11.3421 92.4524 11.3244 92.463 11.3069C92.5241 11.2053 96.8635 4.24852 90.6828 7.06584C90.6828 7.06634 90.6823 7.06708 90.6818 7.06757C89.5205 7.66311 88.0436 8.55113 86.1865 9.79569C82.1355 12.5113 73.8949 16.4864 73.8949 16.4864C73.8949 16.4864 72.4609 17.2611 71.5152 16.671C66.7361 13.6895 59.7728 8.39344 50.593 5.44454C50.44 5.39526 50.2461 5.27871 50.5097 5.03453L54.441 2.28522C54.441 2.28522 54.749 2.01911 54.3536 1.89049C52.408 1.2565 44.3047 -1.46078 37.2929 1.03746C35.8645 1.54627 34.6922 1.96416 33.7283 2.30764C33.3138 2.45548 32.8927 2.62919 32.053 2.73292C12.9315 3.38687 0 17.4232 0 22.9756C0 26.7018 2.00913 29.2023 9.35009 32.6782C9.49743 32.6548 10.6181 33.4593 13.0798 32.7196C13.7397 32.5213 18.4259 30.7563 18.6122 30.6767C18.799 30.5915 18.9202 30.5494 18.9976 30.5619C19.0971 30.5777 19.1703 30.799 19.1698 30.8438C19.1543 32.1711 16.6664 33.2462 15.2538 34.4257C15.0113 34.5388 14.9463 35.1018 15.3708 35.2841C15.3713 35.2841 20.3594 37.9586 28.2592 38.7902C28.8979 38.8574 37.2133 44.1855 45.5985 42.7562C50.0334 42 52.1439 41.7413 53.107 41.4757C53.9477 41.244 53.5464 40.9774 53.5464 40.9774L49.343 37.6284C49.0585 37.3127 49.2886 37.0703 49.5269 37.0028C58.8609 34.3468 66.2411 30.16 70.6363 26.5732C71.2282 26.09 72.7664 27.2387 73.8646 27.7936C77.5116 29.636 92.6496 35.8762 93.8971 34.5553C94.0045 34.4439 94.0122 34.2781 93.9027 34.0502C91.7726 29.5758 84.0737 25.7594 87.0194 19.4383ZM15.4825 19.0073C14.1359 19.0073 13.0443 17.8956 13.0443 16.5243C13.0443 15.1531 14.1359 14.0416 15.4825 14.0416C16.829 14.0416 17.9208 15.1531 17.9208 16.5243C17.9208 17.8956 16.829 19.0073 15.4825 19.0073ZM26.3937 33.1341C26.2437 33.2689 26.1069 33.4724 26.1863 33.1797C26.1863 33.1797 29.9872 27.4607 30.48 20.0685C30.8491 14.5285 27.1581 7.74369 27.1581 7.74369C27.1581 7.74369 27.1652 7.54558 27.2948 7.70204C28.6088 9.29132 41.5472 19.5139 26.3937 33.1341Z">
</svg>
