<svg width="95" height="40" viewBox="0 0 95 40" fill="none" xmlns="http://www.w3.org/2000/svg">
<path id="fish-right" d="M94.447 20.1184C93.672 20.1394 92.936 20.4404 92.164 20.3204C92.148 20.2674 92.134 20.1694 92.126 20.1184C92.792 19.8164 93.529 19.6284 94.137 19.1934C94.462 18.8774 94.929 18.5024 94.71 17.9844C94.468 16.9164 93.492 16.2554 92.65 15.6774C91.643 14.9704 90.51 14.5044 89.436 13.9424C88.256 13.4384 86.665 11.5864 70.629 8.55538C64.716 7.42238 58.727 6.90738 58.477 6.71938C52.951 6.82138 47.378 0.531379 45.68 0.0283789C45.417 -0.145621 45.222 0.53738 45.093 0.53738H45.095C44.935 1.53738 44.481 8.99738 45.397 9.27538C44.367 9.58338 43.288 9.54638 42.241 9.77238C40.521 10.1024 31.79 12.7374 27.318 13.7644C25.733 14.0584 24.108 13.9994 22.503 14.0064C20.954 13.9774 19.43 13.6344 17.942 13.2454C16.125 12.7274 1.504 6.61038 1.405 7.11238C1.443 11.1774 3.608 13.9314 5.155 17.5444C5.207 18.0704 5.424 18.5794 5.351 19.1204C4.493 21.9134 1.24 24.3284 0.438 27.2184C0.444 27.7744 0.204 28.2694 0 28.7724C0.67 28.8164 1.339 28.8554 2.013 28.8394C3.479 28.6674 12.068 26.5034 13.389 26.1944C14.681 25.8954 15.89 25.3444 17.166 25.0304C17.891 24.8574 18.543 24.4824 19.27 24.3614C20.713 24.1734 22.171 23.9944 23.629 24.1364C24.645 24.2404 25.656 24.3394 26.658 24.5564C27.415 24.7224 33.018 25.7824 36.374 26.9294C38.581 27.1024 46.952 30.5144 47.742 30.6804C46.453 32.7794 46.595 33.9324 46.262 36.4264C46.046 37.3054 46.008 38.3144 46.621 39.0404C46.899 39.3044 47.352 39.3174 47.665 39.1094C52.19 34.2974 57.268 32.4444 57.485 31.7614C60.241 32.0904 63.015 31.8054 65.779 31.8204C80.986 31.6604 91.537 23.5874 92.507 23.0534C93.319 22.6404 94.185 22.1814 94.673 21.3784C95.063 21.0254 94.928 20.3064 94.447 20.1184ZM85.245 19.6394C84.349 19.6394 83.624 18.9124 83.624 18.0164C83.624 17.1204 84.349 16.3934 85.245 16.3934C86.142 16.3934 86.869 17.1204 86.869 18.0164C86.87 18.9124 86.143 19.6394 85.245 19.6394Z"/>
</svg>
