<?xml version="1.0" encoding="utf-8"?>
<svg viewBox="0 0 1920 684" fill="none" xmlns="http://www.w3.org/2000/svg">
  <path d="M805.642 608.22C806.542 608.22 807.382 608.388 808.162 608.724C808.942 609.048 809.626 609.504 810.214 610.092C810.814 610.668 811.282 611.346 811.618 612.126C811.954 612.894 812.122 613.728 812.122 614.628C812.122 615.528 811.954 616.368 811.618 617.148C811.282 617.928 810.814 618.612 810.214 619.2C809.626 619.788 808.942 620.25 808.162 620.586C807.382 620.922 806.542 621.09 805.642 621.09C804.742 621.09 803.902 620.922 803.122 620.586C802.342 620.25 801.658 619.788 801.07 619.2C800.482 618.612 800.02 617.928 799.684 617.148C799.348 616.368 799.18 615.528 799.18 614.628C799.18 613.728 799.348 612.894 799.684 612.126C800.02 611.346 800.482 610.668 801.07 610.092C801.658 609.504 802.342 609.048 803.122 608.724C803.902 608.388 804.742 608.22 805.642 608.22ZM805.966 610.884C806.314 610.884 806.644 610.92 806.956 610.992C807.28 611.064 807.538 611.154 807.73 611.262C807.922 611.358 808.018 611.454 808.018 611.55C808.018 611.61 807.994 611.694 807.946 611.802C807.91 611.898 807.862 611.988 807.802 612.072C807.742 612.144 807.688 612.18 807.64 612.18C807.604 612.18 807.52 612.138 807.388 612.054C807.256 611.97 807.07 611.892 806.83 611.82C806.602 611.736 806.32 611.694 805.984 611.694C805.12 611.694 804.478 611.934 804.058 612.414C803.65 612.894 803.446 613.662 803.446 614.718C803.446 615.75 803.65 616.512 804.058 617.004C804.466 617.484 805.09 617.724 805.93 617.724C806.302 617.724 806.614 617.682 806.866 617.598C807.13 617.502 807.334 617.412 807.478 617.328C807.634 617.232 807.736 617.184 807.784 617.184C807.832 617.184 807.886 617.226 807.946 617.31C808.006 617.382 808.054 617.466 808.09 617.562C808.138 617.646 808.162 617.712 808.162 617.76C808.162 617.856 808.06 617.964 807.856 618.084C807.664 618.204 807.4 618.312 807.064 618.408C806.728 618.492 806.35 618.534 805.93 618.534C804.766 618.534 803.896 618.228 803.32 617.616C802.756 616.992 802.474 616.026 802.474 614.718C802.474 612.162 803.638 610.884 805.966 610.884ZM805.642 609.084C804.874 609.084 804.148 609.228 803.464 609.516C802.792 609.792 802.198 610.188 801.682 610.704C801.178 611.208 800.776 611.796 800.476 612.468C800.188 613.14 800.044 613.86 800.044 614.628C800.044 615.396 800.188 616.122 800.476 616.806C800.776 617.478 801.178 618.072 801.682 618.588C802.198 619.092 802.792 619.494 803.464 619.794C804.148 620.082 804.874 620.226 805.642 620.226C806.422 620.226 807.148 620.082 807.82 619.794C808.504 619.494 809.098 619.092 809.602 618.588C810.118 618.072 810.52 617.478 810.808 616.806C811.108 616.122 811.258 615.396 811.258 614.628C811.258 613.86 811.108 613.14 810.808 612.468C810.52 611.796 810.118 611.208 809.602 610.704C809.098 610.188 808.504 609.792 807.82 609.516C807.148 609.228 806.422 609.084 805.642 609.084ZM835.009 608.364C835.189 608.364 835.345 608.388 835.477 608.436C835.609 608.472 835.693 608.544 835.729 608.652L839.995 620.496C840.031 620.592 840.049 620.67 840.049 620.73C840.049 620.934 839.791 621.036 839.275 621.036H839.131C838.951 621.036 838.795 621.018 838.663 620.982C838.531 620.934 838.447 620.856 838.411 620.748L837.349 617.796H832.057L831.031 620.748C830.995 620.856 830.911 620.934 830.779 620.982C830.647 621.018 830.491 621.036 830.311 621.036H830.221C829.705 621.036 829.447 620.934 829.447 620.73C829.447 620.694 829.453 620.658 829.465 620.622C829.477 620.586 829.489 620.538 829.501 620.478L833.767 608.652C833.803 608.544 833.887 608.472 834.019 608.436C834.151 608.388 834.307 608.364 834.487 608.364H835.009ZM834.757 610.02H834.721C834.685 610.188 834.643 610.362 834.595 610.542C834.559 610.722 834.511 610.896 834.451 611.064L832.561 616.428H836.863L834.973 611.064C834.913 610.896 834.865 610.722 834.829 610.542C834.805 610.362 834.781 610.188 834.757 610.02ZM849.18 608.364C849.66 608.364 849.9 608.496 849.9 608.76V619.632H854.85C855.09 619.632 855.21 619.812 855.21 620.172V620.46C855.21 620.82 855.09 621 854.85 621H848.856C848.496 621 848.316 620.82 848.316 620.46V608.76C848.316 608.496 848.556 608.364 849.036 608.364H849.18ZM864.199 608.364C864.679 608.364 864.919 608.496 864.919 608.76V619.632H869.869C870.109 619.632 870.229 619.812 870.229 620.172V620.46C870.229 620.82 870.109 621 869.869 621H863.875C863.515 621 863.335 620.82 863.335 620.46V608.76C863.335 608.496 863.575 608.364 864.055 608.364H864.199ZM892.542 608.4C893.946 608.4 895.02 608.646 895.764 609.138C896.508 609.63 896.88 610.446 896.88 611.586C896.88 612.366 896.694 613.008 896.322 613.512C895.95 614.004 895.446 614.376 894.81 614.628V614.7C895.182 614.82 895.488 615.078 895.728 615.474C895.968 615.87 896.202 616.362 896.43 616.95L897.834 620.496C897.87 620.604 897.888 620.688 897.888 620.748C897.888 620.94 897.636 621.036 897.132 621.036H896.952C896.772 621.036 896.616 621.012 896.484 620.964C896.352 620.916 896.268 620.844 896.232 620.748L894.864 617.22C894.6 616.524 894.264 616.056 893.856 615.816C893.448 615.576 892.89 615.456 892.182 615.456H890.562V620.64C890.562 620.904 890.322 621.036 889.842 621.036H889.698C889.218 621.036 888.978 620.904 888.978 620.64V608.94C888.978 608.58 889.158 608.4 889.518 608.4H892.542ZM892.812 609.768H890.562V614.088H892.938C893.37 614.088 893.76 613.986 894.108 613.782C894.456 613.578 894.732 613.308 894.936 612.972C895.14 612.636 895.242 612.27 895.242 611.874C895.242 611.142 895.02 610.608 894.576 610.272C894.132 609.936 893.544 609.768 892.812 609.768ZM907.128 608.364C907.608 608.364 907.848 608.496 907.848 608.76V620.64C907.848 620.904 907.608 621.036 907.128 621.036H906.984C906.504 621.036 906.264 620.904 906.264 620.64V608.76C906.264 608.496 906.504 608.364 906.984 608.364H907.128ZM922.756 608.292C923.2 608.292 923.626 608.328 924.034 608.4C924.454 608.472 924.826 608.562 925.15 608.67C925.474 608.778 925.726 608.898 925.906 609.03C926.098 609.162 926.194 609.288 926.194 609.408C926.194 609.504 926.158 609.636 926.086 609.804C926.014 609.972 925.93 610.122 925.834 610.254C925.738 610.386 925.654 610.452 925.582 610.452C925.51 610.452 925.366 610.386 925.15 610.254C924.934 610.122 924.628 609.99 924.232 609.858C923.848 609.726 923.368 609.66 922.792 609.66C921.724 609.66 920.884 609.858 920.272 610.254C919.66 610.65 919.222 611.22 918.958 611.964C918.694 612.708 918.562 613.602 918.562 614.646C918.562 615.33 918.622 615.984 918.742 616.608C918.862 617.22 919.072 617.76 919.372 618.228C919.672 618.696 920.08 619.068 920.596 619.344C921.124 619.608 921.79 619.74 922.594 619.74C923.062 619.74 923.506 619.716 923.926 619.668C924.346 619.62 924.676 619.566 924.916 619.506V615.87H922.81C922.57 615.87 922.45 615.69 922.45 615.33V615.042C922.45 614.682 922.57 614.502 922.81 614.502H925.96C926.32 614.502 926.5 614.682 926.5 615.042V619.812C926.5 620.064 926.386 620.274 926.158 620.442C925.942 620.61 925.642 620.742 925.258 620.838C924.886 620.934 924.46 621 923.98 621.036C923.5 621.084 923.002 621.108 922.486 621.108C920.698 621.108 919.324 620.592 918.364 619.56C917.404 618.528 916.924 616.944 916.924 614.808C916.924 612.564 917.422 610.92 918.418 609.876C919.426 608.82 920.872 608.292 922.756 608.292ZM945.002 608.364C945.482 608.364 945.722 608.496 945.722 608.76V620.64C945.722 620.904 945.482 621.036 945.002 621.036H944.858C944.378 621.036 944.138 620.904 944.138 620.64V615.222H937.622V620.64C937.622 620.904 937.382 621.036 936.902 621.036H936.758C936.278 621.036 936.038 620.904 936.038 620.64V608.76C936.038 608.496 936.278 608.364 936.758 608.364H936.902C937.382 608.364 937.622 608.496 937.622 608.76V613.854H944.138V608.76C944.138 608.496 944.378 608.364 944.858 608.364H945.002ZM962.955 608.4C963.195 608.4 963.315 608.58 963.315 608.94V609.228C963.315 609.588 963.195 609.768 962.955 609.768H959.553V620.64C959.553 620.904 959.313 621.036 958.833 621.036H958.689C958.209 621.036 957.969 620.904 957.969 620.64V609.768H954.513C954.273 609.768 954.153 609.588 954.153 609.228V608.94C954.153 608.58 954.273 608.4 954.513 608.4H962.955ZM974.868 608.292C975.12 608.292 975.408 608.322 975.732 608.382C976.068 608.43 976.392 608.502 976.704 608.598C977.016 608.694 977.268 608.814 977.46 608.958C977.664 609.09 977.766 609.234 977.766 609.39C977.766 609.474 977.73 609.594 977.658 609.75C977.586 609.906 977.502 610.044 977.406 610.164C977.322 610.284 977.25 610.344 977.19 610.344C977.106 610.344 976.968 610.29 976.776 610.182C976.584 610.062 976.332 609.948 976.02 609.84C975.708 609.72 975.312 609.66 974.832 609.66C974.376 609.66 973.974 609.738 973.626 609.894C973.278 610.05 973.002 610.278 972.798 610.578C972.606 610.878 972.51 611.25 972.51 611.694C972.51 612.138 972.624 612.486 972.852 612.738C973.08 612.99 973.38 613.194 973.752 613.35C974.124 613.506 974.526 613.668 974.958 613.836C975.354 613.992 975.75 614.166 976.146 614.358C976.554 614.538 976.926 614.766 977.262 615.042C977.598 615.318 977.862 615.666 978.054 616.086C978.258 616.494 978.36 617.004 978.36 617.616C978.36 618.156 978.264 618.642 978.072 619.074C977.892 619.506 977.622 619.872 977.262 620.172C976.914 620.472 976.494 620.706 976.002 620.874C975.522 621.03 974.976 621.108 974.364 621.108C973.668 621.108 973.038 621.036 972.474 620.892C971.91 620.736 971.46 620.556 971.124 620.352C970.8 620.136 970.638 619.95 970.638 619.794C970.638 619.698 970.674 619.572 970.746 619.416C970.83 619.26 970.92 619.122 971.016 619.002C971.112 618.882 971.196 618.822 971.268 618.822C971.34 618.822 971.502 618.9 971.754 619.056C972.006 619.212 972.348 619.368 972.78 619.524C973.212 619.668 973.74 619.74 974.364 619.74C974.82 619.74 975.222 619.656 975.57 619.488C975.93 619.308 976.212 619.062 976.416 618.75C976.62 618.426 976.722 618.048 976.722 617.616C976.722 617.136 976.59 616.752 976.326 616.464C976.074 616.164 975.738 615.918 975.318 615.726C974.898 615.534 974.46 615.348 974.004 615.168C973.62 615.024 973.242 614.868 972.87 614.7C972.498 614.52 972.162 614.304 971.862 614.052C971.562 613.8 971.322 613.482 971.142 613.098C970.962 612.702 970.872 612.21 970.872 611.622C970.872 610.974 971.034 610.404 971.358 609.912C971.694 609.408 972.162 609.012 972.762 608.724C973.362 608.436 974.064 608.292 974.868 608.292ZM1001.21 608.4C1002.61 608.4 1003.68 608.646 1004.43 609.138C1005.17 609.63 1005.54 610.446 1005.54 611.586C1005.54 612.366 1005.36 613.008 1004.99 613.512C1004.61 614.004 1004.11 614.376 1003.47 614.628V614.7C1003.85 614.82 1004.15 615.078 1004.39 615.474C1004.63 615.87 1004.87 616.362 1005.09 616.95L1006.5 620.496C1006.53 620.604 1006.55 620.688 1006.55 620.748C1006.55 620.94 1006.3 621.036 1005.8 621.036H1005.62C1005.44 621.036 1005.28 621.012 1005.15 620.964C1005.02 620.916 1004.93 620.844 1004.9 620.748L1003.53 617.22C1003.26 616.524 1002.93 616.056 1002.52 615.816C1002.11 615.576 1001.55 615.456 1000.85 615.456H999.226V620.64C999.226 620.904 998.986 621.036 998.506 621.036H998.362C997.882 621.036 997.642 620.904 997.642 620.64V608.94C997.642 608.58 997.822 608.4 998.182 608.4H1001.21ZM1001.48 609.768H999.226V614.088H1001.6C1002.03 614.088 1002.42 613.986 1002.77 613.782C1003.12 613.578 1003.4 613.308 1003.6 612.972C1003.8 612.636 1003.91 612.27 1003.91 611.874C1003.91 611.142 1003.68 610.608 1003.24 610.272C1002.8 609.936 1002.21 609.768 1001.48 609.768ZM1021.75 608.4C1021.99 608.4 1022.11 608.58 1022.11 608.94V609.228C1022.11 609.588 1021.99 609.768 1021.75 609.768H1016.51V613.872H1021.21C1021.45 613.872 1021.57 614.052 1021.57 614.412V614.7C1021.57 615.06 1021.45 615.24 1021.21 615.24H1016.51V619.632H1021.77C1022.01 619.632 1022.13 619.812 1022.13 620.172V620.46C1022.13 620.82 1022.01 621 1021.77 621H1015.47C1015.11 621 1014.93 620.82 1014.93 620.46V608.94C1014.93 608.58 1015.11 608.4 1015.47 608.4H1021.75ZM1034.2 608.292C1034.46 608.292 1034.74 608.322 1035.07 608.382C1035.4 608.43 1035.73 608.502 1036.04 608.598C1036.35 608.694 1036.6 608.814 1036.8 608.958C1037 609.09 1037.1 609.234 1037.1 609.39C1037.1 609.474 1037.07 609.594 1036.99 609.75C1036.92 609.906 1036.84 610.044 1036.74 610.164C1036.66 610.284 1036.59 610.344 1036.53 610.344C1036.44 610.344 1036.3 610.29 1036.11 610.182C1035.92 610.062 1035.67 609.948 1035.36 609.84C1035.04 609.72 1034.65 609.66 1034.17 609.66C1033.71 609.66 1033.31 609.738 1032.96 609.894C1032.61 610.05 1032.34 610.278 1032.13 610.578C1031.94 610.878 1031.85 611.25 1031.85 611.694C1031.85 612.138 1031.96 612.486 1032.19 612.738C1032.42 612.99 1032.72 613.194 1033.09 613.35C1033.46 613.506 1033.86 613.668 1034.29 613.836C1034.69 613.992 1035.09 614.166 1035.48 614.358C1035.89 614.538 1036.26 614.766 1036.6 615.042C1036.93 615.318 1037.2 615.666 1037.39 616.086C1037.59 616.494 1037.7 617.004 1037.7 617.616C1037.7 618.156 1037.6 618.642 1037.41 619.074C1037.23 619.506 1036.96 619.872 1036.6 620.172C1036.25 620.472 1035.83 620.706 1035.34 620.874C1034.86 621.03 1034.31 621.108 1033.7 621.108C1033 621.108 1032.37 621.036 1031.81 620.892C1031.25 620.736 1030.8 620.556 1030.46 620.352C1030.14 620.136 1029.97 619.95 1029.97 619.794C1029.97 619.698 1030.01 619.572 1030.08 619.416C1030.17 619.26 1030.26 619.122 1030.35 619.002C1030.45 618.882 1030.53 618.822 1030.6 618.822C1030.68 618.822 1030.84 618.9 1031.09 619.056C1031.34 619.212 1031.68 619.368 1032.12 619.524C1032.55 619.668 1033.08 619.74 1033.7 619.74C1034.16 619.74 1034.56 619.656 1034.91 619.488C1035.27 619.308 1035.55 619.062 1035.75 618.75C1035.96 618.426 1036.06 618.048 1036.06 617.616C1036.06 617.136 1035.93 616.752 1035.66 616.464C1035.41 616.164 1035.07 615.918 1034.65 615.726C1034.23 615.534 1033.8 615.348 1033.34 615.168C1032.96 615.024 1032.58 614.868 1032.21 614.7C1031.83 614.52 1031.5 614.304 1031.2 614.052C1030.9 613.8 1030.66 613.482 1030.48 613.098C1030.3 612.702 1030.21 612.21 1030.21 611.622C1030.21 610.974 1030.37 610.404 1030.69 609.912C1031.03 609.408 1031.5 609.012 1032.1 608.724C1032.7 608.436 1033.4 608.292 1034.2 608.292ZM1053.18 608.4C1053.42 608.4 1053.54 608.58 1053.54 608.94V609.228C1053.54 609.588 1053.42 609.768 1053.18 609.768H1047.94V613.872H1052.64C1052.88 613.872 1053 614.052 1053 614.412V614.7C1053 615.06 1052.88 615.24 1052.64 615.24H1047.94V619.632H1053.19C1053.43 619.632 1053.55 619.812 1053.55 620.172V620.46C1053.55 620.82 1053.43 621 1053.19 621H1046.89C1046.53 621 1046.35 620.82 1046.35 620.46V608.94C1046.35 608.58 1046.53 608.4 1046.89 608.4H1053.18ZM1066.04 608.4C1067.45 608.4 1068.52 608.646 1069.27 609.138C1070.01 609.63 1070.38 610.446 1070.38 611.586C1070.38 612.366 1070.2 613.008 1069.82 613.512C1069.45 614.004 1068.95 614.376 1068.31 614.628V614.7C1068.68 614.82 1068.99 615.078 1069.23 615.474C1069.47 615.87 1069.7 616.362 1069.93 616.95L1071.34 620.496C1071.37 620.604 1071.39 620.688 1071.39 620.748C1071.39 620.94 1071.14 621.036 1070.63 621.036H1070.45C1070.27 621.036 1070.12 621.012 1069.99 620.964C1069.85 620.916 1069.77 620.844 1069.73 620.748L1068.37 617.22C1068.1 616.524 1067.77 616.056 1067.36 615.816C1066.95 615.576 1066.39 615.456 1065.68 615.456H1064.06V620.64C1064.06 620.904 1063.82 621.036 1063.34 621.036H1063.2C1062.72 621.036 1062.48 620.904 1062.48 620.64V608.94C1062.48 608.58 1062.66 608.4 1063.02 608.4H1066.04ZM1066.31 609.768H1064.06V614.088H1066.44C1066.87 614.088 1067.26 613.986 1067.61 613.782C1067.96 613.578 1068.23 613.308 1068.44 612.972C1068.64 612.636 1068.74 612.27 1068.74 611.874C1068.74 611.142 1068.52 610.608 1068.08 610.272C1067.63 609.936 1067.05 609.768 1066.31 609.768ZM1087.98 608.364C1088.49 608.364 1088.75 608.466 1088.75 608.67C1088.75 608.73 1088.73 608.814 1088.7 608.922L1084.57 620.748C1084.54 620.856 1084.45 620.934 1084.32 620.982C1084.19 621.018 1084.03 621.036 1083.85 621.036H1083.3C1083.12 621.036 1082.96 621.018 1082.83 620.982C1082.7 620.934 1082.61 620.856 1082.58 620.748L1078.45 608.904C1078.43 608.856 1078.41 608.814 1078.4 608.778C1078.4 608.742 1078.4 608.706 1078.4 608.67C1078.4 608.466 1078.66 608.364 1079.17 608.364H1079.34C1079.52 608.364 1079.67 608.388 1079.8 608.436C1079.94 608.472 1080.02 608.544 1080.06 608.652L1083.39 618.264L1083.57 619.2H1083.62L1083.82 618.246L1087.15 608.652C1087.18 608.544 1087.27 608.472 1087.4 608.436C1087.53 608.388 1087.69 608.364 1087.87 608.364H1087.98ZM1104 608.4C1104.24 608.4 1104.36 608.58 1104.36 608.94V609.228C1104.36 609.588 1104.24 609.768 1104 609.768H1098.76V613.872H1103.46C1103.7 613.872 1103.82 614.052 1103.82 614.412V614.7C1103.82 615.06 1103.7 615.24 1103.46 615.24H1098.76V619.632H1104.02C1104.26 619.632 1104.38 619.812 1104.38 620.172V620.46C1104.38 620.82 1104.26 621 1104.02 621H1097.72C1097.36 621 1097.18 620.82 1097.18 620.46V608.94C1097.18 608.58 1097.36 608.4 1097.72 608.4H1104ZM1117.48 608.4C1118.51 608.4 1119.45 608.604 1120.29 609.012C1121.13 609.408 1121.79 610.068 1122.28 610.992C1122.79 611.904 1123.04 613.14 1123.04 614.7C1123.04 615.876 1122.9 616.866 1122.61 617.67C1122.32 618.474 1121.92 619.122 1121.42 619.614C1120.92 620.094 1120.33 620.448 1119.66 620.676C1118.98 620.892 1118.26 621 1117.48 621H1113.84C1113.48 621 1113.3 620.82 1113.3 620.46V608.94C1113.3 608.58 1113.48 608.4 1113.84 608.4H1117.48ZM1117.35 609.768H1114.89V619.632H1117.35C1118.1 619.632 1118.77 619.47 1119.39 619.146C1120.01 618.822 1120.5 618.3 1120.86 617.58C1121.22 616.86 1121.4 615.9 1121.4 614.7C1121.4 613.5 1121.22 612.54 1120.86 611.82C1120.5 611.1 1120.01 610.578 1119.39 610.254C1118.77 609.93 1118.1 609.768 1117.35 609.768Z" fill="#E8E8E8"/>
  <path d="M157.171 149.845L144.671 149.844V149.845H157.171ZM204.065 142.624C210.925 143.399 217.114 138.465 217.888 131.605C218.663 124.745 213.729 118.557 206.869 117.782L204.065 142.624ZM169.671 304.254V149.845H144.671V304.254H169.671ZM169.671 149.845C169.671 145.435 170.765 143.991 171.128 143.581C171.607 143.04 172.799 142.112 175.916 141.484C182.945 140.067 192.55 141.324 204.065 142.624L206.869 117.782C197.386 116.712 182.844 114.584 170.975 116.977C164.642 118.254 157.697 121.03 152.401 127.019C146.99 133.138 144.671 141.048 144.671 149.844L169.671 149.845Z" fill="#97D485"/>
  <path d="M169.984 48.5716L157.484 48.5715V48.5716H169.984ZM216.001 28.5928C222.788 29.8518 229.312 25.3697 230.57 18.5819C231.829 11.7941 227.347 5.27097 220.56 4.01203L216.001 28.5928ZM182.484 302.255V48.5716H157.484V302.255H182.484ZM182.484 48.5716C182.484 38.8467 184.044 33.4613 185.584 30.6004C186.892 28.1704 188.36 27.1757 190.189 26.5701C192.491 25.8073 195.845 25.562 200.64 26.0381C205.468 26.5176 210.337 27.5425 216.001 28.5928L220.56 4.01203C215.724 3.11513 209.307 1.7759 203.111 1.16052C196.881 0.541882 189.474 0.471079 182.327 2.83821C174.706 5.36265 168.038 10.4534 163.571 18.7504C159.337 26.6167 157.484 36.5999 157.484 48.5715L182.484 48.5716Z" fill="#64A730"/>
  <path d="M152.243 99.7377L164.743 99.7377V99.7377H152.243ZM99.6208 87.1386C92.7731 88.0151 86.5114 83.1746 85.6349 76.3269C84.7583 69.4792 89.5989 63.2175 96.4466 62.3409L99.6208 87.1386ZM139.743 296.259V99.7377H164.743V296.259H139.743ZM139.743 99.7378C139.743 93.1776 138.258 90.2301 137.231 88.9139C136.248 87.6543 134.578 86.4616 131.191 85.6873C127.637 84.8747 123.01 84.7253 117.302 85.1165C111.593 85.5078 105.803 86.3472 99.6208 87.1386L96.4466 62.3409C102.049 61.6238 108.927 60.6319 115.592 60.175C122.258 59.7181 129.711 59.7039 136.763 61.316C143.982 62.9664 151.445 66.4879 156.944 73.5383C162.399 80.532 164.743 89.4902 164.743 99.7377L139.743 99.7378Z" fill="#97D485"/>
  <path d="M112.818 167.438L125.318 167.438V167.438H112.818ZM66.6491 164.262C59.7744 164.892 53.6905 159.83 53.0602 152.955C52.43 146.08 57.4922 139.996 64.367 139.366L66.6491 164.262ZM100.318 290.264V167.438H125.318V290.264H100.318ZM100.318 167.438C100.318 166.14 100.114 165.525 100.037 165.335C99.978 165.188 99.9409 165.146 99.8644 165.076C99.5696 164.805 98.3128 163.942 94.857 163.376C87.5807 162.185 77.7594 163.243 66.6491 164.262L64.367 139.366C73.8261 138.499 87.6599 136.865 98.8962 138.704C104.697 139.654 111.411 141.737 116.772 146.66C122.573 151.986 125.318 159.258 125.318 167.438L100.318 167.438Z" fill="#64A730"/>
  <path d="M190.01 174.341C190.01 167.438 195.606 161.841 202.51 161.841C209.414 161.841 215.01 167.438 215.01 174.341H190.01ZM190.01 355.22V174.341H215.01V355.22H190.01Z" fill="#64A730"/>
  <path d="M1638.85 476.454L1626.35 476.454L1626.35 476.454L1638.85 476.454ZM1581.31 412.393C1581.47 405.491 1587.19 400.025 1594.09 400.183C1601 400.341 1606.46 406.065 1606.3 412.966L1581.31 412.393ZM1626.35 657.333V476.454H1651.35V657.333H1626.35ZM1626.35 476.454C1626.35 467.517 1620.5 461.683 1608.52 452.535C1603.27 448.532 1596.43 443.524 1591.23 437.651C1585.68 431.381 1581.06 423.13 1581.31 412.393L1606.3 412.966C1606.25 415.493 1607.11 417.874 1609.95 421.084C1613.14 424.691 1617.59 428.011 1623.69 432.665C1634.38 440.83 1651.35 453.619 1651.35 476.454L1626.35 476.454Z" fill="#42A1A9"/>
  <path d="M1809.41 524.107C1809.41 531.01 1803.81 536.607 1796.91 536.607C1790.01 536.607 1784.41 531.01 1784.41 524.107H1809.41ZM1889.75 300.631L1901.53 296.459L1889.75 300.631ZM1822.55 214.493C1822.62 207.59 1828.27 202.052 1835.18 202.123C1842.08 202.195 1847.62 207.849 1847.55 214.752L1822.55 214.493ZM1784.41 524.107V381.706H1809.41V524.107H1784.41ZM1784.41 381.706C1784.41 374.348 1784.1 360.53 1794.27 349.724C1804.3 339.066 1821.4 334.351 1846.94 334.351V359.351C1823.01 359.351 1815.09 364.08 1812.48 366.859C1810 369.488 1809.41 373.098 1809.41 381.706H1784.41ZM1846.94 334.351C1867.13 334.351 1874.33 328.033 1877.03 323.609C1880.2 318.428 1880.19 311.091 1877.97 304.803L1901.53 296.459C1905.33 307.194 1906.72 322.967 1898.37 336.64C1889.55 351.07 1872.33 359.351 1846.94 359.351V334.351ZM1877.97 304.803C1876.48 300.606 1874.48 299.198 1872.08 298.286C1868.68 296.995 1864.35 296.712 1857.73 296.442C1852.48 296.227 1843.6 296.086 1836.41 292.464C1832.27 290.379 1828.5 287.121 1825.93 282.338C1823.46 277.74 1822.55 272.573 1822.55 267.273H1847.55C1847.55 269.81 1848 270.583 1847.95 270.504C1847.81 270.239 1847.54 270.077 1847.66 270.139C1849 270.813 1851.71 271.174 1858.75 271.462C1864.42 271.694 1873.06 271.914 1880.96 274.918C1889.86 278.301 1897.47 284.982 1901.53 296.459L1877.97 304.803ZM1822.55 267.273C1822.55 250.542 1822.42 227.302 1822.55 214.493L1847.55 214.752C1847.42 227.398 1847.55 250.243 1847.55 267.273H1822.55Z" fill="#64A730"/>
  <path d="M311.602 447.092C311.602 453.996 306.005 459.592 299.102 459.592C292.198 459.592 286.602 453.996 286.602 447.092H311.602ZM455.636 147.792C455.636 140.889 461.233 135.292 468.136 135.292C475.04 135.292 480.636 140.889 480.636 147.792H455.636ZM286.602 447.092V266.213H311.602V447.092H286.602ZM286.602 266.213C286.602 251.154 290.636 232.676 305.066 217.981C319.569 203.213 342.619 194.253 376.473 194.253V219.253C346.853 219.253 331.217 227.032 322.903 235.498C314.516 244.038 311.602 255.29 311.602 266.213H286.602ZM376.473 194.253C396.476 194.253 411.575 194.213 423.296 193.299C435.202 192.371 441.86 190.628 445.853 188.344C449.034 186.526 451.299 183.943 452.965 178.191C454.829 171.754 455.636 162.301 455.636 147.792H480.636C480.636 162.515 479.904 175.046 476.978 185.146C473.855 195.93 468.081 204.433 458.263 210.047C449.259 215.196 437.96 217.232 425.24 218.224C412.336 219.23 396.142 219.253 376.473 219.253V194.253Z" fill="#64A730"/>
  <ellipse cx="202.51" cy="175.341" rx="8.87064" ry="8.99398" fill="#EAFFE0"/>
  <ellipse cx="98.0338" cy="74.9077" rx="9.85626" ry="9.49364" fill="#42A1A9"/>
  <ellipse cx="205.467" cy="130.371" rx="8.87064" ry="8.99398" fill="#42A1A9"/>
  <path d="M205.728 224.271C205.728 217.367 211.324 211.771 218.228 211.771C225.131 211.771 230.728 217.367 230.728 224.271H205.728ZM205.728 405.149V224.271H230.728V405.149H205.728Z" fill="#42A1A9"/>
  <path d="M210.314 19.9448C208.335 15.7043 210.121 10.64 214.304 8.63336C218.486 6.62668 223.481 8.43751 225.46 12.678C227.439 16.9184 225.653 21.9827 221.471 23.9894C217.288 25.996 212.294 24.1852 210.314 19.9448Z" fill="#EAFFE0"/>
  <ellipse cx="218.287" cy="224.639" rx="8.87064" ry="8.99398" fill="#EAFFE0"/>
  <ellipse cx="1593.87" cy="412.717" rx="8.87064" ry="8.99398" fill="#EAFFE0"/>
  <path d="M460.889 151.945C458.91 147.704 460.696 142.64 464.878 140.633C469.061 138.627 474.055 140.438 476.035 144.678C478.014 148.918 476.228 153.983 472.045 155.989C467.863 157.996 462.868 156.185 460.889 151.945Z" fill="#EAFFE0"/>
  <path d="M1827.61 218.945C1825.64 214.704 1827.42 209.64 1831.6 207.633C1835.79 205.627 1840.78 207.438 1842.76 211.678C1844.74 215.918 1842.95 220.983 1838.77 222.989C1834.59 224.996 1829.59 223.185 1827.61 218.945Z" fill="#EAFFE0"/>
  <path d="M57.793 155.656C55.8138 151.416 57.5998 146.351 61.7821 144.345C65.9644 142.338 70.9592 144.149 72.9384 148.389C74.9176 152.63 73.1316 157.694 68.9493 159.701C64.767 161.707 59.7721 159.897 57.793 155.656Z" fill="#EAFFE0"/>
  <path d="M0 259.284C0 259.284 148.5 266.5 266 310.827C383.5 355.154 467.5 416.491 467.5 416.491C565 478.858 664.312 529.667 780.123 506.119C934.867 474.654 1254.05 445.87 1522 540.71C1638.5 581.944 1772 490.941 1920 445.87V684H0V259.284Z" style="fill: rgb(231, 167, 104);"/>
  <ellipse cx="119.754" cy="371.709" rx="2.46407" ry="2.49833" fill="black"/>
  <ellipse cx="170.02" cy="356.719" rx="2.46407" ry="2.49833" fill="black"/>
  <ellipse cx="148.337" cy="379.703" rx="2.46407" ry="2.49833" fill="black"/>
  <ellipse cx="145.38" cy="364.714" rx="2.46407" ry="2.49833" fill="black"/>
  <ellipse cx="185.79" cy="391.696" rx="2.46407" ry="2.49833" fill="black"/>
  <ellipse cx="145.38" cy="413.681" rx="2.46407" ry="2.49833" fill="black"/>
  <ellipse cx="199.589" cy="366.712" rx="2.46407" ry="2.49833" fill="black"/>
  <path d="M509.882 669.555C509.882 676.459 515.479 682.055 522.382 682.055C529.286 682.055 534.882 676.459 534.882 669.555H509.882ZM441.248 458.696C441.248 451.793 435.651 446.196 428.748 446.196C421.844 446.196 416.248 451.793 416.248 458.696H441.248ZM534.882 669.555V542.125H509.882V669.555H534.882ZM534.882 542.125C534.882 531.547 532.709 517.913 524.032 506.676C514.894 494.841 500.173 487.734 479.523 487.734V512.734C494.034 512.734 500.743 517.42 504.244 521.955C508.206 527.086 509.882 534.397 509.882 542.125H534.882ZM479.523 487.734C468.323 487.734 460.352 487.699 454.282 487.097C448.111 486.485 445.865 485.426 445.006 484.801C444.641 484.535 443.597 483.777 442.689 479.786C441.699 475.442 441.248 468.92 441.248 458.696H416.248C416.248 469.065 416.649 478.033 418.313 485.338C420.057 492.996 423.467 500.049 430.302 505.019C436.643 509.631 444.344 511.234 451.814 511.975C459.384 512.726 468.747 512.734 479.523 512.734V487.734Z" fill="#97D485"/>
  <ellipse cx="226.201" cy="445.659" rx="2.46407" ry="2.49833" fill="black"/>
  <path d="M1880.23 625.25C1880.23 632.154 1874.64 637.75 1867.73 637.75C1860.83 637.75 1855.23 632.154 1855.23 625.25H1880.23ZM1867.73 420.474L1855.23 420.474L1855.23 420.474L1867.73 420.474ZM1707.11 273.794C1709.95 267.499 1717.35 264.696 1723.64 267.531C1729.94 270.367 1732.74 277.768 1729.9 284.063L1707.11 273.794ZM1855.23 625.25L1855.23 420.474H1880.23L1880.23 625.25H1855.23ZM1855.23 420.474C1855.23 412.404 1853.11 408.29 1850.76 405.814C1848.14 403.056 1843.67 400.674 1836.16 399.077C1828.67 397.485 1819.4 396.93 1808.45 396.842C1796.96 396.75 1786.35 397.13 1773.21 397.13V372.13C1784.45 372.13 1797.85 371.757 1808.65 371.843C1819.99 371.934 1831.31 372.488 1841.35 374.623C1851.38 376.754 1861.4 380.715 1868.89 388.603C1876.64 396.774 1880.23 407.608 1880.23 420.474L1855.23 420.474ZM1773.21 397.13C1747.67 397.13 1728.42 392.337 1714.76 383.022C1700.65 373.408 1693.88 359.931 1691.73 345.877C1689.65 332.258 1691.87 318.14 1695.21 305.893C1698.58 293.522 1703.34 282.154 1707.11 273.794L1729.9 284.063C1726.34 291.98 1722.19 301.963 1719.33 312.464C1716.43 323.088 1715.11 333.36 1716.45 342.098C1717.71 350.399 1721.33 357.245 1728.84 362.363C1736.78 367.78 1750.39 372.13 1773.21 372.13V397.13Z" fill="#97D485"/>
  <path d="M1710.7 282.82C1708.72 278.579 1710.51 273.515 1714.69 271.508C1718.87 269.502 1723.87 271.313 1725.85 275.553C1727.82 279.793 1726.04 284.858 1721.86 286.864C1717.67 288.871 1712.68 287.06 1710.7 282.82Z" fill="#42A1A9"/>
  <ellipse cx="310.965" cy="361.716" rx="2.46407" ry="2.49833" fill="black"/>
  <path d="M569.02 403.733C569.02 396.829 574.616 391.233 581.52 391.233C588.423 391.233 594.02 396.829 594.02 403.733H569.02ZM569.02 648.069V403.733H594.02V648.069H569.02Z" fill="#64A730"/>
  <ellipse cx="581.52" cy="404.732" rx="8.87064" ry="8.99398" fill="#EAFFE0"/>
  <ellipse cx="428.747" cy="459.696" rx="8.87064" ry="8.99398" fill="#42A1A9"/>
  <ellipse cx="77.3718" cy="307.752" rx="2.46407" ry="2.49833" fill="black"/>
  <ellipse cx="159.179" cy="302.755" rx="2.46407" ry="2.49833" fill="black"/>
  <ellipse cx="376.016" cy="416.679" rx="2.46407" ry="2.49833" fill="black"/>
  <ellipse cx="356.304" cy="394.694" rx="2.46407" ry="2.49833" fill="black"/>
  <ellipse cx="673.675" cy="521.609" rx="2.46407" ry="2.49833" fill="black"/>
  <ellipse cx="649.035" cy="516.612" rx="2.46407" ry="2.49833" fill="black"/>
  <ellipse cx="659.877" cy="526.605" rx="2.46407" ry="2.49833" fill="black"/>
  <ellipse cx="627.351" cy="507.618" rx="2.46407" ry="2.49833" fill="black"/>
  <ellipse cx="622.423" cy="531.602" rx="2.46407" ry="2.49833" fill="black"/>
  <ellipse cx="391.786" cy="402.688" rx="2.46407" ry="2.49833" fill="black"/>
  <ellipse cx="341.52" cy="416.679" rx="2.46407" ry="2.49833" fill="black"/>
  <ellipse cx="65.5441" cy="405.686" rx="2.46407" ry="2.49833" fill="black"/>
  <ellipse cx="63.573" cy="351.722" rx="2.46407" ry="2.49833" fill="black"/>
  <ellipse cx="545.544" cy="489.176" rx="2.46407" ry="2.49833" fill="black"/>
  <ellipse cx="230.144" cy="313.748" rx="2.46407" ry="2.49833" fill="black"/>
  <ellipse cx="308.994" cy="349.724" rx="2.46407" ry="2.49833" fill="black"/>
  <ellipse cx="444.025" cy="441.662" rx="2.46407" ry="2.49833" fill="black"/>
  <ellipse cx="149.322" cy="508.617" rx="2.46407" ry="2.49833" fill="black"/>
  <ellipse cx="327.721" cy="550.589" rx="2.46407" ry="2.49833" fill="black"/>
  <ellipse cx="349.405" cy="489.63" rx="2.46407" ry="2.49833" fill="black"/>
  <ellipse cx="461.766" cy="474.186" rx="2.46407" ry="2.49833" fill="black"/>
  <ellipse cx="338.563" cy="378.704" rx="2.46407" ry="2.49833" fill="black"/>
  <ellipse cx="470.636" cy="529.149" rx="2.46407" ry="2.49833" fill="black"/>
  <ellipse cx="246.899" cy="378.704" rx="2.46407" ry="2.49833" fill="black"/>
  <ellipse cx="20.2053" cy="277.772" rx="2.46407" ry="2.49833" fill="black"/>
  <ellipse cx="36.9609" cy="300.757" rx="2.46407" ry="2.49833" fill="black"/>
  <ellipse cx="65.5441" cy="280.77" rx="2.46407" ry="2.49833" fill="black"/>
  <ellipse cx="91.1704" cy="317.745" rx="2.46407" ry="2.49833" fill="black"/>
  <ellipse cx="167.064" cy="318.744" rx="2.46407" ry="2.49833" fill="black"/>
  <ellipse cx="282.382" cy="342.729" rx="2.46407" ry="2.49833" fill="black"/>
  <ellipse cx="301.109" cy="336.733" rx="2.46407" ry="2.49833" fill="black"/>
  <ellipse cx="371.088" cy="384.7" rx="2.46407" ry="2.49833" fill="black"/>
  <ellipse cx="426.283" cy="406.686" rx="2.46407" ry="2.49833" fill="black"/>
  <ellipse cx="471.622" cy="438.664" rx="2.46407" ry="2.49833" fill="black"/>
  <ellipse cx="688.46" cy="522.608" rx="2.46407" ry="2.49833" fill="black"/>
  <ellipse cx="660.862" cy="518.611" rx="2.46407" ry="2.49833" fill="black"/>
  <ellipse cx="884.6" cy="523.607" rx="2.46407" ry="2.49833" fill="black"/>
  <ellipse cx="927.967" cy="500.623" rx="2.46407" ry="2.49833" fill="black"/>
  <ellipse cx="1024.56" cy="494.627" rx="2.46407" ry="2.49833" fill="black"/>
  <ellipse cx="956.55" cy="515.613" rx="2.46407" ry="2.49833" fill="black"/>
  <ellipse cx="919.096" cy="497.625" rx="2.46407" ry="2.49833" fill="black"/>
  <ellipse cx="779.138" cy="520.61" rx="2.46407" ry="2.49833" fill="black"/>
  <ellipse cx="812.649" cy="537.598" rx="2.46407" ry="2.49833" fill="black"/>
  <ellipse cx="1099.47" cy="499.623" rx="2.46407" ry="2.49833" fill="black"/>
  <ellipse cx="1088.62" cy="487.631" rx="2.46407" ry="2.49833" fill="black"/>
  <ellipse cx="930.924" cy="533.601" rx="2.46407" ry="2.49833" fill="black"/>
  <ellipse cx="908.255" cy="516.612" rx="2.46407" ry="2.49833" fill="black"/>
  <ellipse cx="835.318" cy="562.581" rx="2.46407" ry="2.49833" fill="black"/>
  <ellipse cx="896.427" cy="507.618" rx="2.46407" ry="2.49833" fill="black"/>
  <ellipse cx="956.55" cy="497.625" rx="2.46407" ry="2.49833" fill="black"/>
  <ellipse cx="807.721" cy="543.594" rx="2.46407" ry="2.49833" fill="black"/>
  <ellipse cx="748.583" cy="569.576" rx="2.46407" ry="2.49833" fill="black"/>
  <ellipse cx="855.031" cy="535.599" rx="2.46407" ry="2.49833" fill="black"/>
  <ellipse cx="835.318" cy="525.606" rx="2.46407" ry="2.49833" fill="black"/>
  <ellipse cx="863.902" cy="516.612" rx="2.46407" ry="2.49833" fill="black"/>
  <ellipse cx="812.649" cy="519.61" rx="2.46407" ry="2.49833" fill="black"/>
  <ellipse cx="847.146" cy="512.615" rx="2.46407" ry="2.49833" fill="black"/>
  <ellipse cx="1297.58" cy="549.59" rx="2.46407" ry="2.49833" fill="black"/>
  <ellipse cx="1447.39" cy="549.59" rx="2.46407" ry="2.49833" fill="black"/>
  <ellipse cx="1295.61" cy="523.607" rx="2.46407" ry="2.49833" fill="black"/>
  <ellipse cx="1336.02" cy="510.616" rx="2.46407" ry="2.49833" fill="black"/>
  <ellipse cx="1273.92" cy="503.62" rx="2.46407" ry="2.49833" fill="black"/>
  <ellipse cx="1184.23" cy="503.62" rx="2.46407" ry="2.49833" fill="black"/>
  <ellipse cx="1184.23" cy="600.556" rx="2.46407" ry="2.49833" fill="black"/>
  <ellipse cx="1164.52" cy="564.58" rx="2.46407" ry="2.49833" fill="black"/>
  <ellipse cx="1121.15" cy="607.551" rx="2.46407" ry="2.49833" fill="black"/>
  <ellipse cx="1619.88" cy="560.582" rx="2.46407" ry="2.49833" fill="black"/>
  <ellipse cx="1657.46" cy="590.498" rx="2.46407" ry="2.49833" fill="black"/>
  <ellipse cx="1681.97" cy="546.592" rx="2.46407" ry="2.49833" fill="black"/>
  <ellipse cx="1657.33" cy="563.58" rx="2.46407" ry="2.49833" fill="black"/>
  <ellipse cx="1750.46" cy="526.498" rx="2.46407" ry="2.49833" fill="black"/>
  <ellipse cx="1826.86" cy="499.623" rx="2.46407" ry="2.49833" fill="black"/>
  <ellipse cx="1793.35" cy="549.59" rx="2.46407" ry="2.49833" fill="black"/>
  <ellipse cx="1661.46" cy="549.498" rx="2.46407" ry="2.49833" fill="black"/>
  <ellipse cx="1696.76" cy="573.574" rx="2.46407" ry="2.49833" fill="black"/>
  <ellipse cx="1730.27" cy="547.591" rx="2.46407" ry="2.49833" fill="black"/>
  <ellipse cx="1631.7" cy="565.579" rx="2.46407" ry="2.49833" fill="black"/>
  <ellipse cx="1685.91" cy="560.582" rx="2.46407" ry="2.49833" fill="black"/>
  <ellipse cx="1822.92" cy="575.573" rx="2.46407" ry="2.49833" fill="black"/>
  <ellipse cx="1426.69" cy="535.599" rx="2.46407" ry="2.49833" fill="black"/>
  <ellipse cx="1449.36" cy="534.6" rx="2.46407" ry="2.49833" fill="black"/>
  <ellipse cx="1412.9" cy="518.611" rx="2.46407" ry="2.49833" fill="black"/>
  <ellipse cx="1553.84" cy="595.559" rx="2.46407" ry="2.49833" fill="black"/>
  <ellipse cx="1548.91" cy="569.576" rx="2.46407" ry="2.49833" fill="black"/>
  <path d="M1710.63 478.495C1710.63 471.592 1716.23 465.995 1723.13 465.995C1730.04 465.995 1735.63 471.592 1735.63 478.495H1710.63ZM1710.63 659.374V478.495H1735.63V659.374H1710.63Z" fill="#42A1A9"/>
  <ellipse cx="1494.7" cy="553.587" rx="2.46407" ry="2.49833" fill="black"/>
  <ellipse cx="1407.97" cy="567.123" rx="2.46407" ry="2.49833" fill="black"/>
  <ellipse cx="1379.38" cy="543.594" rx="2.46407" ry="2.49833" fill="black"/>
  <ellipse cx="1722.99" cy="478.848" rx="8.87064" ry="8.99398" fill="#EAFFE0"/>
  <ellipse cx="1386.28" cy="528.604" rx="2.46407" ry="2.49833" fill="black"/>
  <ellipse cx="1194.09" cy="489.63" rx="2.46407" ry="2.49833" fill="black"/>
  <ellipse cx="1340.94" cy="527.605" rx="2.46407" ry="2.49833" fill="black"/>
  <ellipse cx="1526.24" cy="555.586" rx="2.46407" ry="2.49833" fill="black"/>
  <path d="M324.993 553.99C250.497 525.298 151.317 536.099 0 465.146V683.951C0 683.951 1418.52 684.061 1320.85 683.951C1223.17 683.84 1066.39 632.171 1049.35 626.676C1032.31 621.181 930.848 576.119 713.97 626.676C597.751 653.768 513.71 626.676 324.993 553.99Z" style="fill: rgb(216, 137, 70);"/>
  <ellipse cx="230.144" cy="652.521" rx="2.46407" ry="2.49833" fill="#FF8B64"/>
  <ellipse cx="11.3347" cy="512.615" rx="2.46407" ry="2.49833" fill="#FF8B64"/>
  <ellipse cx="65.5441" cy="515.613" rx="2.46407" ry="2.49833" fill="#FF8B64"/>
  <ellipse cx="29.0759" cy="524.607" rx="2.46407" ry="2.49833" fill="#FF8B64"/>
  <ellipse cx="29.0759" cy="497.625" rx="2.46407" ry="2.49833" fill="#FF8B64"/>
  <ellipse cx="109.897" cy="566.578" rx="2.46407" ry="2.49833" fill="#FF8B64"/>
  <ellipse cx="170.02" cy="537.598" rx="2.46407" ry="2.49833" fill="#FF8B64"/>
  <ellipse cx="194.661" cy="555.586" rx="2.46407" ry="2.49833" fill="#FF8B64"/>
  <ellipse cx="79.343" cy="509.616" rx="2.46407" ry="2.49833" fill="#FF8B64"/>
  <ellipse cx="281.396" cy="561.582" rx="2.46407" ry="2.49833" fill="#FF8B64"/>
  <ellipse cx="307.023" cy="598.557" rx="2.46407" ry="2.49833" fill="#FF8B64"/>
  <ellipse cx="340.534" cy="582.568" rx="2.46407" ry="2.49833" fill="#FF8B64"/>
  <ellipse cx="351.376" cy="589.563" rx="2.46407" ry="2.49833" fill="#FF8B64"/>
  <ellipse cx="627.351" cy="647.525" rx="2.46407" ry="2.49833" fill="#FF8B64"/>
  <ellipse cx="573.142" cy="640.529" rx="2.46407" ry="2.49833" fill="#FF8B64"/>
  <ellipse cx="586.94" cy="655.519" rx="2.46407" ry="2.49833" fill="#FF8B64"/>
  <ellipse cx="891.499" cy="620.542" rx="2.46407" ry="2.49833" fill="#FF8B64"/>
  <ellipse cx="881.643" cy="611.548" rx="2.46407" ry="2.49833" fill="#FF8B64"/>
  <ellipse cx="841.232" cy="622.541" rx="2.46407" ry="2.49833" fill="#FF8B64"/>
  <ellipse cx="951.622" cy="617.544" rx="2.46407" ry="2.49833" fill="#FF8B64"/>
  <ellipse cx="938.809" cy="660.516" rx="2.46407" ry="2.49833" fill="#FF8B64"/>
  <ellipse cx="778.152" cy="625.539" rx="2.46407" ry="2.49833" fill="#FF8B64"/>
  <ellipse cx="785.051" cy="638.531" rx="2.46407" ry="2.49833" fill="#FF8B64"/>
  <ellipse cx="1098.48" cy="653.52" rx="2.46407" ry="2.49833" fill="#FF8B64"/>
  <ellipse cx="1360.66" cy="638.531" rx="2.46407" ry="2.49833" fill="#FF8B64"/>
  <ellipse cx="1452.32" cy="648.524" rx="2.46407" ry="2.49833" fill="#FF8B64"/>
  <ellipse cx="1521.31" cy="613.547" rx="2.46407" ry="2.49833" fill="#FF8B64"/>
  <ellipse cx="1477.95" cy="635.533" rx="2.46407" ry="2.49833" fill="#FF8B64"/>
  <ellipse cx="1721.4" cy="642.528" rx="2.46407" ry="2.49833" fill="#FF8B64"/>
  <ellipse cx="1881.07" cy="610.549" rx="2.46407" ry="2.49833" fill="#FF8B64"/>
  <ellipse cx="1745.05" cy="633.534" rx="2.46407" ry="2.49833" fill="#FF8B64"/>
  <ellipse cx="1731.25" cy="627.538" rx="2.46407" ry="2.49833" fill="#FF8B64"/>
  <ellipse cx="1464.15" cy="618.544" rx="2.46407" ry="2.49833" fill="#FF8B64"/>
  <path d="M292.963 632.61L277.947 634.908L291.879 631.127L296.955 624.311L292.963 632.61Z" fill="#BE0000" stroke="#BE0000" stroke-width="3" stroke-linecap="round" stroke-linejoin="round"/>
  <path d="M239.107 597.996L243.35 611.432L240.749 598.295L244.207 591.299L239.107 597.996Z" fill="#BE0000" stroke="#BE0000" stroke-width="3" stroke-linecap="round" stroke-linejoin="round"/>
  <path d="M289.227 646.486L274.99 641.128L288.987 644.656L296.682 641.182L289.227 646.486Z" fill="#BE0000" stroke="#BE0000" stroke-width="3" stroke-linecap="round" stroke-linejoin="round"/>
  <path d="M275.143 654.997L267.702 641.574L276.126 653.444L284.212 655.841L275.143 654.997Z" fill="#BE0000" stroke="#BE0000" stroke-width="3" stroke-linecap="round" stroke-linejoin="round"/>
  <path d="M228.402 605.897L238.503 616.304L230.093 605.395L230.205 597.287L228.402 605.897Z" fill="#BE0000" stroke="#BE0000" stroke-width="3" stroke-linecap="round" stroke-linejoin="round"/>
  <path d="M226.038 620.454L240.456 617.964L226.623 618.78L220.079 614.15L226.038 620.454Z" fill="#BE0000" stroke="#BE0000" stroke-width="3" stroke-linecap="round" stroke-linejoin="round"/>
  <ellipse cx="1575.52" cy="621.542" rx="2.46407" ry="2.49833" fill="#FF8B64"/>
  <ellipse cx="1588.34" cy="631.535" rx="2.46407" ry="2.49833" fill="#FF8B64"/>
  <path d="M289.532 621.733C294.441 626.994 293.509 619.3 296.867 615.857C300.225 612.414 293.55 612.068 291.447 609.236C288.051 605.831 288.882 595.194 287.002 601.033C285.374 614.153 289.632 623.899 289.532 621.733Z" fill="#BE0000"/>
  <path d="M305.347 629.85C302.103 637.183 298.716 626.835 291.484 623.546C284.252 620.257 294.38 615.666 295.961 610.006C299.205 602.673 291.634 586.714 297.993 594.61C308.266 613.927 308.591 622.518 305.347 629.85Z" fill="#E51B1B"/>
  <path d="M248.443 599.173C242.583 595.198 250.187 594.775 253.005 590.817C255.824 586.86 257.192 593.463 260.263 595.064C264.089 597.855 274.273 595.156 268.903 598.059C256.435 601.991 246.327 599.454 248.443 599.173Z" fill="#BE0000"/>
  <path d="M238.127 584.813C231.52 589.34 242.076 590.902 246.383 597.543C250.69 604.184 253.575 593.267 258.818 590.693C265.426 586.166 282.069 590.918 273.43 585.958C253.114 579.099 244.735 580.285 238.127 584.813Z" fill="#E51B1B"/>
  <path d="M265.563 613.162C278.051 622.953 286.541 633.848 279.316 643.321C272.091 652.794 259.024 651.983 246.536 642.192C234.049 632.401 229.989 619.781 237.214 610.309C244.439 600.836 253.076 603.371 265.563 613.162Z" fill="#E51B1B"/>
  <path d="M289.532 621.733C294.441 626.994 293.509 619.3 296.867 615.857C300.225 612.414 293.55 612.068 291.447 609.236C288.051 605.831 288.882 595.194 287.002 601.033C285.374 614.153 289.632 623.899 289.532 621.733Z" fill="#BE0000"/>
  <path d="M305.347 629.85C302.103 637.183 298.716 626.835 291.484 623.546C284.252 620.257 294.38 615.666 295.961 610.006C299.205 602.673 291.634 586.714 297.993 594.61C308.266 613.927 308.591 622.518 305.347 629.85Z" fill="#E51B1B"/>
  <path d="M248.443 599.174C242.584 595.198 250.187 594.776 253.005 590.818C255.824 586.86 257.192 593.463 260.263 595.065C264.089 597.856 274.273 595.157 268.903 598.059C256.435 601.992 246.327 599.454 248.443 599.174Z" fill="#BE0000"/>
  <path d="M238.127 584.812C231.52 589.339 242.076 590.901 246.383 597.543C250.69 604.184 253.575 593.266 258.818 590.693C265.426 586.165 282.069 590.917 273.43 585.958C253.114 579.099 244.735 580.285 238.127 584.812Z" fill="#E51B1B"/>
  <path d="M1675.5 441C1675.5 434.096 1681.1 428.5 1688 428.5C1694.9 428.5 1700.5 434.096 1700.5 441H1675.5ZM1675.5 621.879V441H1700.5V621.879H1675.5Z" fill="#64A730"/>
  <path d="M265.563 613.162C278.051 622.953 286.541 633.848 279.316 643.321C272.091 652.794 259.024 651.983 246.536 642.192C234.049 632.401 229.989 619.781 237.214 610.309C244.439 600.836 253.076 603.371 265.563 613.162Z" fill="#E51B1B"/>
  <path d="M201.068 514.658L178.398 509.162L198.111 517.157L203.712 534.648L201.068 514.658Z" fill="#BE0000" stroke="#BE0000" stroke-width="4" stroke-linecap="round" stroke-linejoin="round"/>
  <path d="M192.725 533.908L175.726 509.662L189.237 534.37L186.702 550.67L192.725 533.908Z" fill="#BE0000" stroke="#BE0000" stroke-width="4" stroke-linecap="round" stroke-linejoin="round"/>
  <path d="M48.2435 503.672L73.172 502.576L49.7593 506.287L40.2935 516.526L48.2435 503.672Z" fill="#BE0000" stroke="#BE0000" stroke-width="4" stroke-linecap="round" stroke-linejoin="round"/>
  <path d="M53.7636 483.396L75.0229 496.641L55.195 486.678L43.8603 495.172L53.7636 483.396Z" fill="#BE0000" stroke="#BE0000" stroke-width="4" stroke-linecap="round" stroke-linejoin="round"/>
  <path d="M74.0951 541.805C59.5286 537.473 69.3607 550.588 66.8291 560.554C64.2974 570.52 76.9206 563.912 83.7706 566.829C93.5998 569.396 103.303 589.828 100.59 577.068C89.7307 551.211 71.6241 537.937 74.0951 541.805Z" fill="#BE0000"/>
  <path d="M173.352 538.638C188.307 539.58 174.793 548.606 173.795 558.932C172.797 569.257 163.315 558.618 155.987 559.009C146.015 558.036 130.165 574.044 136.962 562.887C155.703 542.137 176.94 535.827 173.352 538.638Z" fill="#BE0000"/>
  <path d="M54.3452 531.01L80.9147 506.078L58.4428 532.461L57.4449 552.797L54.3452 531.01Z" fill="#BE0000" stroke="#BE0000" stroke-width="4" stroke-linecap="round" stroke-linejoin="round"/>
  <path d="M207.452 553.814C214.805 538.331 193.774 546.919 178.856 539.398C163.937 531.877 170.164 555.054 163.254 565.469C155.901 580.952 120.327 590.288 141.423 590.02C185.966 580.567 200.099 569.297 207.452 553.814Z" fill="#E51B1B"/>
  <path d="M127.151 531.533C93.8866 527.106 66.6083 517.771 69.2017 497.738C71.7951 477.705 96.2239 468.253 129.488 472.68C162.752 477.107 183.948 492.63 181.354 512.663C178.761 532.696 160.415 535.96 127.151 531.533Z" fill="#E51B1B"/>
  <ellipse cx="109.405" cy="512.66" rx="8.87064" ry="8.99398" fill="white"/>
  <ellipse cx="135.031" cy="517.657" rx="8.87064" ry="8.99398" fill="white"/>
  <ellipse cx="258.727" cy="615.092" rx="2.46407" ry="2.49833" fill="white"/>
  <ellipse cx="267.598" cy="623.086" rx="2.46407" ry="2.49833" fill="white"/>
  <path d="M36.4871 544.063C34.7027 527.08 51.845 542.404 68.5956 540.595C85.3461 538.786 71.5974 558.206 74.6686 570.315C76.453 587.298 107.2 608.385 87.19 600.787C47.9371 576.467 38.2715 561.047 36.4871 544.063Z" fill="#E51B1B"/>
  <path d="M676.575 580.122L687.13 574.265L677.797 580.939L675.916 587.46L676.575 580.122Z" fill="#BE0000" stroke="#BE0000" stroke-width="3" stroke-linecap="round" stroke-linejoin="round"/>
  <path d="M726.398 591.336L719.483 582.4L725.09 591.562L724.466 597.773L726.398 591.336Z" fill="#BE0000" stroke="#BE0000" stroke-width="3" stroke-linecap="round" stroke-linejoin="round"/>
  <path d="M675.485 568.661L687.597 568.774L676.176 569.971L671.408 574.7L675.485 568.661Z" fill="#BE0000" stroke="#BE0000" stroke-width="3" stroke-linecap="round" stroke-linejoin="round"/>
  <path d="M683.61 558.39L692.907 566.436L683.311 559.828L676.613 560.25L683.61 558.39Z" fill="#BE0000" stroke="#BE0000" stroke-width="3" stroke-linecap="round" stroke-linejoin="round"/>
  <path d="M732.174 582.451L721.736 577.404L731.053 583.293L733.234 589.42L732.174 582.451Z" fill="#BE0000" stroke="#BE0000" stroke-width="3" stroke-linecap="round" stroke-linejoin="round"/>
  <path d="M729.871 570.856L719.816 576.693L729.902 572.275L736.075 573.957L729.871 570.856Z" fill="#BE0000" stroke="#BE0000" stroke-width="3" stroke-linecap="round" stroke-linejoin="round"/>
  <path d="M682.171 587.357C677.042 584.752 679.885 590.28 678.343 593.792C676.8 597.305 681.875 595.729 684.233 597.28C687.716 598.906 690.067 607.132 689.838 602.225C687.388 591.913 681.491 585.756 682.171 587.357Z" fill="#BE0000"/>
  <path d="M668.112 585.604C668.483 579.198 673.898 586.047 680.209 586.531C686.52 587.014 680.25 593.252 680.652 597.943C680.281 604.348 690.383 614.264 683.437 610.077C670.382 598.379 667.741 592.009 668.112 585.604Z" fill="#E51B1B"/>
  <path d="M719.108 593.017C724.587 594.395 719.036 596.804 718.039 600.555C717.043 604.306 714.179 599.717 711.442 599.358C707.81 598.311 700.97 603.142 704.164 599.482C712.362 593.097 720.607 592.224 719.108 593.017Z" fill="#BE0000"/>
  <path d="M730.81 600.978C734.473 595.757 726.165 597.486 721.099 593.677C716.033 589.868 716.931 598.87 713.74 602.247C710.078 607.469 696.341 608.473 704.167 609.826C721.231 609.396 727.148 606.199 730.81 600.978Z" fill="#E51B1B"/>
  <path d="M702.436 587.209C690.391 583.282 681.018 577.425 683.759 568.316C686.501 559.207 696.471 556.222 708.516 560.149C720.562 564.076 727.113 572.448 724.372 581.557C721.63 590.666 714.482 591.136 702.436 587.209Z" fill="#E51B1B"/>
  <ellipse rx="1.95828" ry="2.00378" transform="matrix(-0.938209, 0.34607, -0.34819, -0.937424, 706.994995, 583.877991)" fill="white"/>
  <ellipse rx="1.95828" ry="2.00378" transform="matrix(-0.938209, 0.34607, -0.34819, -0.937424, 698.14801, 580.30603)" fill="white"/>
  <path d="M1770.68 613.547C1825.87 613.547 1876.63 605.053 1920 584.567V683.95C1920 683.95 1067.51 684.061 1111.29 683.95C1155.08 683.839 892.977 591.062 1026.53 619.543C1160.08 648.024 1369 614.05 1477.95 605.552C1625.3 594.06 1659.78 613.547 1770.68 613.547Z" style="fill: rgb(216, 137, 70);"/>
  <path d="M1460.66 144.264C1417.34 160.491 1404.15 183.231 1399.23 200.301C1396.24 218.702 1398.03 227.598 1410.48 237.75C1424.38 249.081 1432.72 236.285 1447.57 241.142C1461.65 245.746 1466.33 252.363 1472.98 255.388C1484.52 260.634 1482.18 261.817 1503.3 258.846C1522.8 256.102 1539.37 283.299 1559.37 275.807C1595.1 262.421 1605.37 283.306 1614.53 263.171C1621.81 247.173 1620.82 227.677 1615.49 214.663C1604.63 188.174 1589.51 174.468 1553.64 155.115C1521.91 137.991 1490.71 133.007 1460.66 144.264Z" fill="#E98A86"/>
  <ellipse rx="5.32327" ry="5.45468" transform="matrix(0.987189, -0.159558, 0.159144, 0.987255, 1456.420044, 205.701996)" fill="white"/>
  <ellipse rx="5.32327" ry="5.45468" transform="matrix(0.987189, -0.159558, 0.159144, 0.987255, 1493.300049, 217.990005)" fill="white"/>
  <path d="M1453.52 232.184C1455.41 230.167 1455.3 227.003 1453.28 225.117C1451.26 223.231 1448.1 223.338 1446.21 225.355L1453.52 232.184ZM1429.06 287.373L1433.96 286.363L1429.06 287.373ZM1404.95 361.101L1408.73 364.382L1404.95 361.101ZM1391.16 423.442C1391.92 426.097 1394.69 427.634 1397.34 426.875C1400 426.116 1401.54 423.349 1400.78 420.693L1391.16 423.442ZM1446.21 225.355C1441.38 230.527 1434.63 239.679 1429.69 250.698C1424.77 261.686 1421.42 275.055 1424.17 288.384L1433.96 286.363C1431.8 275.872 1434.35 264.744 1438.82 254.787C1443.26 244.862 1449.37 236.621 1453.52 232.184L1446.21 225.355ZM1424.17 288.384C1429.68 315.073 1419.56 336.687 1401.18 357.819L1408.73 364.382C1428.17 342.035 1440.35 317.332 1433.96 286.363L1424.17 288.384ZM1401.18 357.819C1393.35 366.821 1390.02 380.03 1388.96 392.047C1387.9 404.162 1389.07 416.126 1391.16 423.442L1400.78 420.693C1399.09 414.776 1397.95 404.072 1398.92 392.92C1399.91 381.669 1402.96 371.011 1408.73 364.382L1401.18 357.819Z" fill="#E98A86"/>
  <path d="M1545.52 263.127C1544.82 260.457 1546.41 257.722 1549.08 257.018C1551.75 256.314 1554.49 257.907 1555.19 260.577L1545.52 263.127ZM1542.59 312.9L1538.73 309.717L1542.59 312.9ZM1531.32 376.327L1526.44 377.428L1531.32 376.327ZM1517.65 428.004C1515.74 429.997 1512.58 430.064 1510.58 428.153C1508.59 426.242 1508.52 423.077 1510.44 421.084L1517.65 428.004ZM1555.19 260.577C1556.71 266.324 1558.05 275.742 1557.33 285.834C1556.61 295.893 1553.8 307.186 1546.45 316.083L1538.73 309.717C1544.26 303.03 1546.71 294.061 1547.35 285.122C1547.99 276.217 1546.78 267.902 1545.52 263.127L1555.19 260.577ZM1546.45 316.083C1532.24 333.279 1531.13 352.753 1536.2 375.225L1526.44 377.428C1521.01 353.378 1521.78 330.244 1538.73 309.717L1546.45 316.083ZM1536.2 375.225C1538.43 385.114 1535.62 396.29 1531.67 405.57C1527.68 414.942 1522.11 423.358 1517.65 428.004L1510.44 421.084C1513.89 417.478 1518.85 410.148 1522.47 401.656C1526.12 393.07 1527.99 384.264 1526.44 377.428L1536.2 375.225Z" fill="#E98A86"/>
  <path d="M1470.85 235.109C1472.83 245.068 1474.15 269.035 1463.62 285.233C1450.47 305.481 1439.9 319.868 1439.9 361.483C1439.9 374.75 1429.97 389.837 1414.37 418.668" stroke="#E98A86" stroke-width="10" stroke-linecap="round" stroke-linejoin="round"/>
  <path d="M1538.71 246.729C1536.98 260.434 1529.16 294.84 1511.76 322.819C1490.01 357.792 1488.59 366.772 1487.65 393.711C1486.7 420.649 1487.65 441.917 1471.1 458.931" stroke="#E98A86" stroke-width="10" stroke-linecap="round" stroke-linejoin="round"/>
  <path d="M1499.47 235.386C1499.63 241.53 1484.34 242.15 1484.34 309.586C1484.34 324.237 1481.98 366.299 1451.72 399.854C1415.41 440.123 1428.08 443.335 1421.93 475" stroke="#E98A86" stroke-width="10" stroke-linecap="round" stroke-linejoin="round"/>
  <path d="M1295.88 233.346C1271.39 246.638 1265.4 261.33 1263.89 271.946C1263.63 283.198 1265.44 288.37 1273.71 293.41C1282.94 299.035 1286.86 290.692 1296.12 292.367C1304.9 293.954 1308.24 297.524 1312.46 298.782C1319.78 300.964 1318.48 301.865 1330.84 298.339C1342.24 295.083 1354.38 309.976 1365.69 303.839C1385.9 292.874 1393.76 304.514 1397.55 291.714C1400.57 281.543 1398.36 269.966 1394.1 262.625C1385.42 247.682 1375.27 240.738 1352.26 232.135C1331.9 224.522 1312.88 224.125 1295.88 233.346Z" fill="#D23636"/>
  <ellipse rx="3.20649" ry="3.29319" transform="matrix(0.95576, -0.294146, 0.293019, 0.956107, 1362.109985, 260.755005)" fill="white"/>
  <ellipse rx="3.20649" ry="3.29319" transform="matrix(0.95576, -0.294146, 0.293019, 0.956107, 1311.109985, 248.755005)" fill="white"/>
  <path d="M1301.71 256.101C1302.51 254.971 1302.23 253.412 1301.1 252.618C1299.97 251.824 1298.41 252.097 1297.62 253.226L1301.71 256.101ZM1292.12 291.434L1294.48 290.598L1292.12 291.434ZM1283.86 337.523L1285.95 338.886L1283.86 337.523ZM1281.27 375.737C1281.83 377 1283.31 377.572 1284.57 377.014C1285.83 376.457 1286.4 374.981 1285.85 373.718L1281.27 375.737ZM1297.62 253.226C1295.2 256.678 1291.95 262.658 1289.94 269.597C1287.93 276.519 1287.07 284.67 1289.76 292.27L1294.48 290.598C1292.26 284.36 1292.89 277.371 1294.74 270.99C1296.59 264.626 1299.58 259.141 1301.71 256.101L1297.62 253.226ZM1289.76 292.27C1295.34 307.991 1291.02 321.93 1281.76 336.159L1285.95 338.886C1295.65 323.98 1300.79 308.373 1294.48 290.598L1289.76 292.27ZM1281.76 336.159C1277.93 342.055 1277.03 350.096 1277.4 357.329C1277.77 364.612 1279.45 371.604 1281.27 375.737L1285.85 373.718C1284.31 370.249 1282.74 363.876 1282.39 357.076C1282.04 350.225 1282.97 343.465 1285.95 338.886L1281.76 336.159Z" fill="#D23636"/>
  <path d="M1380.78 277.628C1380.6 276.258 1381.56 275 1382.93 274.817C1384.29 274.635 1385.55 275.597 1385.73 276.967L1380.78 277.628ZM1374.8 307.301L1373.08 305.481L1374.8 307.301ZM1363.31 344.46L1360.83 344.702L1363.31 344.46ZM1350.95 374C1349.88 374.871 1348.31 374.707 1347.44 373.635C1346.57 372.562 1346.73 370.986 1347.8 370.115L1350.95 374ZM1385.73 276.967C1386.2 280.472 1386.3 286.157 1385.13 292.089C1383.96 298.004 1381.46 304.442 1376.51 309.121L1373.08 305.481C1376.99 301.785 1379.16 296.477 1380.23 291.112C1381.29 285.764 1381.19 280.634 1380.78 277.628L1385.73 276.967ZM1376.51 309.121C1366.57 318.517 1364.44 330.293 1365.8 344.218L1360.83 344.702C1359.39 329.97 1361.57 316.359 1373.08 305.481L1376.51 309.121ZM1365.8 344.218C1366.38 350.148 1363.92 356.518 1360.89 361.748C1357.83 367.022 1353.91 371.596 1350.95 374L1347.8 370.115C1350.2 368.166 1353.75 364.092 1356.57 359.231C1359.42 354.326 1361.25 349.074 1360.83 344.702L1365.8 344.218Z" fill="#D23636"/>
  <path d="M1309.51 286.831C1311.51 292.623 1314.29 306.847 1309.36 317.406C1303.19 330.605 1298.08 340.084 1301.53 364.971C1302.63 372.905 1297.96 382.751 1291.05 401.284" stroke="#D23636" stroke-width="5" stroke-linecap="round" stroke-linejoin="round"/>
  <path d="M1350.96 288.16C1351.06 296.5 1349.25 317.724 1341.19 335.897C1331.12 358.613 1331.02 364.101 1332.7 380.29C1334.37 396.479 1336.7 409.119 1328.24 420.665" stroke="#D23636" stroke-width="5" stroke-linecap="round" stroke-linejoin="round"/>
  <path d="M1330.33 270.664C1330.94 274.325 1321.87 275.962 1327.47 316.291C1328.68 325.053 1330.77 350.404 1315.5 372.977C1297.18 400.067 1305.01 400.938 1303.97 420.384" stroke="#D23636" stroke-width="5" stroke-linecap="round" stroke-linejoin="round"/>
  <path d="M486.301 244.723C507.075 253.487 513.054 264.843 515.117 273.27C516.21 282.309 515.164 286.616 508.904 291.328C501.916 296.588 498.105 290.18 490.781 292.261C483.837 294.233 481.429 297.372 478.13 298.719C472.41 301.054 473.524 301.677 463.301 299.815C453.859 298.096 445.263 311.047 435.671 307.001C418.533 299.771 413.129 309.764 409.061 299.758C405.829 291.808 406.69 282.312 409.541 276.064C415.344 263.348 422.973 256.953 440.816 248.206C456.602 240.467 471.889 238.643 486.301 244.723Z" fill="#5BA3BA"/>
  <ellipse rx="2.59408" ry="2.66422" transform="matrix(-0.979941, -0.19929, -0.198134, 0.980175, 504.352997, 268.85199)" fill="white"/>
  <path d="M490.993 274.023C490.171 272.914 490.403 271.348 491.512 270.525C492.621 269.703 494.187 269.935 495.01 271.044L490.993 274.023ZM499.765 302.213L497.4 301.402L499.765 302.213ZM507.257 339.426L505.196 340.842L507.257 339.426ZM510.337 370.517C509.791 371.786 508.32 372.371 507.052 371.825C505.784 371.28 505.198 369.809 505.744 368.541L510.337 370.517ZM495.01 271.044C497.09 273.85 499.88 278.705 501.661 284.357C503.437 289.992 504.297 296.702 502.13 303.024L497.4 301.402C499.088 296.477 498.497 290.951 496.893 285.86C495.294 280.786 492.774 276.424 490.993 274.023L495.01 271.044ZM502.13 303.024C497.824 315.581 501.504 326.645 509.317 338.01L505.196 340.842C496.932 328.82 492.371 316.07 497.4 301.402L502.13 303.024ZM509.317 338.01C512.656 342.867 513.513 349.495 513.312 355.396C513.11 361.344 511.813 367.085 510.337 370.517L505.744 368.541C506.928 365.789 508.13 360.682 508.315 355.226C508.502 349.724 507.637 344.392 505.196 340.842L509.317 338.01Z" fill="#5BA3BA"/>
  <ellipse rx="2.59408" ry="2.66422" transform="matrix(-0.979941, -0.19929, -0.198134, 0.980175, 491.523987, 273.372986)" fill="white"/>
  <path d="M428.864 283.646C429.069 282.279 428.128 281.006 426.764 280.802C425.4 280.598 424.128 281.54 423.923 282.907L428.864 283.646ZM432.862 307.653L434.605 305.86L432.862 307.653ZM441.682 337.856L444.164 338.136L441.682 337.856ZM451.001 362.273C452.057 363.16 453.633 363.022 454.52 361.963C455.407 360.904 455.269 359.326 454.213 358.438L451.001 362.273ZM423.923 282.907C423.493 285.784 423.342 290.434 424.227 295.303C425.11 300.156 427.076 305.504 431.119 309.446L434.605 305.86C431.587 302.916 429.925 298.704 429.142 294.403C428.363 290.12 428.508 286.025 428.864 283.646L423.923 282.907ZM431.119 309.446C438.894 317.028 440.465 326.405 439.2 337.575L444.164 338.136C445.521 326.161 443.924 314.948 434.605 305.86L431.119 309.446ZM439.2 337.575C438.64 342.513 440.603 347.804 443.01 352.105C445.441 356.449 448.59 360.247 451.001 362.273L454.213 358.438C452.352 356.875 449.566 353.583 447.368 349.656C445.145 345.683 443.78 341.519 444.164 338.136L439.2 337.575Z" fill="#5BA3BA"/>
  <path d="M471.881 271.281C470.724 276.103 469.611 287.775 474.42 295.886C480.432 306.024 485.296 313.252 484.483 333.563C484.224 340.038 488.763 347.595 495.796 361.971" stroke="#5BA3BA" stroke-width="5" stroke-linecap="round" stroke-linejoin="round"/>
  <path d="M446.297 293.211C446.736 298.337 449.126 311.256 455.167 321.925C462.719 335.262 463.112 338.625 463.062 348.663C463.012 358.701 462.344 366.601 468.233 373.178" stroke="#5BA3BA" stroke-width="5" stroke-linecap="round" stroke-linejoin="round"/>
  <path d="M462.806 289.789C462.642 292.298 468.865 292.801 467.761 320.364C467.522 326.352 467.797 343.583 479.586 357.792C493.733 374.844 488.513 375.95 490.501 388.993" stroke="#5BA3BA" stroke-width="5" stroke-linecap="round" stroke-linejoin="round"/>
  <ellipse cx="1687.92" cy="441.382" rx="8.87064" ry="8.99398" fill="#EAFFE0"/>
</svg>