<?xml version="1.0" encoding="utf-8"?>
<svg viewBox="0 0 1922 1876.577" preserveAspectRatio="xMidYMid slice" fill="none" xmlns="http://www.w3.org/2000/svg">
  <ellipse style="fill-rule: nonzero; paint-order: fill; stroke: rgba(0, 0, 0, 0); fill: rgb(178, 222, 255);" cx="756.073" cy="1054.159" rx="260.247" ry="98.23"/>
  <ellipse style="fill-rule: nonzero; paint-order: fill; stroke: rgba(0, 0, 0, 0); fill: rgb(178, 222, 255);" cx="331.349" cy="1068.421" rx="260.247" ry="98.23"/>
  <rect width="1920" height="1885.19" fill="black" fill-opacity="0" style="" y="-704.671"/>
  <path d="M 448.5 1095.469 C 327.5 1157.649 174.5 1126.349 0 1045.459 L 0 624.329 L 1920 624.329 L 1920 799.329 L 1920 952.829 C 1920 952.829 1450.5 1142.529 1108 969.469 C 788.345 807.949 684.902 973.979 448.5 1095.469 Z" transform="matrix(-1, 0, 0, -1, 1920, 1752.658203)"/>
  <rect width="428" height="1351" fill="black" fill-opacity="0" transform="matrix(-1, 0, 0, 1, 0, 0)" x="-997" y="-274.671"/>
  <rect width="428" height="1351" fill="black" fill-opacity="0" transform="matrix(-1, 0, 0, 1, 0, 0)" x="-997" y="-274.671"/>
  <rect width="428" height="1339.86" fill="black" fill-opacity="0" transform="matrix(-1, 0, 0, 1, 0, 0)" x="-997" y="-274.671"/>
  <path d="M 995.637 -246.703 C 814.797 -42.283 764.467 104.787 844.677 194.557 C 964.957 329.197 950.807 421.337 953.177 515.827 C 955.517 610.311 915.417 702.455 832.867 759.127 C 750.307 815.83 717.327 872.471 790.467 981.132 C 835.427 1047.961 843.927 1088.938 834.347 1092.957 C 829.037 1095.204 824.207 1078.243 809.927 1055.903 C 798.457 1037.994 778.747 1015.907 764.467 1002.997 C 714.607 957.906 694.797 911.708 690.407 856.586 C 680.957 738.464 805.537 677.615 812.807 604.331 C 820.067 531.046 784.117 427.387 742.757 379.067 C 701.437 330.747 604.092 296.127 573.414 121.307 C 552.973 4.767 586.778 -117.883 674.827 -246.703 C 825.22 -305.66 1014.945 -254.272 995.637 -246.703 Z" fill="#FF623B" transform="matrix(-1, 0, 0, -1, 1564.637207, 818.486267)"/>
  <rect width="318.685" height="993.589" fill="black" fill-opacity="0" transform="matrix(-1, 0, 0, 1, 0, 0)" x="-888.05" y="73.491"/>
  <path d="M 807.892 1021.329 C 807.512 1025.822 793.752 1045.562 784.272 1057.65 C 777.442 1066.352 767.782 1077.87 758.412 1087.231 C 748.302 1096.966 734.382 1108.03 747.552 1094.72 C 766.372 1075.5 775.962 1044.869 779.252 1030.566 C 782.532 1016.264 786.232 1000.949 791.352 971.584 C 796.502 942.062 793.212 894.946 790.082 874.47 C 785.222 842.7 763.482 777.77 751.892 749.93 C 740.292 722.11 712.902 673.76 657.262 627.56 C 600.552 580.48 581.092 518.52 571.102 455.49 C 555.562 357.4 573.888 233.757 670.922 84.895 C 674.585 79.276 904.694 53.303 887.751 107.821 C 879.555 134.193 794.322 215.33 761.342 274.82 C 746.742 301.21 732.772 323.86 722.092 347.15 C 714.192 367.92 713.172 370.52 709.692 381.4 C 699.962 433.01 696.442 465.93 700.832 480.81 C 707.402 503.11 744.922 560.69 755.962 573.96 C 765.542 585.47 815.862 658.01 816.372 675.76 C 816.682 687.05 825.822 699.27 830.402 713.76 C 834.982 728.22 835.102 729.17 835.102 735.85 C 835.102 754.14 847.272 790.56 840.162 813.4 C 833.082 836.25 844.392 813.15 843.542 859 C 842.722 904.85 844.232 905.989 842.212 915.102 C 840.852 921.209 839.372 938.576 835.102 950.13 L 830.752 968.157 L 825.662 985.064 C 824.582 989.177 818.912 1000.856 807.892 1021.329 Z" fill="#FF8B64" transform="matrix(-1, 0, 0, -1, 1454.842529, 1174.650024)"/>
  <rect width="95.219" height="110.964" fill="black" fill-opacity="0" transform="matrix(-1, 0, 0, 1, 0, 0)" x="-690.24" y="939.199"/>
  <path d="M 676.04 1017.076 C 694.78 989.066 695 956.286 676.55 943.916 C 658.1 931.576 627.92 944.266 609.22 972.266 C 590.48 1000.266 590.26 1033.056 608.71 1045.426 C 627.16 1057.796 657.34 1045.076 676.04 1017.076 Z" fill="#FFC0AA" transform="matrix(-1, 0, 0, -1, 1285.26001, 1989.354858)"/>
  <rect width="59.591" height="90.445" fill="black" fill-opacity="0" transform="matrix(-1, 0, 0, 1, 0, 0)" x="-790.56" y="708.539"/>
  <path d="M 790.54 754.459 C 791.11 729.489 778.25 708.919 761.79 708.539 C 745.36 708.159 731.55 728.129 730.98 753.099 C 730.41 778.029 743.3 798.599 759.73 798.979 C 776.16 799.359 789.97 779.389 790.54 754.459 Z" fill="#FFC0AA" transform="matrix(-1, 0, 0, -1, 1521.52002, 1507.517944)"/>
  <rect width="61.54" height="79.753" fill="black" fill-opacity="0" transform="matrix(-1, 0, 0, 1, 0, 0)" x="-771.75" y="612.199"/>
  <path d="M 766.058 640.289 C 756.228 619.279 736.988 607.469 723.148 613.989 C 709.308 620.479 706.058 642.819 715.918 663.859 C 725.738 684.869 744.978 696.679 758.818 690.159 C 772.658 683.669 775.908 661.329 766.058 640.289 Z" fill="#FFC0AA" transform="matrix(-1, 0, 0, -1, 1481.968262, 1304.147949)"/>
  <rect width="55.576" height="66.325" fill="black" fill-opacity="0" transform="matrix(-1, 0, 0, 1, 0, 0)" x="-713.91" y="532.699"/>
  <path d="M 706.302 553.239 C 695.782 536.309 678.182 528.239 667.032 535.199 C 655.882 542.159 655.372 561.559 665.922 578.489 C 676.442 595.419 694.072 603.489 705.232 596.529 C 716.352 589.569 716.852 570.169 706.302 553.239 Z" fill="#FFC0AA" transform="matrix(-1, 0, 0, -1, 1372.232178, 1131.727905)"/>
  <rect width="44.904" height="62.667" fill="black" fill-opacity="0" transform="matrix(-1, 0, 0, 1, 0, 0)" x="-665.53" y="459.009"/>
  <path d="M 663.26 483.87 C 657.86 466.94 644.4 456.12 633.25 459.69 C 622.13 463.27 617.48 479.91 622.88 496.84 C 628.32 513.74 641.75 524.59 652.9 520.99 C 664.05 517.41 668.69 500.77 663.26 483.87 Z" fill="#FFC0AA" transform="matrix(-1, 0, 0, -1, 1286.160156, 980.688904)"/>
  <rect width="37.305" height="56.078" fill="black" fill-opacity="0" transform="matrix(-1, 0, 0, 1, 0, 0)" x="-642.03" y="392.839"/>
  <path d="M 641.79 418.944 C 640.17 403.504 630.6 391.864 620.43 392.904 C 610.26 393.984 603.34 407.394 604.95 422.804 C 606.56 438.244 616.13 449.924 626.3 448.844 C 636.48 447.774 643.4 434.384 641.79 418.944 Z" fill="#FFC0AA" transform="matrix(-1, 0, 0, -1, 1246.73999, 841.752625)"/>
  <rect width="31.972" height="48.547" fill="black" fill-opacity="0" transform="matrix(-1, 0, 0, 1, 0, 0)" x="-632.23" y="335.469"/>
  <path d="M 632.22 360.179 C 632.6 346.789 625.75 335.719 616.93 335.469 C 608.12 335.239 600.66 345.909 600.28 359.289 C 599.9 372.679 606.76 383.749 615.57 384.009 C 624.39 384.229 631.84 373.559 632.22 360.179 Z" fill="#FFC0AA" transform="matrix(-1, 0, 0, -1, 1232.5, 719.477722)"/>
  <rect width="31.998" height="48.523" fill="black" fill-opacity="0" transform="matrix(-1, 0, 0, 1, 0, 0)" x="-670.79" y="330.119"/>
  <path d="M 670.764 353.758 C 670.224 340.378 662.674 329.808 653.854 330.128 C 645.044 330.468 638.284 341.608 638.824 354.998 C 639.324 368.378 646.904 378.978 655.724 378.628 C 664.534 378.318 671.264 367.148 670.764 353.758 Z" fill="#FFC0AA" transform="matrix(-1, 0, 0, -1, 1309.583862, 708.757324)"/>
  <rect width="34.966" height="51.919" fill="black" fill-opacity="0" transform="matrix(-1, 0, 0, 1, 0, 0)" x="-683.02" y="386.569"/>
  <path d="M 682.55 409.866 C 680.34 395.596 670.89 385.216 661.51 386.706 C 652.12 388.156 646.31 400.936 648.52 415.176 C 650.76 429.416 660.18 439.796 669.56 438.346 C 678.95 436.886 684.76 424.106 682.55 409.866 Z" fill="#FFC0AA" transform="matrix(-1, 0, 0, -1, 1331.069946, 825.044861)"/>
  <rect width="41.853" height="58.423" fill="black" fill-opacity="0" transform="matrix(-1, 0, 0, 1, 0, 0)" x="-707.6" y="444.169"/>
  <path d="M 705.484 467.339 C 700.434 451.549 687.884 441.459 677.524 444.809 C 667.134 448.139 662.804 463.639 667.854 479.429 C 672.914 495.189 685.424 505.279 695.814 501.959 C 706.214 498.609 710.544 483.099 705.484 467.339 Z" fill="#FFC0AA" transform="matrix(-1, 0, 0, -1, 1373.344116, 946.757874)"/>
  <rect width="55.58" height="66.347" fill="black" fill-opacity="0" transform="matrix(-1, 0, 0, 1, 0, 0)" x="-760.75" y="502.989"/>
  <path d="M 753.165 523.559 C 742.605 506.629 725.015 498.529 713.855 505.489 C 702.705 512.459 702.235 531.849 712.755 548.779 C 723.305 565.709 740.905 573.809 752.055 566.849 C 763.205 559.859 763.685 540.489 753.165 523.559 Z" fill="#FFC0AA" transform="matrix(-1, 0, 0, -1, 1465.915283, 1072.338013)"/>
  <rect width="62.85" height="78.714" fill="black" fill-opacity="0" transform="matrix(-1, 0, 0, 1, 0, 0)" x="-831.12" y="579.029"/>
  <path d="M 824.15 605.349 C 813.25 584.849 793.44 574.059 779.95 581.269 C 766.46 588.449 764.35 610.949 775.25 631.429 C 786.15 651.929 805.96 662.719 819.45 655.509 C 832.94 648.319 835.05 625.819 824.15 605.349 Z" fill="#FFC0AA" transform="matrix(-1, 0, 0, -1, 1599.400024, 1236.777954)"/>
  <rect width="63.529" height="96.3" fill="black" fill-opacity="0" transform="matrix(-1, 0, 0, 1, 0, 0)" x="-865.68" y="697.629"/>
  <path d="M 865.61 747.209 C 866.81 720.629 853.58 698.419 836.07 697.659 C 818.57 696.869 803.4 717.809 802.23 744.359 C 801.03 770.939 814.27 793.149 831.78 793.909 C 849.28 794.699 864.44 773.759 865.61 747.209 Z" fill="#FFC0AA" transform="matrix(-1, 0, 0, -1, 1667.839966, 1491.567993)"/>
  <rect width="76.122" height="104.734" fill="black" fill-opacity="0" transform="matrix(-1, 0, 0, 1, 0, 0)" x="-845" y="834.259"/>
  <path d="M 840.52 898.429 C 850.41 870.259 843.36 842.129 824.82 835.619 C 806.27 829.099 783.21 846.659 773.35 874.819 C 763.46 902.949 770.51 931.109 789.05 937.629 C 807.6 944.149 830.66 926.589 840.52 898.429 Z" fill="#FFC0AA" transform="matrix(-1, 0, 0, -1, 1613.869995, 1773.248047)"/>
  <rect width="95.195" height="110.964" fill="black" fill-opacity="0" transform="matrix(-1, 0, 0, 1, 0, 0)" x="-781.14" y="965.369"/>
  <path d="M 766.961 1043.246 C 785.671 1015.236 785.891 982.456 767.441 970.086 C 748.991 957.746 718.821 970.436 700.111 998.436 C 681.411 1026.446 681.191 1059.226 699.641 1071.596 C 718.061 1083.966 748.231 1071.246 766.961 1043.246 Z" fill="#FFC0AA" transform="matrix(-1, 0, 0, -1, 1467.080811, 2041.694702)"/>
  <rect width="18.4" height="27.397" fill="black" fill-opacity="0" transform="matrix(-1, 0, 0, 1, 0, 0)" x="-650.74" y="210.452"/>
  <path d="M 650.418 225.73 C 651.738 218.231 648.868 211.428 643.968 210.542 C 639.078 209.687 634.018 215.066 632.658 222.566 C 631.338 230.097 634.238 236.9 639.138 237.754 C 644.038 238.64 649.088 233.261 650.418 225.73 Z" fill="#FFC0AA" transform="matrix(-1, 0, 0, -1, 1283.078125, 448.302155)"/>
  <rect width="77.549" height="95.911" fill="black" fill-opacity="0" transform="matrix(-1, 0, 0, 1, 0, 0)" x="-758.83" y="825.899"/>
  <path d="M 749.694 890.385 C 763.504 865.555 761.424 837.955 745.054 828.845 C 728.724 819.735 704.204 832.485 690.424 857.325 C 676.624 882.195 678.674 909.755 695.044 918.865 C 711.404 927.985 735.894 915.225 749.694 890.385 Z" fill="#FFC0AA" transform="matrix(-1, 0, 0, -1, 1440.113892, 1747.713867)"/>
  <rect width="24.824" height="38.559" fill="black" fill-opacity="0" transform="matrix(-1, 0, 0, 1, 0, 0)" x="-627" y="284.63"/>
  <path d="M 626.91 302.984 C 626.09 292.344 619.93 284.124 613.11 284.654 C 606.31 285.164 601.45 294.214 602.27 304.844 C 603.09 315.479 609.28 323.706 616.07 323.168 C 622.87 322.662 627.73 313.612 626.91 302.984 Z" fill="#FFC0AA" transform="matrix(-1, 0, 0, -1, 1229.180054, 607.822693)"/>
  <rect width="25.668" height="38.55" fill="black" fill-opacity="0" transform="matrix(-1, 0, 0, 1, 0, 0)" x="-654.93" y="279.589"/>
  <path d="M 654.81 297.698 C 653.83 287.098 647.36 278.958 640.34 279.628 C 633.33 280.258 628.43 289.408 629.38 300.008 C 630.36 310.635 636.84 318.736 643.85 318.103 C 650.86 317.47 655.76 308.325 654.81 297.698 Z" fill="#FFC0AA" transform="matrix(-1, 0, 0, -1, 1284.189941, 597.727112)"/>
  <rect width="18.862" height="28.921" fill="black" fill-opacity="0" transform="matrix(-1, 0, 0, 1, 0, 0)" x="-646.41" y="241.431"/>
  <path d="M 646.41 255.891 C 646.41 247.917 642.17 241.431 636.96 241.431 C 631.78 241.431 627.54 247.917 627.54 255.891 C 627.54 263.897 631.78 270.352 636.99 270.352 C 642.2 270.352 646.41 263.865 646.41 255.891 Z" fill="#FFC0AA" transform="matrix(-1, 0, 0, -1, 1273.949951, 511.78299)"/>
  <rect width="18.877" height="28.926" fill="black" fill-opacity="0" transform="matrix(-1, 0, 0, 1, 0, 0)" x="-623.51" y="244.245"/>
  <path d="M 623.502 258.961 C 623.692 250.987 619.652 244.405 614.432 244.247 C 609.252 244.12 604.862 250.481 604.642 258.486 C 604.422 266.46 608.492 273.042 613.682 273.168 C 618.892 273.327 623.282 266.966 623.502 258.961 Z" fill="#FFC0AA" transform="matrix(-1, 0, 0, -1, 1228.141968, 517.416077)"/>
  <rect width="33.232" height="41.563" fill="black" fill-opacity="0" transform="matrix(-1, 0, 0, 1, 0, 0)" x="-658.21" y="971.559"/>
  <path d="M 654.479 999.272 C 660.259 988.452 659.219 976.592 652.109 972.762 C 645.029 968.932 634.539 974.592 628.729 985.422 C 622.909 996.212 623.989 1008.102 631.069 1011.932 C 638.169 1015.762 648.659 1010.072 654.479 999.272 Z" fill="#845F53" transform="matrix(-1, 0, 0, -1, 1283.188843, 1984.690918)"/>
  <rect width="33.236" height="41.551" fill="black" fill-opacity="0" transform="matrix(-1, 0, 0, 1, 0, 0)" x="-748.61" y="996.589"/>
  <path d="M 744.846 1024.293 C 750.666 1013.503 749.626 1001.603 742.516 997.773 C 735.406 993.973 724.916 999.643 719.136 1010.433 C 713.316 1021.253 714.366 1033.113 721.476 1036.943 C 728.576 1040.773 739.036 1035.113 744.846 1024.293 Z" fill="#845F53" transform="matrix(-1, 0, 0, -1, 1463.986084, 2034.732178)"/>
  <rect width="30.655" height="43.513" fill="black" fill-opacity="0" transform="matrix(-1, 0, 0, 1, 0, 0)" x="-822.33" y="863.299"/>
  <path d="M 821.03 889.121 C 824.44 877.311 820.9 865.921 813.13 863.681 C 805.39 861.461 796.35 869.211 792.97 881.021 C 789.56 892.821 793.1 904.211 800.87 906.421 C 808.61 908.671 817.65 900.891 821.03 889.121 Z" fill="#845F53" transform="matrix(-1, 0, 0, -1, 1614, 1770.110229)"/>
  <rect width="30.65" height="38.322" fill="black" fill-opacity="0" transform="matrix(-1, 0, 0, 1, 0, 0)" x="-734.75" y="853.399"/>
  <path d="M 731.285 878.969 C 736.655 868.999 735.675 858.019 729.135 854.509 C 722.595 850.959 712.925 856.219 707.555 866.179 C 702.215 876.149 703.165 887.099 709.735 890.609 C 716.275 894.149 725.945 888.929 731.285 878.969 Z" fill="#845F53" transform="matrix(-1, 0, 0, -1, 1438.85498, 1745.117554)"/>
  <rect width="26.919" height="40.946" fill="black" fill-opacity="0" transform="matrix(-1, 0, 0, 1, 0, 0)" x="-847.38" y="725.309"/>
  <path d="M 847.38 745.879 C 847.45 734.549 841.47 725.339 834.05 725.309 C 826.63 725.249 820.53 734.389 820.46 745.689 C 820.4 756.989 826.37 766.229 833.8 766.259 C 841.22 766.289 847.32 757.179 847.38 745.879 Z" fill="#845F53" transform="matrix(-1, 0, 0, -1, 1667.84021, 1491.567749)"/>
  <rect width="26.919" height="40.946" fill="black" fill-opacity="0" transform="matrix(-1, 0, 0, 1, 0, 0)" x="-774.2" y="733.289"/>
  <path d="M 774.2 753.859 C 774.27 742.559 768.3 733.319 760.87 733.289 C 753.45 733.259 747.35 742.369 747.29 753.699 C 747.22 764.989 753.19 774.199 760.62 774.229 C 768.04 774.299 774.11 765.149 774.2 753.859 Z" fill="#845F53" transform="matrix(-1, 0, 0, -1, 1521.48999, 1507.518433)"/>
  <rect width="23.909" height="30.342" fill="black" fill-opacity="0" transform="matrix(-1, 0, 0, 1, 0, 0)" x="-751.56" y="635.419"/>
  <path d="M 749.058 645.769 C 745.008 637.819 737.498 633.549 732.278 636.209 C 727.068 638.899 726.118 647.479 730.168 655.419 C 734.208 663.359 741.728 667.629 746.938 664.969 C 752.148 662.319 753.098 653.709 749.058 645.769 Z" fill="#845F53" transform="matrix(-1, 0, 0, -1, 1479.218018, 1301.178101)"/>
  <rect width="23.877" height="30.323" fill="black" fill-opacity="0" transform="matrix(-1, 0, 0, 1, 0, 0)" x="-810.11" y="601.719"/>
  <path d="M 807.592 612.05 C 803.552 604.14 796.062 599.83 790.852 602.52 C 785.642 605.18 784.692 613.79 788.732 621.7 C 792.782 629.64 800.262 633.91 805.482 631.25 C 810.692 628.6 811.642 619.99 807.592 612.05 Z" fill="#845F53" transform="matrix(-1, 0, 0, -1, 1596.332031, 1233.759277)"/>
  <rect width="22.018" height="26.686" fill="black" fill-opacity="0" transform="matrix(-1, 0, 0, 1, 0, 0)" x="-742.07" y="521.689"/>
  <path d="M 739.234 530.169 C 735.154 523.309 728.174 519.919 723.684 522.609 C 719.164 525.269 718.824 533.019 722.894 539.889 C 726.974 546.749 733.924 550.139 738.444 547.449 C 742.954 544.759 743.304 537.009 739.234 530.169 Z" fill="#845F53" transform="matrix(-1, 0, 0, -1, 1462.124512, 1070.057983)"/>
  <rect width="22.021" height="26.718" fill="black" fill-opacity="0" transform="matrix(-1, 0, 0, 1, 0, 0)" x="-695.63" y="552.509"/>
  <path d="M 692.783 560.989 C 688.703 554.129 681.753 550.739 677.233 553.429 C 672.723 556.119 672.373 563.869 676.443 570.739 C 680.523 577.599 687.503 580.989 692.023 578.299 C 696.513 575.609 696.853 567.859 692.783 560.989 Z" fill="#845F53" transform="matrix(-1, 0, 0, -1, 1369.232666, 1131.728027)"/>
  <rect width="19.018" height="26.741" fill="black" fill-opacity="0" transform="matrix(-1, 0, 0, 1, 0, 0)" x="-651.78" y="475.419"/>
  <path d="M 650.872 486.132 C 648.662 478.882 642.972 474.202 638.232 475.692 C 633.492 477.142 631.442 484.202 633.652 491.442 C 635.892 498.662 641.552 503.342 646.322 501.892 C 651.062 500.432 653.112 493.342 650.872 486.132 Z" fill="#845F53" transform="matrix(-1, 0, 0, -1, 1284.542603, 977.570923)"/>
  <rect width="19.018" height="26.762" fill="black" fill-opacity="0" transform="matrix(-1, 0, 0, 1, 0, 0)" x="-694.12" y="458.999"/>
  <path d="M 693.211 469.699 C 691.001 462.489 685.341 457.799 680.571 459.259 C 675.831 460.749 673.781 467.799 675.991 475.019 C 678.241 482.259 683.891 486.949 688.661 485.489 C 693.401 483.999 695.451 476.949 693.211 469.699 Z" fill="#845F53" transform="matrix(-1, 0, 0, -1, 1369.220459, 944.747925)"/>
  <rect width="15.385" height="23.261" fill="black" fill-opacity="0" transform="matrix(-1, 0, 0, 1, 0, 0)" x="-630.29" y="409.249"/>
  <path d="M 630.23 420.21 C 629.69 413.82 625.81 408.91 621.61 409.26 C 617.4 409.61 614.43 415.11 614.97 421.54 C 615.51 427.93 619.39 432.83 623.6 432.49 C 627.8 432.14 630.77 426.63 630.23 420.21 Z" fill="#845F53" transform="matrix(-1, 0, 0, -1, 1245.199951, 841.749084)"/>
  <rect width="15.385" height="23.261" fill="black" fill-opacity="0" transform="matrix(-1, 0, 0, 1, 0, 0)" x="-672.56" y="400.889"/>
  <path d="M 672.5 411.859 C 671.96 405.469 668.07 400.559 663.87 400.909 C 659.67 401.259 656.7 406.769 657.24 413.189 C 657.78 419.579 661.66 424.489 665.86 424.139 C 670.07 423.759 673.04 418.279 672.5 411.859 Z" fill="#845F53" transform="matrix(-1, 0, 0, -1, 1329.73999, 825.047974)"/>
  <rect width="12.709" height="19.204" fill="black" fill-opacity="0" transform="matrix(-1, 0, 0, 1, 0, 0)" x="-660.77" y="343.279"/>
  <path d="M 660.719 352.339 C 660.279 347.059 657.089 343.009 653.609 343.289 C 650.129 343.579 647.669 348.139 648.109 353.419 C 648.589 358.699 651.779 362.749 655.249 362.469 C 658.729 362.189 661.159 357.629 660.719 352.339 Z" fill="#845F53" transform="matrix(-1, 0, 0, -1, 1308.828491, 705.757996)"/>
  <rect width="12.66" height="19.244" fill="black" fill-opacity="0" transform="matrix(-1, 0, 0, 1, 0, 0)" x="-621.77" y="350.119"/>
  <path d="M 621.757 359.479 C 621.527 354.169 618.557 349.989 615.057 350.119 C 611.577 350.269 608.927 354.669 609.117 359.989 C 609.337 365.299 612.337 369.479 615.817 369.359 C 619.317 369.229 621.977 364.799 621.757 359.479 Z" fill="#845F53" transform="matrix(-1, 0, 0, -1, 1230.877075, 719.4776)"/>
  <rect width="9.667" height="14.667" fill="black" fill-opacity="0" transform="matrix(-1, 0, 0, 1, 0, 0)" x="-618.69" y="296.359"/>
  <path d="M 618.665 303.319 C 618.375 299.299 615.975 296.169 613.325 296.359 C 610.675 296.549 608.775 299.989 609.055 304.039 C 609.345 308.059 611.745 311.199 614.395 311.009 C 617.055 310.819 618.975 307.369 618.665 303.319 Z" fill="#845F53" transform="matrix(-1, 0, 0, -1, 1227.725464, 607.367981)"/>
  <rect width="9.667" height="14.667" fill="black" fill-opacity="0" transform="matrix(-1, 0, 0, 1, 0, 0)" x="-646.44" y="291.893"/>
  <path d="M 646.415 298.891 C 646.125 294.841 643.725 291.711 641.075 291.901 C 638.425 292.091 636.495 295.541 636.805 299.591 C 637.095 303.606 639.495 306.739 642.145 306.549 C 644.805 306.359 646.695 302.911 646.415 298.891 Z" fill="#845F53" transform="matrix(-1, 0, 0, -1, 1283.214722, 598.450012)"/>
  <rect width="7.807" height="11.898" fill="black" fill-opacity="0" transform="matrix(-1, 0, 0, 1, 0, 0)" x="-617.72" y="252.696"/>
  <path d="M 617.72 258.708 C 617.78 255.449 616.1 252.728 613.92 252.696 C 611.78 252.664 609.98 255.291 609.91 258.582 C 609.85 261.841 611.55 264.562 613.7 264.594 C 615.85 264.625 617.65 261.999 617.72 258.708 Z" fill="#845F53" transform="matrix(-1, 0, 0, -1, 1227.630005, 517.289978)"/>
  <rect width="7.807" height="11.898" fill="black" fill-opacity="0" transform="matrix(-1, 0, 0, 1, 0, 0)" x="-640.47" y="250.038"/>
  <path d="M 640.47 255.924 C 640.4 252.633 638.6 250.007 636.46 250.038 C 634.31 250.102 632.6 252.791 632.66 256.082 C 632.73 259.341 634.53 261.968 636.68 261.936 C 638.83 261.904 640.53 259.215 640.47 255.924 Z" fill="#845F53" transform="matrix(-1, 0, 0, -1, 1273.130005, 511.973999)"/>
  <rect width="6.702" height="10.168" fill="black" fill-opacity="0" transform="matrix(-1, 0, 0, 1, 0, 0)" x="-644.59" y="219.371"/>
  <path d="M 644.57 224.692 C 644.76 221.876 643.44 219.503 641.57 219.376 C 639.74 219.25 638.1 221.402 637.91 224.218 C 637.72 227.034 639.04 229.407 640.88 229.534 C 642.74 229.66 644.38 227.477 644.57 224.692 Z" fill="#845F53" transform="matrix(-1, 0, 0, -1, 1282.47998, 448.909912)"/>
  <rect width="6.854" height="10.086" fill="black" fill-opacity="0" transform="matrix(-1, 0, 0, 1, 0, 0)" x="-622.76" y="218.735"/>
  <path d="M 622.62 224.415 C 623.15 221.662 622.11 219.13 620.31 218.782 C 618.48 218.402 616.58 220.364 616.04 223.117 C 615.51 225.902 616.55 228.433 618.35 228.781 C 620.18 229.129 622.08 227.167 622.62 224.415 Z" fill="#845F53" transform="matrix(-1, 0, 0, -1, 1238.659912, 447.555908)"/>
  <rect width="7.096" height="9.902" fill="black" fill-opacity="0" transform="matrix(-1, 0, 0, 1, 0, 0)" x="-638.33" y="186.074"/>
  <path d="M 637.965 192.068 C 638.825 189.379 638.095 186.752 636.355 186.183 C 634.585 185.613 632.475 187.322 631.585 189.98 C 630.735 192.67 631.455 195.296 633.225 195.866 C 634.965 196.435 637.115 194.726 637.965 192.068 Z" fill="#845F53" transform="matrix(-1, 0, 0, -1, 1269.555054, 382.048645)"/>
  <rect width="16.894" height="22.381" fill="black" fill-opacity="0" transform="matrix(-1, 0, 0, 1, 0, 0)" x="-654.11" y="151.698"/>
  <path d="M 652.656 165.984 C 655.286 160.035 654.236 153.833 650.386 152.124 C 646.496 150.447 641.256 153.865 638.666 159.814 C 636.046 165.731 637.086 171.933 640.936 173.641 C 644.826 175.35 650.066 171.901 652.656 165.984 Z" fill="#FFC0AA" transform="matrix(-1, 0, 0, -1, 1291.326416, 325.776581)"/>
  <rect width="18.343" height="27.435" fill="black" fill-opacity="0" transform="matrix(-1, 0, 0, 1, 0, 0)" x="-630.35" y="210.029"/>
  <path d="M 630.068 225.204 C 631.298 217.673 628.328 210.902 623.428 210.111 C 618.528 209.288 613.538 214.731 612.278 222.261 C 611.048 229.792 614.048 236.564 618.948 237.387 C 623.838 238.178 628.828 232.735 630.068 225.204 Z" fill="#FFC0AA" transform="matrix(-1, 0, 0, -1, 1242.3479, 447.492065)"/>
  <rect width="16.024" height="22.736" fill="black" fill-opacity="0" transform="matrix(-1, 0, 0, 1, 0, 0)" x="-640.99" y="179.356"/>
  <path d="M 640.239 192.923 C 642.099 186.784 640.369 180.772 636.349 179.569 C 632.339 178.367 627.569 182.354 625.709 188.524 C 623.839 194.695 625.609 200.675 629.619 201.878 C 633.639 203.08 638.409 199.093 640.239 192.923 Z" fill="#FFC0AA" transform="matrix(-1, 0, 0, -1, 1265.948975, 381.446991)"/>
  <rect width="13.208" height="18.791" fill="black" fill-opacity="0" transform="matrix(-1, 0, 0, 1, 0, 0)" x="-656.35" y="186.233"/>
  <path d="M 655.778 197.415 C 657.258 192.321 655.778 187.385 652.458 186.404 C 649.148 185.423 645.228 188.745 643.738 193.84 C 642.228 198.934 643.708 203.871 647.028 204.852 C 650.348 205.832 654.258 202.51 655.778 197.415 Z" fill="#FFC0AA" transform="matrix(-1, 0, 0, -1, 1299.497925, 391.255707)"/>
  <rect width="13.594" height="18.527" fill="black" fill-opacity="0" transform="matrix(-1, 0, 0, 1, 0, 0)" x="-666.42" y="161.731"/>
  <path d="M 665.485 173.241 C 667.385 168.305 666.305 163.273 663.085 162.008 C 659.865 160.774 655.695 163.78 653.765 168.748 C 651.875 173.684 652.945 178.715 656.165 179.981 C 659.425 181.215 663.595 178.209 665.485 173.241 Z" fill="#FFC0AA" transform="matrix(-1, 0, 0, -1, 1319.254517, 341.988983)"/>
  <rect width="16.895" height="22.363" fill="black" fill-opacity="0" transform="matrix(-1, 0, 0, 1, 0, 0)" x="-671.41" y="127.998"/>
  <path d="M 669.974 142.265 C 672.564 136.316 671.554 130.114 667.674 128.437 C 663.814 126.729 658.574 130.146 655.954 136.095 C 653.354 142.044 654.374 148.214 658.254 149.923 C 662.114 151.631 667.384 148.182 669.974 142.265 Z" fill="#FFC0AA" transform="matrix(-1, 0, 0, -1, 1325.923584, 278.357605)"/>
  <rect width="6.734" height="10.168" fill="black" fill-opacity="0" transform="matrix(-1, 0, 0, 1, 0, 0)" x="-624.5" y="218.801"/>
  <path d="M 624.48 224.123 C 624.67 221.307 623.31 218.934 621.48 218.807 C 619.64 218.68 617.97 220.864 617.78 223.648 C 617.59 226.465 618.92 228.838 620.78 228.964 C 622.61 229.091 624.26 226.939 624.48 224.123 Z" fill="#845F53" transform="matrix(-1, 0, 0, -1, 1242.259644, 447.771088)"/>
  <rect width="7.026" height="9.96" fill="black" fill-opacity="0" transform="matrix(-1, 0, 0, 1, 0, 0)" x="-636.54" y="185.138"/>
  <path d="M 636.23 191.078 C 637.02 188.357 636.23 185.762 634.46 185.224 C 632.66 184.718 630.61 186.49 629.82 189.18 C 629.03 191.869 629.82 194.496 631.59 195.002 C 633.36 195.54 635.44 193.768 636.23 191.078 Z" fill="#845F53" transform="matrix(-1, 0, 0, -1, 1266.050049, 380.236023)"/>
  <rect width="7.321" height="9.731" fill="black" fill-opacity="0" transform="matrix(-1, 0, 0, 1, 0, 0)" x="-649.44" y="157.808"/>
  <path d="M 648.852 163.971 C 649.962 161.376 649.452 158.686 647.752 157.99 C 646.042 157.262 643.802 158.781 642.692 161.376 C 641.622 163.971 642.092 166.629 643.802 167.356 C 645.502 168.084 647.782 166.565 648.852 163.971 Z" fill="#845F53" transform="matrix(-1, 0, 0, -1, 1291.562134, 325.346008)"/>
  <rect width="7.295" height="9.765" fill="black" fill-opacity="0" transform="matrix(-1, 0, 0, 1, 0, 0)" x="-666.37" y="134.059"/>
  <path d="M 665.825 140.209 C 666.865 137.614 666.365 134.925 664.655 134.228 C 662.945 133.532 660.675 135.051 659.635 137.678 C 658.555 140.272 659.065 142.93 660.795 143.658 C 662.505 144.354 664.745 142.804 665.825 140.209 Z" fill="#845F53" transform="matrix(-1, 0, 0, -1, 1325.43457, 277.883942)"/>
  <rect width="5.514" height="7.833" fill="black" fill-opacity="0" transform="matrix(-1, 0, 0, 1, 0, 0)" x="-652.81" y="191.269"/>
  <path d="M 652.57 195.929 C 653.2 193.809 652.57 191.752 651.18 191.341 C 649.79 190.929 648.14 192.322 647.54 194.442 C 646.91 196.562 647.54 198.619 648.93 199.03 C 650.32 199.441 651.97 198.049 652.57 195.929 Z" fill="#845F53" transform="matrix(-1, 0, 0, -1, 1300.109985, 390.370728)"/>
  <rect width="5.527" height="7.802" fill="black" fill-opacity="0" transform="matrix(-1, 0, 0, 1, 0, 0)" x="-662.54" y="166.904"/>
  <path d="M 662.318 171.533 C 662.918 169.445 662.288 167.388 660.898 166.976 C 659.508 166.565 657.888 167.957 657.258 170.077 C 656.628 172.198 657.258 174.223 658.648 174.634 C 660.038 175.045 661.688 173.653 662.318 171.533 Z" fill="#845F53" transform="matrix(-1, 0, 0, -1, 1319.558228, 341.610016)"/>
  <path d="M 391.5 1045.877 C 186.318 1094.007 59.454 1010.667 0 960.377 L 0 686.877 L 1920 686.877 L 1920 876.377 C 1908.34 864.407 1852.03 817.367 1785 814.877 C 1572.92 806.987 1441.11 1021.807 1120 865.377 C 753 686.597 635.5 988.647 391.5 1045.877 Z" transform="matrix(-1, 0, 0, -1, 1920, 1747.206299)"/>
  <rect width="571" height="1804" fill="black" fill-opacity="0" y="-704.671"/>
  <rect width="571" height="1753.004" fill="black" fill-opacity="0" style="" y="-704.671"/>
  <rect width="571" height="1757.348" fill="black" fill-opacity="0" style="" y="-704.671"/>
  <path d="M 1.223 -655.052 C 242.493 -382.102 289.712 -205.242 182.692 -85.372 C 22.232 94.418 41.112 217.458 37.952 343.624 C 34.832 469.791 88.322 592.83 198.462 668.505 C 308.592 744.222 352.602 819.854 255.022 964.95 C 195.042 1054.188 183.702 1108.905 196.482 1114.271 C 203.562 1117.271 210.012 1094.623 229.062 1064.793 C 244.362 1040.878 270.662 1011.386 289.712 994.147 C 356.222 933.937 382.652 872.248 388.512 798.643 C 401.112 640.914 234.922 559.662 225.222 461.805 C 215.532 363.948 263.492 225.528 318.672 161.008 C 373.802 96.488 503.672 50.268 544.592 -183.182 C 571.862 -338.802 511.544 -499.097 394.074 -671.107 C 368.605 -702.935 140.226 -733.657 1.223 -655.052 Z" fill="#FF623B" transform="matrix(-1, 0, 0, -1, 552.30249, 409.86731)"/>
  <rect width="425.162" height="1326.75" fill="black" fill-opacity="0" x="145.35" y="-239.768"/>
  <path d="M 234.872 1014.253 C 235.372 1020.253 253.721 1046.612 266.371 1062.753 C 275.491 1074.373 288.371 1089.753 300.871 1102.253 C 314.371 1115.253 332.941 1130.026 315.371 1112.253 C 290.261 1086.589 277.461 1045.686 273.081 1026.588 C 268.691 1007.49 263.761 987.039 256.931 947.83 C 250.061 908.408 254.451 845.494 258.621 818.156 C 265.111 775.735 294.111 689.032 309.581 651.85 C 325.051 614.71 361.591 550.144 435.821 488.454 C 511.481 425.584 537.441 342.855 550.761 258.684 C 571.501 127.704 560.189 -46.533 408.673 -232.099 C 396.005 -247.614 225.892 -240.78 146.566 -186.558 C 121.023 -169.098 249.202 -64.57 293.371 14.754 C 312.957 49.929 335.081 82.914 349.331 114.014 C 359.871 141.754 361.231 145.214 365.871 159.754 C 378.851 228.664 383.551 272.635 377.691 292.495 C 368.931 322.275 318.871 399.154 304.141 416.884 C 291.371 432.254 224.232 529.104 223.552 552.814 C 223.132 567.894 210.952 584.204 204.842 603.554 C 198.732 622.864 198.562 624.132 198.562 633.047 C 198.562 657.469 182.332 706.102 191.812 736.609 C 201.252 767.115 186.172 736.271 187.302 797.495 C 188.402 858.719 186.382 860.24 189.072 872.409 C 190.892 880.563 192.872 903.754 198.562 919.182 L 204.372 943.254 L 211.162 965.828 C 212.592 971.321 220.162 986.915 234.872 1014.253 Z" fill="#FF8B64" transform="matrix(-0.999999, 0.001675, -0.001675, -0.999999, 702.638733, 880.507629)"/>
  <rect width="127.033" height="148.171" fill="black" fill-opacity="0" x="409.25" y="916.219"/>
  <path d="M 428.2 1020.202 C 403.2 982.812 402.91 939.042 427.52 922.522 C 452.14 906.042 492.39 922.982 517.34 960.372 C 542.34 997.772 542.63 1041.542 518.02 1058.062 C 493.4 1074.582 453.15 1057.602 428.2 1020.202 Z" fill="#FFC0AA" transform="matrix(-1, 0, 0, -1, 945.540039, 1980.60083)"/>
  <rect width="79.501" height="120.772" fill="black" fill-opacity="0" x="275.42" y="608.209"/>
  <path d="M 275.441 669.529 C 274.681 636.189 291.841 608.729 313.801 608.219 C 335.721 607.719 354.141 634.379 354.901 667.709 C 355.651 701.009 338.461 728.469 316.541 728.979 C 294.621 729.489 276.201 702.829 275.441 669.529 Z" fill="#FFC0AA" transform="matrix(-1, 0, 0, -1, 630.34137, 1337.198242)"/>
  <rect width="82.102" height="106.494" fill="black" fill-opacity="0" x="300.51" y="479.569"/>
  <path d="M 308.11 517.075 C 321.22 489.025 346.89 473.265 365.35 481.965 C 383.81 490.625 388.15 520.455 375 548.555 C 361.89 576.615 336.22 592.375 317.76 583.665 C 299.3 575.005 294.96 545.175 308.11 517.075 Z" fill="#FFC0AA" transform="matrix(-1, 0, 0, -1, 683.109985, 1065.634644)"/>
  <rect width="74.145" height="88.565" fill="black" fill-opacity="0" x="377.68" y="373.419"/>
  <path d="M 387.825 400.845 C 401.855 378.235 425.335 367.465 440.215 376.755 C 455.095 386.055 455.765 411.955 441.685 434.565 C 427.655 457.165 404.135 467.945 389.255 458.645 C 374.415 449.355 373.745 423.445 387.825 400.845 Z" fill="#FFC0AA" transform="matrix(-1, 0, 0, -1, 829.505554, 835.404297)"/>
  <rect width="59.907" height="83.679" fill="black" fill-opacity="0" x="442.22" y="275.019"/>
  <path d="M 445.251 308.209 C 452.461 285.609 470.411 271.159 485.291 275.929 C 500.131 280.709 506.321 302.929 499.121 325.539 C 491.871 348.099 473.951 362.592 459.071 357.775 C 444.191 353 438.001 330.779 445.251 308.209 Z" fill="#FFC0AA" transform="matrix(-1, 0, 0, -1, 944.341309, 633.718079)"/>
  <rect width="49.768" height="74.882" fill="black" fill-opacity="0" x="473.58" y="186.656"/>
  <path d="M 473.89 221.516 C 476.04 200.896 488.81 185.347 502.38 186.742 C 515.95 188.178 525.18 206.094 523.03 226.671 C 520.88 247.29 508.11 262.881 494.54 261.445 C 480.97 260.008 471.74 242.135 473.89 221.516 Z" fill="#FFC0AA" transform="matrix(-1, 0, 0, -1, 996.920044, 448.191742)"/>
  <rect width="42.654" height="64.825" fill="black" fill-opacity="0" x="486.64" y="110.054"/>
  <path d="M 486.66 143.059 C 486.15 125.186 495.3 110.397 507.06 110.059 C 518.82 109.764 528.77 124.003 529.27 141.876 C 529.78 159.749 520.63 174.537 508.87 174.875 C 497.11 175.171 487.16 160.932 486.66 143.059 Z" fill="#FFC0AA" transform="matrix(-1, 0, 0, -1, 1015.929993, 284.934021)"/>
  <rect width="42.689" height="64.794" fill="black" fill-opacity="0" x="435.19" y="102.907"/>
  <path d="M 435.226 134.479 C 435.946 116.606 446.016 102.494 457.776 102.916 C 469.536 103.381 478.556 118.254 477.846 136.127 C 477.166 154 467.046 168.155 455.286 167.69 C 443.536 167.267 434.556 152.352 435.226 134.479 Z" fill="#FFC0AA" transform="matrix(-1, 0, 0, -1, 913.07605, 270.60791)"/>
  <rect width="46.648" height="69.327" fill="black" fill-opacity="0" x="418.89" y="178.285"/>
  <path d="M 419.51 209.403 C 422.46 190.347 435.06 176.488 447.58 178.474 C 460.1 180.418 467.86 197.488 464.91 216.502 C 461.91 235.515 449.35 249.374 436.84 247.431 C 424.32 245.487 416.56 228.417 419.51 209.403 Z" fill="#FFC0AA" transform="matrix(-1, 0, 0, -1, 884.419983, 425.897339)"/>
  <rect width="55.837" height="78.012" fill="black" fill-opacity="0" x="386.09" y="255.197"/>
  <path d="M 388.914 286.137 C 395.654 265.057 412.384 251.577 426.214 256.057 C 440.084 260.487 445.854 281.197 439.114 302.28 C 432.364 323.322 415.674 336.8 401.814 332.364 C 387.944 327.885 382.164 307.181 388.914 286.137 Z" fill="#FFC0AA" transform="matrix(-1, 0, 0, -1, 828.023621, 588.40625)"/>
  <rect width="74.15" height="88.594" fill="black" fill-opacity="0" x="315.19" y="333.749"/>
  <path d="M 325.301 361.205 C 339.381 338.605 362.861 327.785 377.741 337.085 C 392.621 346.375 393.251 372.275 379.211 394.885 C 365.131 417.485 341.661 428.305 326.781 419.015 C 311.901 409.675 311.271 383.815 325.301 361.205 Z" fill="#FFC0AA" transform="matrix(-1, 0, 0, -1, 704.520569, 756.09436)"/>
  <rect width="83.849" height="105.107" fill="black" fill-opacity="0" x="221.3" y="435.289"/>
  <path d="M 230.6 470.433 C 245.14 443.053 271.57 428.643 289.56 438.283 C 307.56 447.873 310.39 477.913 295.84 505.253 C 281.3 532.633 254.87 547.033 236.88 537.403 C 218.88 527.813 216.05 497.773 230.6 470.433 Z" fill="#FFC0AA" transform="matrix(-1, 0, 0, -1, 526.440002, 975.682068)"/>
  <rect width="84.755" height="128.591" fill="black" fill-opacity="0" x="175.19" y="593.659"/>
  <path d="M 175.299 659.849 C 173.699 624.359 191.359 594.699 214.709 593.679 C 238.059 592.629 258.289 620.599 259.849 656.049 C 261.459 691.539 243.799 721.199 220.439 722.219 C 197.089 723.269 176.859 695.299 175.299 659.849 Z" fill="#FFC0AA" transform="matrix(-1, 0, 0, -1, 435.149231, 1315.897949)"/>
  <rect width="101.556" height="139.852" fill="black" fill-opacity="0" x="202.79" y="776.089"/>
  <path d="M 208.767 861.775 C 195.567 824.175 204.967 786.615 229.707 777.905 C 254.457 769.205 285.227 792.655 298.377 830.255 C 311.567 867.815 302.167 905.425 277.427 914.125 C 252.687 922.835 221.917 899.385 208.767 861.775 Z" fill="#FFC0AA" transform="matrix(-1, 0, 0, -1, 507.137329, 1692.033569)"/>
  <rect width="127.001" height="148.171" fill="black" fill-opacity="0" x="287.98" y="951.159"/>
  <path d="M 306.89 1055.151 C 281.94 1017.761 281.64 973.981 306.26 957.461 C 330.88 940.981 371.13 957.931 396.08 995.321 C 421.03 1032.721 421.33 1076.491 396.71 1093.011 C 372.14 1109.531 331.89 1092.551 306.89 1055.151 Z" fill="#FFC0AA" transform="matrix(-1, 0, 0, -1, 702.969971, 2050.490479)"/>
  <rect width="103.46" height="128.071" fill="black" fill-opacity="0" x="317.74" y="764.929"/>
  <path d="M 329.923 851.043 C 311.503 817.873 314.283 781.033 336.123 768.863 C 357.913 756.693 390.623 773.723 409.003 806.883 C 427.423 840.093 424.683 876.903 402.843 889.073 C 381.013 901.233 348.343 884.213 329.923 851.043 Z" fill="#FFC0AA" transform="matrix(-1, 0, 0, -1, 738.942688, 1657.931885)"/>
  <rect width="33.118" height="51.488" fill="black" fill-opacity="0" x="493.62" y="42.168"/>
  <path d="M 493.738 66.665 C 494.838 52.468 503.058 41.483 512.158 42.201 C 521.228 42.877 527.718 54.961 526.618 69.158 C 525.528 83.355 517.258 94.341 508.198 93.623 C 499.138 92.947 492.648 80.862 493.738 66.665 Z" fill="#FFC0AA" transform="matrix(-1, 0, 0, -1, 1020.358032, 135.824005)"/>
  <rect width="34.244" height="51.476" fill="black" fill-opacity="0" x="456.36" y="35.437"/>
  <path d="M 456.522 59.614 C 457.832 45.459 466.472 34.6 475.822 35.488 C 485.182 36.333 491.712 48.544 490.452 62.698 C 489.142 76.895 480.502 87.712 471.142 86.867 C 461.792 86.022 455.252 73.811 456.522 59.614 Z" fill="#FFC0AA" transform="matrix(-1, 0, 0, -1, 946.971863, 122.350502)"/>
  <rect width="25.164" height="38.619" fill="black" fill-opacity="0" x="467.73" y="-15.516"/>
  <path d="M 467.73 3.794 C 467.73 -6.854 473.38 -15.516 480.34 -15.516 C 487.25 -15.516 492.9 -6.854 492.9 3.794 C 492.9 14.484 487.25 23.103 480.29 23.103 C 473.34 23.103 467.73 14.441 467.73 3.794 Z" fill="#FFC0AA" transform="matrix(-1, 0, 0, -1, 960.630005, 7.587)"/>
  <rect width="25.184" height="38.625" fill="black" fill-opacity="0" x="498.28" y="-11.759"/>
  <path d="M 498.288 7.892 C 498.028 -2.756 503.428 -11.544 510.378 -11.756 C 517.288 -11.925 523.148 -3.432 523.448 7.258 C 523.738 17.906 518.308 26.694 511.388 26.863 C 504.438 27.075 498.578 18.582 498.288 7.892 Z" fill="#FFC0AA" transform="matrix(-1, 0, 0, -1, 1021.738098, 15.108406)"/>
  <rect width="44.335" height="55.5" fill="black" fill-opacity="0" x="451.98" y="959.439"/>
  <path d="M 456.96 996.443 C 449.25 981.993 450.64 966.143 460.12 961.033 C 469.57 955.923 483.56 963.483 491.32 977.933 C 499.07 992.343 497.64 1008.233 488.2 1013.343 C 478.71 1018.453 464.72 1010.853 456.96 996.443 Z" fill="#845F53" transform="matrix(-1, 0, 0, -1, 948.299927, 1974.371704)"/>
  <rect width="44.341" height="55.483" fill="black" fill-opacity="0" x="331.38" y="992.849"/>
  <path d="M 336.397 1029.839 C 328.637 1015.429 330.027 999.539 339.517 994.429 C 348.997 989.359 362.987 996.919 370.707 1011.329 C 378.457 1025.779 377.067 1041.629 367.587 1046.739 C 358.097 1051.849 344.147 1044.289 336.397 1029.839 Z" fill="#845F53" transform="matrix(-1, 0, 0, -1, 707.096619, 2041.187988)"/>
  <rect width="40.897" height="58.104" fill="black" fill-opacity="0" x="233.04" y="814.869"/>
  <path d="M 234.77 849.338 C 230.22 833.578 234.94 818.368 245.31 815.368 C 255.64 812.408 267.69 822.768 272.2 838.528 C 276.75 854.288 272.03 869.498 261.66 872.458 C 251.34 875.458 239.28 865.058 234.77 849.338 Z" fill="#845F53" transform="matrix(-1, 0, 0, -1, 506.970001, 1687.836914)"/>
  <rect width="40.89" height="51.171" fill="black" fill-opacity="0" x="349.87" y="801.649"/>
  <path d="M 354.499 835.784 C 347.329 822.474 348.639 807.814 357.369 803.124 C 366.089 798.394 378.989 805.404 386.149 818.714 C 393.279 832.024 392.009 846.644 383.249 851.334 C 374.519 856.064 361.619 849.094 354.499 835.784 Z" fill="#845F53" transform="matrix(-1, 0, 0, -1, 740.628845, 1654.462524)"/>
  <rect width="35.913" height="54.675" fill="black" fill-opacity="0" x="199.62" y="630.609"/>
  <path d="M 199.62 658.079 C 199.54 642.949 207.5 630.649 217.41 630.609 C 227.31 630.529 235.45 642.739 235.53 657.819 C 235.62 672.909 227.65 685.239 217.75 685.289 C 207.84 685.329 199.71 673.159 199.62 658.079 Z" fill="#845F53" transform="matrix(-1, 0, 0, -1, 435.150146, 1315.897705)"/>
  <rect width="35.913" height="54.675" fill="black" fill-opacity="0" x="297.23" y="641.259"/>
  <path d="M 297.24 668.729 C 297.16 653.639 305.12 641.309 315.03 641.259 C 324.94 641.219 333.07 653.389 333.15 668.519 C 333.24 683.599 325.27 695.899 315.37 695.939 C 305.46 696.019 297.37 683.809 297.24 668.729 Z" fill="#845F53" transform="matrix(-1, 0, 0, -1, 630.390137, 1337.198242)"/>
  <rect width="31.897" height="40.516" fill="black" fill-opacity="0" x="327.44" y="510.579"/>
  <path d="M 330.79 524.388 C 336.18 513.788 346.21 508.078 353.17 511.628 C 360.12 515.218 361.39 526.668 355.99 537.278 C 350.6 547.888 340.57 553.588 333.61 550.038 C 326.66 546.488 325.39 534.998 330.79 524.388 Z" fill="#845F53" transform="matrix(-1, 0, 0, -1, 686.780029, 1061.666992)"/>
  <rect width="31.855" height="40.49" fill="black" fill-opacity="0" x="249.34" y="465.579"/>
  <path d="M 252.68 479.365 C 258.08 468.805 268.07 463.055 275.02 466.645 C 281.98 470.195 283.24 481.695 277.85 492.255 C 272.45 502.855 262.46 508.565 255.51 505.015 C 248.55 501.465 247.29 489.975 252.68 479.365 Z" fill="#845F53" transform="matrix(-1, 0, 0, -1, 530.529968, 971.644287)"/>
  <rect width="29.374" height="35.634" fill="black" fill-opacity="0" x="340.1" y="358.709"/>
  <path d="M 343.892 370.039 C 349.332 360.869 358.652 356.349 364.632 359.939 C 370.662 363.489 371.122 373.839 365.682 383.009 C 360.252 392.179 350.972 396.699 344.952 393.109 C 338.922 389.519 338.462 379.159 343.892 370.039 Z" fill="#845F53" transform="matrix(-1, 0, 0, -1, 709.582458, 753.047974)"/>
  <rect width="29.378" height="35.677" fill="black" fill-opacity="0" x="402.06" y="399.859"/>
  <path d="M 405.861 411.195 C 411.301 402.025 420.571 397.505 426.601 401.095 C 432.631 404.685 433.091 415.045 427.651 424.215 C 422.221 433.375 412.901 437.905 406.871 434.305 C 400.891 430.715 400.421 420.365 405.861 411.195 Z" fill="#845F53" transform="matrix(-1, 0, 0, -1, 833.511414, 835.404236)"/>
  <rect width="25.372" height="35.707" fill="black" fill-opacity="0" x="460.56" y="296.929"/>
  <path d="M 461.775 311.242 C 464.725 301.562 472.315 295.312 478.635 297.292 C 484.955 299.242 487.695 308.662 484.745 318.332 C 481.755 327.972 474.215 334.222 467.845 332.282 C 461.525 330.332 458.785 320.872 461.775 311.242 Z" fill="#845F53" transform="matrix(-1, 0, 0, -1, 946.4953, 629.560974)"/>
  <rect width="25.372" height="35.736" fill="black" fill-opacity="0" x="404.08" y="274.997"/>
  <path d="M 405.295 289.291 C 408.245 279.661 415.795 273.411 422.155 275.351 C 428.475 277.341 431.215 286.761 428.265 296.393 C 425.275 306.069 417.735 312.322 411.365 310.378 C 405.045 308.393 402.305 298.97 405.295 289.291 Z" fill="#845F53" transform="matrix(-1, 0, 0, -1, 833.535339, 585.730103)"/>
  <rect width="20.526" height="31.06" fill="black" fill-opacity="0" x="489.23" y="208.569"/>
  <path d="M 489.312 223.211 C 490.022 214.676 495.212 208.127 500.822 208.592 C 506.422 209.056 510.382 216.408 509.672 224.985 C 508.952 233.52 503.772 240.07 498.162 239.605 C 492.552 239.14 488.592 231.788 489.312 223.211 Z" fill="#845F53" transform="matrix(-1, 0, 0, -1, 998.981812, 448.196991)"/>
  <rect width="20.526" height="31.06" fill="black" fill-opacity="0" x="432.83" y="197.414"/>
  <path d="M 432.918 212.056 C 433.638 203.521 438.828 196.972 444.428 197.437 C 450.038 197.902 453.998 205.254 453.278 213.831 C 452.568 222.366 447.378 228.915 441.778 228.451 C 436.168 227.943 432.208 220.634 432.918 212.056 Z" fill="#845F53" transform="matrix(-1, 0, 0, -1, 886.198181, 425.887909)"/>
  <rect width="16.956" height="25.643" fill="black" fill-opacity="0" x="448.57" y="120.477"/>
  <path d="M 448.641 132.581 C 449.231 125.524 453.491 120.116 458.131 120.496 C 462.761 120.876 466.051 126.961 465.461 134.017 C 464.831 141.073 460.571 146.482 455.941 146.101 C 451.301 145.721 448.051 139.637 448.641 132.581 Z" fill="#845F53" transform="matrix(-1, 0, 0, -1, 914.101318, 266.597107)"/>
  <rect width="16.89" height="25.697" fill="black" fill-opacity="0" x="500.6" y="129.618"/>
  <path d="M 500.614 142.129 C 500.914 135.031 504.874 129.453 509.554 129.622 C 514.184 129.834 517.724 135.707 517.474 142.805 C 517.184 149.904 513.174 155.481 508.534 155.312 C 503.864 155.143 500.324 149.227 500.614 142.129 Z" fill="#845F53" transform="matrix(-1, 0, 0, -1, 1018.083862, 284.93399)"/>
  <rect width="12.897" height="19.585" fill="black" fill-opacity="0" x="504.7" y="57.824"/>
  <path d="M 504.749 67.131 C 505.129 61.765 508.329 57.582 511.869 57.835 C 515.409 58.089 517.939 62.694 517.559 68.103 C 517.179 73.469 513.979 77.652 510.439 77.398 C 506.899 77.145 504.319 72.539 504.749 67.131 Z" fill="#845F53" transform="matrix(-1, 0, 0, -1, 1022.29895, 135.233078)"/>
  <rect width="12.897" height="19.585" fill="black" fill-opacity="0" x="467.69" y="51.866"/>
  <path d="M 467.723 61.215 C 468.103 55.807 471.313 51.624 474.853 51.877 C 478.393 52.131 480.963 56.736 480.543 62.145 C 480.163 67.511 476.953 71.694 473.413 71.44 C 469.873 71.187 467.343 66.581 467.723 61.215 Z" fill="#845F53" transform="matrix(-1, 0, 0, -1, 948.273254, 123.317085)"/>
  <rect width="10.416" height="15.888" fill="black" fill-opacity="0" x="506" y="-0.474"/>
  <path d="M 506 7.554 C 505.92 3.202 508.15 -0.432 511.06 -0.474 C 513.93 -0.516 516.33 2.991 516.42 7.385 C 516.5 11.737 514.22 15.371 511.36 15.413 C 508.49 15.455 506.09 11.948 506 7.554 Z" fill="#845F53" transform="matrix(-1, 0, 0, -1, 1022.419922, 14.939)"/>
  <rect width="10.416" height="15.888" fill="black" fill-opacity="0" x="475.65" y="-4.024"/>
  <path d="M 475.659 3.836 C 475.749 -0.558 478.149 -4.065 481.019 -4.023 C 483.879 -3.938 486.159 -0.347 486.069 4.047 C 485.989 8.399 483.589 11.906 480.719 11.864 C 477.849 11.822 475.579 8.23 475.659 3.836 Z" fill="#845F53" transform="matrix(-1, 0, 0, -1, 961.728516, 7.841001)"/>
  <path d="M 439.657 1119.098 C 230.62 1145.918 59.454 1110.638 0 1060.348 L 0 823.328 L 1920 823.328 L 1920 931.648 C 1908.34 919.668 1874.53 899.198 1807.5 896.708 C 1595.42 888.818 1426.61 1169.598 1105.5 1013.178 C 738.5 834.388 700.952 1085.568 439.657 1119.098 Z" transform="matrix(-1, 0, 0, -1, 1920, 1951.657593)"/>
</svg>