<?xml version="1.0" encoding="utf-8"?>
<svg viewBox="0 0 1922 1876.577" fill="none" xmlns="http://www.w3.org/2000/svg">
  <ellipse style="fill-rule: nonzero; paint-order: fill; stroke: rgba(0, 0, 0, 0); fill: rgb(178, 222, 255);" cx="757.073" cy="1758.83" rx="260.247" ry="98.23"/>
  <ellipse style="fill-rule: nonzero; paint-order: fill; stroke: rgba(0, 0, 0, 0); fill: rgb(178, 222, 255);" cx="332.349" cy="1773.092" rx="260.247" ry="98.23"/>
  <rect width="1920" height="1885.19" fill="black" fill-opacity="0" style="" x="1"/>
  <path d="M 449.5 1800.14 C 328.5 1862.32 175.5 1831.02 1 1750.13 L 1 1329 L 1921 1329 L 1921 1504 L 1921 1657.5 C 1921 1657.5 1451.5 1847.2 1109 1674.14 C 789.345 1512.62 685.902 1678.65 449.5 1800.14 Z" transform="matrix(-1, 0, 0, -1, 1922, 3162)"/>
  <rect width="428" height="1351" fill="black" fill-opacity="0" transform="matrix(-1, 0, 0, 1, 0, 0)" x="-998" y="430"/>
  <rect width="428" height="1351" fill="black" fill-opacity="0" transform="matrix(-1, 0, 0, 1, 0, 0)" x="-998" y="430"/>
  <rect width="428" height="1339.86" fill="black" fill-opacity="0" transform="matrix(-1, 0, 0, 1, 0, 0)" x="-998" y="430"/>
  <path d="M 998 430 C 817.16 634.42 766.83 781.49 847.04 871.26 C 967.32 1005.9 953.17 1098.04 955.54 1192.53 C 957.88 1287.014 917.78 1379.158 835.23 1435.83 C 752.67 1492.533 719.69 1549.174 792.83 1657.835 C 837.79 1724.664 846.29 1765.641 836.71 1769.66 C 831.4 1771.907 826.57 1754.946 812.29 1732.606 C 800.82 1714.697 781.11 1692.61 766.83 1679.7 C 716.97 1634.609 697.16 1588.411 692.77 1533.289 C 683.32 1415.167 807.9 1354.318 815.17 1281.034 C 822.43 1207.749 786.48 1104.09 745.12 1055.77 C 703.8 1007.45 606.455 972.83 575.777 798.01 C 555.336 681.47 589.141 558.82 677.19 430 C 827.583 371.043 1017.308 422.431 998 430 Z" fill="#FF623B" transform="matrix(-1, 0, 0, -1, 1568, 2199.859863)"/>
  <rect width="318.685" height="993.589" fill="black" fill-opacity="0" transform="matrix(-1, 0, 0, 1, 0, 0)" x="-889.05" y="778.162"/>
  <path d="M 810.555 1692.223 C 810.175 1696.716 796.415 1716.456 786.935 1728.544 C 780.105 1737.246 770.445 1748.764 761.075 1758.125 C 750.965 1767.86 737.045 1778.924 750.215 1765.614 C 769.035 1746.394 778.625 1715.763 781.915 1701.46 C 785.195 1687.158 788.895 1671.843 794.015 1642.478 C 799.165 1612.956 795.875 1565.84 792.745 1545.364 C 787.885 1513.594 766.145 1448.664 754.555 1420.824 C 742.955 1393.004 715.565 1344.654 659.925 1298.454 C 603.215 1251.374 583.755 1189.414 573.765 1126.384 C 558.225 1028.294 576.551 904.651 673.585 755.789 C 677.248 750.17 907.357 724.197 890.414 778.715 C 882.218 805.087 796.985 886.224 764.005 945.714 C 749.405 972.104 735.435 994.754 724.755 1018.044 C 716.855 1038.814 715.835 1041.414 712.355 1052.294 C 702.625 1103.904 699.105 1136.824 703.495 1151.704 C 710.065 1174.004 747.585 1231.584 758.625 1244.854 C 768.205 1256.364 818.525 1328.904 819.035 1346.654 C 819.345 1357.944 828.485 1370.164 833.065 1384.654 C 837.645 1399.114 837.765 1400.064 837.765 1406.744 C 837.765 1425.034 849.935 1461.454 842.825 1484.294 C 835.745 1507.144 847.055 1484.044 846.205 1529.894 C 845.385 1575.744 846.895 1576.883 844.875 1585.996 C 843.515 1592.103 842.035 1609.47 837.765 1621.024 L 833.415 1639.051 L 828.325 1655.958 C 827.245 1660.071 821.575 1671.75 810.555 1692.223 Z" fill="#FF8B64" transform="matrix(-1, 0, 0, -1, 1458.505005, 2550.214355)"/>
  <rect width="95.219" height="110.964" fill="black" fill-opacity="0" transform="matrix(-1, 0, 0, 1, 0, 0)" x="-691.24" y="1643.87"/>
  <path d="M 677.04 1721.747 C 695.78 1693.737 696 1660.957 677.55 1648.587 C 659.1 1636.247 628.92 1648.937 610.22 1676.937 C 591.48 1704.937 591.26 1737.727 609.71 1750.097 C 628.16 1762.467 658.34 1749.747 677.04 1721.747 Z" fill="#FFC0AA" transform="matrix(-1, 0, 0, -1, 1287.26001, 3398.696777)"/>
  <rect width="59.591" height="90.445" fill="black" fill-opacity="0" transform="matrix(-1, 0, 0, 1, 0, 0)" x="-791.56" y="1413.21"/>
  <path d="M 791.54 1459.13 C 792.11 1434.16 779.25 1413.59 762.79 1413.21 C 746.36 1412.83 732.55 1432.8 731.98 1457.77 C 731.41 1482.7 744.3 1503.27 760.73 1503.65 C 777.16 1504.03 790.97 1484.06 791.54 1459.13 Z" fill="#FFC0AA" transform="matrix(-1, 0, 0, -1, 1523.52002, 2916.859863)"/>
  <rect width="61.54" height="79.753" fill="black" fill-opacity="0" transform="matrix(-1, 0, 0, 1, 0, 0)" x="-772.75" y="1316.87"/>
  <path d="M 767.058 1344.96 C 757.228 1323.95 737.988 1312.14 724.148 1318.66 C 710.308 1325.15 707.058 1347.49 716.918 1368.53 C 726.738 1389.54 745.978 1401.35 759.818 1394.83 C 773.658 1388.34 776.908 1366 767.058 1344.96 Z" fill="#FFC0AA" transform="matrix(-1, 0, 0, -1, 1483.968262, 2713.48999)"/>
  <rect width="55.576" height="66.325" fill="black" fill-opacity="0" transform="matrix(-1, 0, 0, 1, 0, 0)" x="-714.91" y="1237.37"/>
  <path d="M 707.302 1257.91 C 696.782 1240.98 679.182 1232.91 668.032 1239.87 C 656.882 1246.83 656.372 1266.23 666.922 1283.16 C 677.442 1300.09 695.072 1308.16 706.232 1301.2 C 717.352 1294.24 717.852 1274.84 707.302 1257.91 Z" fill="#FFC0AA" transform="matrix(-1, 0, 0, -1, 1374.232178, 2541.069824)"/>
  <rect width="44.904" height="62.667" fill="black" fill-opacity="0" transform="matrix(-1, 0, 0, 1, 0, 0)" x="-666.53" y="1163.68"/>
  <path d="M 664.26 1188.541 C 658.86 1171.611 645.4 1160.791 634.25 1164.361 C 623.13 1167.941 618.48 1184.581 623.88 1201.511 C 629.32 1218.411 642.75 1229.261 653.9 1225.661 C 665.05 1222.081 669.69 1205.441 664.26 1188.541 Z" fill="#FFC0AA" transform="matrix(-1, 0, 0, -1, 1288.160156, 2390.031006)"/>
  <rect width="37.305" height="56.078" fill="black" fill-opacity="0" transform="matrix(-1, 0, 0, 1, 0, 0)" x="-643.03" y="1097.51"/>
  <path d="M 642.79 1123.615 C 641.17 1108.175 631.6 1096.535 621.43 1097.575 C 611.26 1098.655 604.34 1112.065 605.95 1127.475 C 607.56 1142.915 617.13 1154.595 627.3 1153.515 C 637.48 1152.445 644.4 1139.055 642.79 1123.615 Z" fill="#FFC0AA" transform="matrix(-1, 0, 0, -1, 1248.73999, 2251.094482)"/>
  <rect width="31.972" height="48.547" fill="black" fill-opacity="0" transform="matrix(-1, 0, 0, 1, 0, 0)" x="-633.23" y="1040.14"/>
  <path d="M 633.22 1064.85 C 633.6 1051.46 626.75 1040.39 617.93 1040.14 C 609.12 1039.91 601.66 1050.58 601.28 1063.96 C 600.9 1077.35 607.76 1088.42 616.57 1088.68 C 625.39 1088.9 632.84 1078.23 633.22 1064.85 Z" fill="#FFC0AA" transform="matrix(-1, 0, 0, -1, 1234.5, 2128.81958)"/>
  <rect width="31.998" height="48.523" fill="black" fill-opacity="0" transform="matrix(-1, 0, 0, 1, 0, 0)" x="-671.79" y="1034.79"/>
  <path d="M 671.764 1058.429 C 671.224 1045.049 663.674 1034.479 654.854 1034.799 C 646.044 1035.139 639.284 1046.279 639.824 1059.669 C 640.324 1073.049 647.904 1083.649 656.724 1083.299 C 665.534 1082.989 672.264 1071.819 671.764 1058.429 Z" fill="#FFC0AA" transform="matrix(-1, 0, 0, -1, 1311.583862, 2118.099121)"/>
  <rect width="34.966" height="51.919" fill="black" fill-opacity="0" transform="matrix(-1, 0, 0, 1, 0, 0)" x="-684.02" y="1091.24"/>
  <path d="M 683.55 1114.537 C 681.34 1100.267 671.89 1089.887 662.51 1091.377 C 653.12 1092.827 647.31 1105.607 649.52 1119.847 C 651.76 1134.087 661.18 1144.467 670.56 1143.017 C 679.95 1141.557 685.76 1128.777 683.55 1114.537 Z" fill="#FFC0AA" transform="matrix(-1, 0, 0, -1, 1333.069946, 2234.386963)"/>
  <rect width="41.853" height="58.423" fill="black" fill-opacity="0" transform="matrix(-1, 0, 0, 1, 0, 0)" x="-708.6" y="1148.84"/>
  <path d="M 706.484 1172.01 C 701.434 1156.22 688.884 1146.13 678.524 1149.48 C 668.134 1152.81 663.804 1168.31 668.854 1184.1 C 673.914 1199.86 686.424 1209.95 696.814 1206.63 C 707.214 1203.28 711.544 1187.77 706.484 1172.01 Z" fill="#FFC0AA" transform="matrix(-1, 0, 0, -1, 1375.344116, 2356.099854)"/>
  <rect width="55.58" height="66.347" fill="black" fill-opacity="0" transform="matrix(-1, 0, 0, 1, 0, 0)" x="-761.75" y="1207.66"/>
  <path d="M 754.165 1228.23 C 743.605 1211.3 726.015 1203.2 714.855 1210.16 C 703.705 1217.13 703.235 1236.52 713.755 1253.45 C 724.305 1270.38 741.905 1278.48 753.055 1271.52 C 764.205 1264.53 764.685 1245.16 754.165 1228.23 Z" fill="#FFC0AA" transform="matrix(-1, 0, 0, -1, 1467.915283, 2481.679932)"/>
  <rect width="62.85" height="78.714" fill="black" fill-opacity="0" transform="matrix(-1, 0, 0, 1, 0, 0)" x="-832.12" y="1283.7"/>
  <path d="M 825.15 1310.02 C 814.25 1289.52 794.44 1278.73 780.95 1285.94 C 767.46 1293.12 765.35 1315.62 776.25 1336.1 C 787.15 1356.6 806.96 1367.39 820.45 1360.18 C 833.94 1352.99 836.05 1330.49 825.15 1310.02 Z" fill="#FFC0AA" transform="matrix(-1, 0, 0, -1, 1601.400024, 2646.119873)"/>
  <rect width="63.529" height="96.3" fill="black" fill-opacity="0" transform="matrix(-1, 0, 0, 1, 0, 0)" x="-866.68" y="1402.3"/>
  <path d="M 866.61 1451.88 C 867.81 1425.3 854.58 1403.09 837.07 1402.33 C 819.57 1401.54 804.4 1422.48 803.23 1449.03 C 802.03 1475.61 815.27 1497.82 832.78 1498.58 C 850.28 1499.37 865.44 1478.43 866.61 1451.88 Z" fill="#FFC0AA" transform="matrix(-1, 0, 0, -1, 1669.839966, 2900.909912)"/>
  <rect width="76.122" height="104.734" fill="black" fill-opacity="0" transform="matrix(-1, 0, 0, 1, 0, 0)" x="-846" y="1538.93"/>
  <path d="M 841.52 1603.1 C 851.41 1574.93 844.36 1546.8 825.82 1540.29 C 807.27 1533.77 784.21 1551.33 774.35 1579.49 C 764.46 1607.62 771.51 1635.78 790.05 1642.3 C 808.6 1648.82 831.66 1631.26 841.52 1603.1 Z" fill="#FFC0AA" transform="matrix(-1, 0, 0, -1, 1615.869995, 3182.590088)"/>
  <rect width="95.195" height="110.964" fill="black" fill-opacity="0" transform="matrix(-1, 0, 0, 1, 0, 0)" x="-782.14" y="1670.04"/>
  <path d="M 767.961 1747.917 C 786.671 1719.907 786.891 1687.127 768.441 1674.757 C 749.991 1662.417 719.821 1675.107 701.111 1703.107 C 682.411 1731.117 682.191 1763.897 700.641 1776.267 C 719.061 1788.637 749.231 1775.917 767.961 1747.917 Z" fill="#FFC0AA" transform="matrix(-1, 0, 0, -1, 1469.080811, 3451.036621)"/>
  <rect width="18.4" height="27.397" fill="black" fill-opacity="0" transform="matrix(-1, 0, 0, 1, 0, 0)" x="-651.74" y="915.123"/>
  <path d="M 651.418 930.401 C 652.738 922.902 649.868 916.099 644.968 915.213 C 640.078 914.358 635.018 919.737 633.658 927.237 C 632.338 934.768 635.238 941.571 640.138 942.425 C 645.038 943.311 650.088 937.932 651.418 930.401 Z" fill="#FFC0AA" transform="matrix(-1, 0, 0, -1, 1285.078125, 1857.644165)"/>
  <rect width="77.549" height="95.911" fill="black" fill-opacity="0" transform="matrix(-1, 0, 0, 1, 0, 0)" x="-759.83" y="1530.57"/>
  <path d="M 750.694 1595.056 C 764.504 1570.226 762.424 1542.626 746.054 1533.516 C 729.724 1524.406 705.204 1537.156 691.424 1561.996 C 677.624 1586.866 679.674 1614.426 696.044 1623.536 C 712.404 1632.656 736.894 1619.896 750.694 1595.056 Z" fill="#FFC0AA" transform="matrix(-1, 0, 0, -1, 1442.113892, 3157.055908)"/>
  <rect width="24.824" height="38.559" fill="black" fill-opacity="0" transform="matrix(-1, 0, 0, 1, 0, 0)" x="-628" y="989.301"/>
  <path d="M 627.91 1007.655 C 627.09 997.015 620.93 988.795 614.11 989.325 C 607.31 989.835 602.45 998.885 603.27 1009.515 C 604.09 1020.15 610.28 1028.377 617.07 1027.839 C 623.87 1027.333 628.73 1018.283 627.91 1007.655 Z" fill="#FFC0AA" transform="matrix(-1, 0, 0, -1, 1231.180054, 2017.164673)"/>
  <rect width="25.668" height="38.55" fill="black" fill-opacity="0" transform="matrix(-1, 0, 0, 1, 0, 0)" x="-655.93" y="984.26"/>
  <path d="M 655.81 1002.369 C 654.83 991.769 648.36 983.629 641.34 984.299 C 634.33 984.929 629.43 994.079 630.38 1004.679 C 631.36 1015.306 637.84 1023.407 644.85 1022.774 C 651.86 1022.141 656.76 1012.996 655.81 1002.369 Z" fill="#FFC0AA" transform="matrix(-1, 0, 0, -1, 1286.189941, 2007.069214)"/>
  <rect width="18.862" height="28.921" fill="black" fill-opacity="0" transform="matrix(-1, 0, 0, 1, 0, 0)" x="-647.41" y="946.102"/>
  <path d="M 647.41 960.562 C 647.41 952.588 643.17 946.102 637.96 946.102 C 632.78 946.102 628.54 952.588 628.54 960.562 C 628.54 968.568 632.78 975.023 637.99 975.023 C 643.2 975.023 647.41 968.536 647.41 960.562 Z" fill="#FFC0AA" transform="matrix(-1, 0, 0, -1, 1275.949951, 1921.125)"/>
  <rect width="18.877" height="28.926" fill="black" fill-opacity="0" transform="matrix(-1, 0, 0, 1, 0, 0)" x="-624.51" y="948.916"/>
  <path d="M 624.502 963.632 C 624.692 955.658 620.652 949.076 615.432 948.918 C 610.252 948.791 605.862 955.152 605.642 963.157 C 605.422 971.131 609.492 977.713 614.682 977.839 C 619.892 977.998 624.282 971.637 624.502 963.632 Z" fill="#FFC0AA" transform="matrix(-1, 0, 0, -1, 1230.141968, 1926.758057)"/>
  <rect width="33.232" height="41.563" fill="black" fill-opacity="0" transform="matrix(-1, 0, 0, 1, 0, 0)" x="-659.21" y="1676.23"/>
  <path d="M 655.479 1703.943 C 661.259 1693.123 660.219 1681.263 653.109 1677.433 C 646.029 1673.603 635.539 1679.263 629.729 1690.093 C 623.909 1700.883 624.989 1712.773 632.069 1716.603 C 639.169 1720.433 649.659 1714.743 655.479 1703.943 Z" fill="#845F53" transform="matrix(-1, 0, 0, -1, 1285.188843, 3394.032959)"/>
  <rect width="33.236" height="41.551" fill="black" fill-opacity="0" transform="matrix(-1, 0, 0, 1, 0, 0)" x="-749.61" y="1701.26"/>
  <path d="M 745.846 1728.964 C 751.666 1718.174 750.626 1706.274 743.516 1702.444 C 736.406 1698.644 725.916 1704.314 720.136 1715.104 C 714.316 1725.924 715.366 1737.784 722.476 1741.614 C 729.576 1745.444 740.036 1739.784 745.846 1728.964 Z" fill="#845F53" transform="matrix(-1, 0, 0, -1, 1465.986084, 3444.074219)"/>
  <rect width="30.655" height="43.513" fill="black" fill-opacity="0" transform="matrix(-1, 0, 0, 1, 0, 0)" x="-823.33" y="1567.97"/>
  <path d="M 822.03 1593.792 C 825.44 1581.982 821.9 1570.592 814.13 1568.352 C 806.39 1566.132 797.35 1573.882 793.97 1585.692 C 790.56 1597.492 794.1 1608.882 801.87 1611.092 C 809.61 1613.342 818.65 1605.562 822.03 1593.792 Z" fill="#845F53" transform="matrix(-1, 0, 0, -1, 1616, 3179.452393)"/>
  <rect width="30.65" height="38.322" fill="black" fill-opacity="0" transform="matrix(-1, 0, 0, 1, 0, 0)" x="-735.75" y="1558.07"/>
  <path d="M 732.285 1583.64 C 737.655 1573.67 736.675 1562.69 730.135 1559.18 C 723.595 1555.63 713.925 1560.89 708.555 1570.85 C 703.215 1580.82 704.165 1591.77 710.735 1595.28 C 717.275 1598.82 726.945 1593.6 732.285 1583.64 Z" fill="#845F53" transform="matrix(-1, 0, 0, -1, 1440.85498, 3154.459473)"/>
  <rect width="26.919" height="40.946" fill="black" fill-opacity="0" transform="matrix(-1, 0, 0, 1, 0, 0)" x="-848.38" y="1429.98"/>
  <path d="M 848.38 1450.55 C 848.45 1439.22 842.47 1430.01 835.05 1429.98 C 827.63 1429.92 821.53 1439.06 821.46 1450.36 C 821.4 1461.66 827.37 1470.9 834.8 1470.93 C 842.22 1470.96 848.32 1461.85 848.38 1450.55 Z" fill="#845F53" transform="matrix(-1, 0, 0, -1, 1669.84021, 2900.909912)"/>
  <rect width="26.919" height="40.946" fill="black" fill-opacity="0" transform="matrix(-1, 0, 0, 1, 0, 0)" x="-775.2" y="1437.96"/>
  <path d="M 775.2 1458.53 C 775.27 1447.23 769.3 1437.99 761.87 1437.96 C 754.45 1437.93 748.35 1447.04 748.29 1458.37 C 748.22 1469.66 754.19 1478.87 761.62 1478.9 C 769.04 1478.97 775.11 1469.82 775.2 1458.53 Z" fill="#845F53" transform="matrix(-1, 0, 0, -1, 1523.48999, 2916.860107)"/>
  <rect width="23.909" height="30.342" fill="black" fill-opacity="0" transform="matrix(-1, 0, 0, 1, 0, 0)" x="-752.56" y="1340.09"/>
  <path d="M 750.058 1350.44 C 746.008 1342.49 738.498 1338.22 733.278 1340.88 C 728.068 1343.57 727.118 1352.15 731.168 1360.09 C 735.208 1368.03 742.728 1372.3 747.938 1369.64 C 753.148 1366.99 754.098 1358.38 750.058 1350.44 Z" fill="#845F53" transform="matrix(-1, 0, 0, -1, 1481.218018, 2710.520264)"/>
  <rect width="23.877" height="30.323" fill="black" fill-opacity="0" transform="matrix(-1, 0, 0, 1, 0, 0)" x="-811.11" y="1306.39"/>
  <path d="M 808.592 1316.721 C 804.552 1308.811 797.062 1304.501 791.852 1307.191 C 786.642 1309.851 785.692 1318.461 789.732 1326.371 C 793.782 1334.311 801.262 1338.581 806.482 1335.921 C 811.692 1333.271 812.642 1324.661 808.592 1316.721 Z" fill="#845F53" transform="matrix(-1, 0, 0, -1, 1598.332031, 2643.101318)"/>
  <rect width="22.018" height="26.686" fill="black" fill-opacity="0" transform="matrix(-1, 0, 0, 1, 0, 0)" x="-743.07" y="1226.36"/>
  <path d="M 740.234 1234.84 C 736.154 1227.98 729.174 1224.59 724.684 1227.28 C 720.164 1229.94 719.824 1237.69 723.894 1244.56 C 727.974 1251.42 734.924 1254.81 739.444 1252.12 C 743.954 1249.43 744.304 1241.68 740.234 1234.84 Z" fill="#845F53" transform="matrix(-1, 0, 0, -1, 1464.124512, 2479.399902)"/>
  <rect width="22.021" height="26.718" fill="black" fill-opacity="0" transform="matrix(-1, 0, 0, 1, 0, 0)" x="-696.63" y="1257.18"/>
  <path d="M 693.783 1265.66 C 689.703 1258.8 682.753 1255.41 678.233 1258.1 C 673.723 1260.79 673.373 1268.54 677.443 1275.41 C 681.523 1282.27 688.503 1285.66 693.023 1282.97 C 697.513 1280.28 697.853 1272.53 693.783 1265.66 Z" fill="#845F53" transform="matrix(-1, 0, 0, -1, 1371.232666, 2541.069824)"/>
  <rect width="19.018" height="26.741" fill="black" fill-opacity="0" transform="matrix(-1, 0, 0, 1, 0, 0)" x="-652.78" y="1180.09"/>
  <path d="M 651.872 1190.803 C 649.662 1183.553 643.972 1178.873 639.232 1180.363 C 634.492 1181.813 632.442 1188.873 634.652 1196.113 C 636.892 1203.333 642.552 1208.013 647.322 1206.563 C 652.062 1205.103 654.112 1198.013 651.872 1190.803 Z" fill="#845F53" transform="matrix(-1, 0, 0, -1, 1286.542603, 2386.913086)"/>
  <rect width="19.018" height="26.762" fill="black" fill-opacity="0" transform="matrix(-1, 0, 0, 1, 0, 0)" x="-695.12" y="1163.67"/>
  <path d="M 694.211 1174.37 C 692.001 1167.16 686.341 1162.47 681.571 1163.93 C 676.831 1165.42 674.781 1172.47 676.991 1179.69 C 679.241 1186.93 684.891 1191.62 689.661 1190.16 C 694.401 1188.67 696.451 1181.62 694.211 1174.37 Z" fill="#845F53" transform="matrix(-1, 0, 0, -1, 1371.220459, 2354.090088)"/>
  <rect width="15.385" height="23.261" fill="black" fill-opacity="0" transform="matrix(-1, 0, 0, 1, 0, 0)" x="-631.29" y="1113.92"/>
  <path d="M 631.23 1124.881 C 630.69 1118.491 626.81 1113.581 622.61 1113.931 C 618.4 1114.281 615.43 1119.781 615.97 1126.211 C 616.51 1132.601 620.39 1137.501 624.6 1137.161 C 628.8 1136.811 631.77 1131.301 631.23 1124.881 Z" fill="#845F53" transform="matrix(-1, 0, 0, -1, 1247.199951, 2251.091309)"/>
  <rect width="15.385" height="23.261" fill="black" fill-opacity="0" transform="matrix(-1, 0, 0, 1, 0, 0)" x="-673.56" y="1105.56"/>
  <path d="M 673.5 1116.53 C 672.96 1110.14 669.07 1105.23 664.87 1105.58 C 660.67 1105.93 657.7 1111.44 658.24 1117.86 C 658.78 1124.25 662.66 1129.16 666.86 1128.81 C 671.07 1128.43 674.04 1122.95 673.5 1116.53 Z" fill="#845F53" transform="matrix(-1, 0, 0, -1, 1331.73999, 2234.390137)"/>
  <rect width="12.709" height="19.204" fill="black" fill-opacity="0" transform="matrix(-1, 0, 0, 1, 0, 0)" x="-661.77" y="1047.95"/>
  <path d="M 661.719 1057.01 C 661.279 1051.73 658.089 1047.68 654.609 1047.96 C 651.129 1048.25 648.669 1052.81 649.109 1058.09 C 649.589 1063.37 652.779 1067.42 656.249 1067.14 C 659.729 1066.86 662.159 1062.3 661.719 1057.01 Z" fill="#845F53" transform="matrix(-1, 0, 0, -1, 1310.828491, 2115.100098)"/>
  <rect width="12.66" height="19.244" fill="black" fill-opacity="0" transform="matrix(-1, 0, 0, 1, 0, 0)" x="-622.77" y="1054.79"/>
  <path d="M 622.757 1064.15 C 622.527 1058.84 619.557 1054.66 616.057 1054.79 C 612.577 1054.94 609.927 1059.34 610.117 1064.66 C 610.337 1069.97 613.337 1074.15 616.817 1074.03 C 620.317 1073.9 622.977 1069.47 622.757 1064.15 Z" fill="#845F53" transform="matrix(-1, 0, 0, -1, 1232.877075, 2128.81958)"/>
  <rect width="9.667" height="14.667" fill="black" fill-opacity="0" transform="matrix(-1, 0, 0, 1, 0, 0)" x="-619.69" y="1001.03"/>
  <path d="M 619.665 1007.99 C 619.375 1003.97 616.975 1000.84 614.325 1001.03 C 611.675 1001.22 609.775 1004.66 610.055 1008.71 C 610.345 1012.73 612.745 1015.87 615.395 1015.68 C 618.055 1015.49 619.975 1012.04 619.665 1007.99 Z" fill="#845F53" transform="matrix(-1, 0, 0, -1, 1229.725464, 2016.709961)"/>
  <rect width="9.667" height="14.667" fill="black" fill-opacity="0" transform="matrix(-1, 0, 0, 1, 0, 0)" x="-647.44" y="996.564"/>
  <path d="M 647.415 1003.562 C 647.125 999.512 644.725 996.382 642.075 996.572 C 639.425 996.762 637.495 1000.212 637.805 1004.262 C 638.095 1008.277 640.495 1011.41 643.145 1011.22 C 645.805 1011.03 647.695 1007.582 647.415 1003.562 Z" fill="#845F53" transform="matrix(-1, 0, 0, -1, 1285.214722, 2007.79187)"/>
  <rect width="7.807" height="11.898" fill="black" fill-opacity="0" transform="matrix(-1, 0, 0, 1, 0, 0)" x="-618.72" y="957.367"/>
  <path d="M 618.72 963.379 C 618.78 960.12 617.1 957.399 614.92 957.367 C 612.78 957.335 610.98 959.962 610.91 963.253 C 610.85 966.512 612.55 969.233 614.7 969.265 C 616.85 969.296 618.65 966.67 618.72 963.379 Z" fill="#845F53" transform="matrix(-1, 0, 0, -1, 1229.630005, 1926.631958)"/>
  <rect width="7.807" height="11.898" fill="black" fill-opacity="0" transform="matrix(-1, 0, 0, 1, 0, 0)" x="-641.47" y="954.709"/>
  <path d="M 641.47 960.595 C 641.4 957.304 639.6 954.678 637.46 954.709 C 635.31 954.773 633.6 957.462 633.66 960.753 C 633.73 964.012 635.53 966.639 637.68 966.607 C 639.83 966.575 641.53 963.886 641.47 960.595 Z" fill="#845F53" transform="matrix(-1, 0, 0, -1, 1275.130005, 1921.31604)"/>
  <rect width="6.702" height="10.168" fill="black" fill-opacity="0" transform="matrix(-1, 0, 0, 1, 0, 0)" x="-645.59" y="924.042"/>
  <path d="M 645.57 929.363 C 645.76 926.547 644.44 924.174 642.57 924.047 C 640.74 923.921 639.1 926.073 638.91 928.889 C 638.72 931.705 640.04 934.078 641.88 934.205 C 643.74 934.331 645.38 932.148 645.57 929.363 Z" fill="#845F53" transform="matrix(-1, 0, 0, -1, 1284.47998, 1858.251953)"/>
  <rect width="6.854" height="10.086" fill="black" fill-opacity="0" transform="matrix(-1, 0, 0, 1, 0, 0)" x="-623.76" y="923.406"/>
  <path d="M 623.62 929.086 C 624.15 926.333 623.11 923.801 621.31 923.453 C 619.48 923.073 617.58 925.035 617.04 927.788 C 616.51 930.573 617.55 933.104 619.35 933.452 C 621.18 933.8 623.08 931.838 623.62 929.086 Z" fill="#845F53" transform="matrix(-1, 0, 0, -1, 1240.659912, 1856.897827)"/>
  <rect width="7.096" height="9.902" fill="black" fill-opacity="0" transform="matrix(-1, 0, 0, 1, 0, 0)" x="-639.33" y="890.745"/>
  <path d="M 638.965 896.739 C 639.825 894.05 639.095 891.423 637.355 890.854 C 635.585 890.284 633.475 891.993 632.585 894.651 C 631.735 897.341 632.455 899.967 634.225 900.537 C 635.965 901.106 638.115 899.397 638.965 896.739 Z" fill="#845F53" transform="matrix(-1, 0, 0, -1, 1271.555054, 1791.390625)"/>
  <rect width="16.894" height="22.381" fill="black" fill-opacity="0" transform="matrix(-1, 0, 0, 1, 0, 0)" x="-655.11" y="856.369"/>
  <path d="M 653.656 870.655 C 656.286 864.706 655.236 858.504 651.386 856.795 C 647.496 855.118 642.256 858.536 639.666 864.485 C 637.046 870.402 638.086 876.604 641.936 878.312 C 645.826 880.021 651.066 876.572 653.656 870.655 Z" fill="#FFC0AA" transform="matrix(-1, 0, 0, -1, 1293.326416, 1735.11853)"/>
  <rect width="18.343" height="27.435" fill="black" fill-opacity="0" transform="matrix(-1, 0, 0, 1, 0, 0)" x="-631.35" y="914.7"/>
  <path d="M 631.068 929.875 C 632.298 922.344 629.328 915.573 624.428 914.782 C 619.528 913.959 614.538 919.402 613.278 926.932 C 612.048 934.463 615.048 941.235 619.948 942.058 C 624.838 942.849 629.828 937.406 631.068 929.875 Z" fill="#FFC0AA" transform="matrix(-1, 0, 0, -1, 1244.3479, 1856.833984)"/>
  <rect width="16.024" height="22.736" fill="black" fill-opacity="0" transform="matrix(-1, 0, 0, 1, 0, 0)" x="-641.99" y="884.027"/>
  <path d="M 641.239 897.594 C 643.099 891.455 641.369 885.443 637.349 884.24 C 633.339 883.038 628.569 887.025 626.709 893.195 C 624.839 899.366 626.609 905.346 630.619 906.549 C 634.639 907.751 639.409 903.764 641.239 897.594 Z" fill="#FFC0AA" transform="matrix(-1, 0, 0, -1, 1267.948975, 1790.78894)"/>
  <rect width="13.208" height="18.791" fill="black" fill-opacity="0" transform="matrix(-1, 0, 0, 1, 0, 0)" x="-657.35" y="890.904"/>
  <path d="M 656.778 902.086 C 658.258 896.992 656.778 892.056 653.458 891.075 C 650.148 890.094 646.228 893.416 644.738 898.511 C 643.228 903.605 644.708 908.542 648.028 909.523 C 651.348 910.503 655.258 907.181 656.778 902.086 Z" fill="#FFC0AA" transform="matrix(-1, 0, 0, -1, 1301.497925, 1800.597656)"/>
  <rect width="13.594" height="18.527" fill="black" fill-opacity="0" transform="matrix(-1, 0, 0, 1, 0, 0)" x="-667.42" y="866.402"/>
  <path d="M 666.485 877.912 C 668.385 872.976 667.305 867.944 664.085 866.679 C 660.865 865.445 656.695 868.451 654.765 873.419 C 652.875 878.355 653.945 883.386 657.165 884.652 C 660.425 885.886 664.595 882.88 666.485 877.912 Z" fill="#FFC0AA" transform="matrix(-1, 0, 0, -1, 1321.254517, 1751.331055)"/>
  <rect width="16.895" height="22.363" fill="black" fill-opacity="0" transform="matrix(-1, 0, 0, 1, 0, 0)" x="-672.41" y="832.669"/>
  <path d="M 670.974 846.936 C 673.564 840.987 672.554 834.785 668.674 833.108 C 664.814 831.4 659.574 834.817 656.954 840.766 C 654.354 846.715 655.374 852.885 659.254 854.594 C 663.114 856.302 668.384 852.853 670.974 846.936 Z" fill="#FFC0AA" transform="matrix(-1, 0, 0, -1, 1327.923584, 1687.699707)"/>
  <rect width="6.734" height="10.168" fill="black" fill-opacity="0" transform="matrix(-1, 0, 0, 1, 0, 0)" x="-625.5" y="923.472"/>
  <path d="M 625.48 928.794 C 625.67 925.978 624.31 923.605 622.48 923.478 C 620.64 923.351 618.97 925.535 618.78 928.319 C 618.59 931.136 619.92 933.509 621.78 933.635 C 623.61 933.762 625.26 931.61 625.48 928.794 Z" fill="#845F53" transform="matrix(-1, 0, 0, -1, 1244.259644, 1857.113159)"/>
  <rect width="7.026" height="9.96" fill="black" fill-opacity="0" transform="matrix(-1, 0, 0, 1, 0, 0)" x="-637.54" y="889.809"/>
  <path d="M 637.23 895.749 C 638.02 893.028 637.23 890.433 635.46 889.895 C 633.66 889.389 631.61 891.161 630.82 893.851 C 630.03 896.54 630.82 899.167 632.59 899.673 C 634.36 900.211 636.44 898.439 637.23 895.749 Z" fill="#845F53" transform="matrix(-1, 0, 0, -1, 1268.050049, 1789.578125)"/>
  <rect width="7.321" height="9.731" fill="black" fill-opacity="0" transform="matrix(-1, 0, 0, 1, 0, 0)" x="-650.44" y="862.479"/>
  <path d="M 649.852 868.642 C 650.962 866.047 650.452 863.357 648.752 862.661 C 647.042 861.933 644.802 863.452 643.692 866.047 C 642.622 868.642 643.092 871.3 644.802 872.027 C 646.502 872.755 648.782 871.236 649.852 868.642 Z" fill="#845F53" transform="matrix(-1, 0, 0, -1, 1293.562134, 1734.687988)"/>
  <rect width="7.295" height="9.765" fill="black" fill-opacity="0" transform="matrix(-1, 0, 0, 1, 0, 0)" x="-667.37" y="838.73"/>
  <path d="M 666.825 844.88 C 667.865 842.285 667.365 839.596 665.655 838.899 C 663.945 838.203 661.675 839.722 660.635 842.349 C 659.555 844.943 660.065 847.601 661.795 848.329 C 663.505 849.025 665.745 847.475 666.825 844.88 Z" fill="#845F53" transform="matrix(-1, 0, 0, -1, 1327.43457, 1687.225952)"/>
  <rect width="5.514" height="7.833" fill="black" fill-opacity="0" transform="matrix(-1, 0, 0, 1, 0, 0)" x="-653.81" y="895.94"/>
  <path d="M 653.57 900.6 C 654.2 898.48 653.57 896.423 652.18 896.012 C 650.79 895.6 649.14 896.993 648.54 899.113 C 647.91 901.233 648.54 903.29 649.93 903.701 C 651.32 904.112 652.97 902.72 653.57 900.6 Z" fill="#845F53" transform="matrix(-1, 0, 0, -1, 1302.109985, 1799.712769)"/>
  <rect width="5.527" height="7.802" fill="black" fill-opacity="0" transform="matrix(-1, 0, 0, 1, 0, 0)" x="-663.54" y="871.575"/>
  <path d="M 663.318 876.204 C 663.918 874.116 663.288 872.059 661.898 871.647 C 660.508 871.236 658.888 872.628 658.258 874.748 C 657.628 876.869 658.258 878.894 659.648 879.305 C 661.038 879.716 662.688 878.324 663.318 876.204 Z" fill="#845F53" transform="matrix(-1, 0, 0, -1, 1321.558228, 1750.951904)"/>
  <path d="M 392.5 1750.548 C 187.318 1798.678 60.454 1715.338 1 1665.048 L 1 1391.548 L 1921 1391.548 L 1921 1581.048 C 1909.34 1569.078 1853.03 1522.038 1786 1519.548 C 1573.92 1511.658 1442.11 1726.478 1121 1570.048 C 754 1391.268 636.5 1693.318 392.5 1750.548 Z" transform="matrix(-1, 0, 0, -1, 1922, 3156.54834)"/>
  <rect width="571" height="1804" fill="black" fill-opacity="0" x="1"/>
  <rect width="571" height="1753.004" fill="black" fill-opacity="0" x="1" style=""/>
  <rect width="571" height="1757.348" fill="black" fill-opacity="0" x="1" style=""/>
  <path d="M 20.924 19.53 C 262.194 292.48 309.413 469.34 202.393 589.21 C 41.933 769 60.813 892.04 57.653 1018.206 C 54.533 1144.373 108.023 1267.412 218.163 1343.087 C 328.293 1418.804 372.303 1494.436 274.723 1639.532 C 214.743 1728.77 203.403 1783.487 216.183 1788.853 C 223.263 1791.853 229.713 1769.205 248.763 1739.375 C 264.063 1715.46 290.363 1685.968 309.413 1668.729 C 375.923 1608.519 402.353 1546.83 408.213 1473.225 C 420.813 1315.496 254.623 1234.244 244.923 1136.387 C 235.233 1038.53 283.193 900.11 338.373 835.59 C 393.503 771.07 523.373 724.85 564.293 491.4 C 591.563 335.78 531.245 175.485 413.775 3.475 C 388.306 -28.353 159.927 -59.075 20.924 19.53 Z" fill="#FF623B" transform="matrix(-1, 0, 0, -1, 573.002808, 1789.119995)"/>
  <rect width="425.162" height="1326.75" fill="black" fill-opacity="0" x="146.35" y="464.903"/>
  <path d="M 251.092 1685.457 C 251.592 1691.457 269.941 1717.816 282.591 1733.957 C 291.711 1745.577 304.591 1760.957 317.091 1773.457 C 330.591 1786.457 349.161 1801.23 331.591 1783.457 C 306.481 1757.793 293.681 1716.89 289.301 1697.792 C 284.911 1678.694 279.981 1658.243 273.151 1619.034 C 266.281 1579.612 270.671 1516.698 274.841 1489.36 C 281.331 1446.939 310.331 1360.236 325.801 1323.054 C 341.271 1285.914 377.811 1221.348 452.041 1159.658 C 527.701 1096.788 553.661 1014.059 566.981 929.889 C 587.721 798.909 576.409 624.672 424.893 439.106 C 412.225 423.591 242.112 430.425 162.786 484.647 C 137.243 502.107 265.422 606.635 309.591 685.959 C 329.177 721.134 351.301 754.119 365.551 785.219 C 376.091 812.959 377.451 816.419 382.091 830.959 C 395.071 899.869 399.771 943.839 393.911 963.699 C 385.151 993.479 335.091 1070.358 320.361 1088.088 C 307.591 1103.458 240.452 1200.308 239.772 1224.018 C 239.352 1239.098 227.172 1255.408 221.062 1274.758 C 214.952 1294.068 214.782 1295.336 214.782 1304.251 C 214.782 1328.673 198.552 1377.306 208.032 1407.813 C 217.472 1438.319 202.392 1407.475 203.522 1468.699 C 204.622 1529.923 202.602 1531.444 205.292 1543.613 C 207.112 1551.767 209.092 1574.958 214.782 1590.386 L 220.592 1614.458 L 227.382 1637.032 C 228.812 1642.525 236.382 1658.119 251.092 1685.457 Z" fill="#FF8B64" transform="matrix(-0.999999, 0.001675, -0.001675, -0.999999, 720.982666, 2256.355225)"/>
  <rect width="127.033" height="148.171" fill="black" fill-opacity="0" x="410.25" y="1620.89"/>
  <path d="M 429.2 1724.873 C 404.2 1687.483 403.91 1643.713 428.52 1627.193 C 453.14 1610.713 493.39 1627.653 518.34 1665.043 C 543.34 1702.443 543.63 1746.213 519.02 1762.733 C 494.4 1779.253 454.15 1762.273 429.2 1724.873 Z" fill="#FFC0AA" transform="matrix(-1, 0, 0, -1, 947.540039, 3389.942871)"/>
  <rect width="79.501" height="120.772" fill="black" fill-opacity="0" x="276.42" y="1312.88"/>
  <path d="M 276.441 1374.2 C 275.681 1340.86 292.841 1313.4 314.801 1312.89 C 336.721 1312.39 355.141 1339.05 355.901 1372.38 C 356.651 1405.68 339.461 1433.14 317.541 1433.65 C 295.621 1434.16 277.201 1407.5 276.441 1374.2 Z" fill="#FFC0AA" transform="matrix(-1, 0, 0, -1, 632.34137, 2746.540283)"/>
  <rect width="82.102" height="106.494" fill="black" fill-opacity="0" x="301.51" y="1184.24"/>
  <path d="M 309.11 1221.746 C 322.22 1193.696 347.89 1177.936 366.35 1186.636 C 384.81 1195.296 389.15 1225.126 376 1253.226 C 362.89 1281.286 337.22 1297.046 318.76 1288.336 C 300.3 1279.676 295.96 1249.846 309.11 1221.746 Z" fill="#FFC0AA" transform="matrix(-1, 0, 0, -1, 685.109985, 2474.976563)"/>
  <rect width="74.145" height="88.565" fill="black" fill-opacity="0" x="378.68" y="1078.09"/>
  <path d="M 388.825 1105.516 C 402.855 1082.906 426.335 1072.136 441.215 1081.426 C 456.095 1090.726 456.765 1116.626 442.685 1139.236 C 428.655 1161.836 405.135 1172.616 390.255 1163.316 C 375.415 1154.026 374.745 1128.116 388.825 1105.516 Z" fill="#FFC0AA" transform="matrix(-1, 0, 0, -1, 831.505554, 2244.746338)"/>
  <rect width="59.907" height="83.679" fill="black" fill-opacity="0" x="443.22" y="979.69"/>
  <path d="M 446.251 1012.88 C 453.461 990.28 471.411 975.83 486.291 980.6 C 501.131 985.38 507.321 1007.6 500.121 1030.21 C 492.871 1052.77 474.951 1067.263 460.071 1062.446 C 445.191 1057.671 439.001 1035.45 446.251 1012.88 Z" fill="#FFC0AA" transform="matrix(-1, 0, 0, -1, 946.341309, 2043.060181)"/>
  <rect width="49.768" height="74.882" fill="black" fill-opacity="0" x="474.58" y="891.327"/>
  <path d="M 474.89 926.187 C 477.04 905.567 489.81 890.018 503.38 891.413 C 516.95 892.849 526.18 910.765 524.03 931.342 C 521.88 951.961 509.11 967.552 495.54 966.116 C 481.97 964.679 472.74 946.806 474.89 926.187 Z" fill="#FFC0AA" transform="matrix(-1, 0, 0, -1, 998.920044, 1857.533813)"/>
  <rect width="42.654" height="64.825" fill="black" fill-opacity="0" x="487.64" y="814.725"/>
  <path d="M 487.66 847.73 C 487.15 829.857 496.3 815.068 508.06 814.73 C 519.82 814.435 529.77 828.674 530.27 846.547 C 530.78 864.42 521.63 879.208 509.87 879.546 C 498.11 879.842 488.16 865.603 487.66 847.73 Z" fill="#FFC0AA" transform="matrix(-1, 0, 0, -1, 1017.929993, 1694.276001)"/>
  <rect width="42.689" height="64.794" fill="black" fill-opacity="0" x="436.19" y="807.578"/>
  <path d="M 436.226 839.15 C 436.946 821.277 447.016 807.165 458.776 807.587 C 470.536 808.052 479.556 822.925 478.846 840.798 C 478.166 858.671 468.046 872.826 456.286 872.361 C 444.536 871.938 435.556 857.023 436.226 839.15 Z" fill="#FFC0AA" transform="matrix(-1, 0, 0, -1, 915.07605, 1679.949829)"/>
  <rect width="46.648" height="69.327" fill="black" fill-opacity="0" x="419.89" y="882.956"/>
  <path d="M 420.51 914.074 C 423.46 895.018 436.06 881.159 448.58 883.145 C 461.1 885.089 468.86 902.159 465.91 921.173 C 462.91 940.186 450.35 954.045 437.84 952.102 C 425.32 950.158 417.56 933.088 420.51 914.074 Z" fill="#FFC0AA" transform="matrix(-1, 0, 0, -1, 886.419983, 1835.23938)"/>
  <rect width="55.837" height="78.012" fill="black" fill-opacity="0" x="387.09" y="959.868"/>
  <path d="M 389.914 990.808 C 396.654 969.728 413.384 956.248 427.214 960.728 C 441.084 965.158 446.854 985.868 440.114 1006.951 C 433.364 1027.993 416.674 1041.471 402.814 1037.035 C 388.944 1032.556 383.164 1011.852 389.914 990.808 Z" fill="#FFC0AA" transform="matrix(-1, 0, 0, -1, 830.023621, 1997.748291)"/>
  <rect width="74.15" height="88.594" fill="black" fill-opacity="0" x="316.19" y="1038.42"/>
  <path d="M 326.301 1065.876 C 340.381 1043.276 363.861 1032.456 378.741 1041.756 C 393.621 1051.046 394.251 1076.946 380.211 1099.556 C 366.131 1122.156 342.661 1132.976 327.781 1123.686 C 312.901 1114.346 312.271 1088.486 326.301 1065.876 Z" fill="#FFC0AA" transform="matrix(-1, 0, 0, -1, 706.520569, 2165.436279)"/>
  <rect width="83.849" height="105.107" fill="black" fill-opacity="0" x="222.3" y="1139.96"/>
  <path d="M 231.6 1175.104 C 246.14 1147.724 272.57 1133.314 290.56 1142.954 C 308.56 1152.544 311.39 1182.584 296.84 1209.924 C 282.3 1237.304 255.87 1251.704 237.88 1242.074 C 219.88 1232.484 217.05 1202.444 231.6 1175.104 Z" fill="#FFC0AA" transform="matrix(-1, 0, 0, -1, 528.440002, 2385.02417)"/>
  <rect width="84.755" height="128.591" fill="black" fill-opacity="0" x="176.19" y="1298.33"/>
  <path d="M 176.299 1364.52 C 174.699 1329.03 192.359 1299.37 215.709 1298.35 C 239.059 1297.3 259.289 1325.27 260.849 1360.72 C 262.459 1396.21 244.799 1425.87 221.439 1426.89 C 198.089 1427.94 177.859 1399.97 176.299 1364.52 Z" fill="#FFC0AA" transform="matrix(-1, 0, 0, -1, 437.149231, 2725.23999)"/>
  <rect width="101.556" height="139.852" fill="black" fill-opacity="0" x="203.79" y="1480.76"/>
  <path d="M 209.767 1566.446 C 196.567 1528.846 205.967 1491.286 230.707 1482.576 C 255.457 1473.876 286.227 1497.326 299.377 1534.926 C 312.567 1572.486 303.167 1610.096 278.427 1618.796 C 253.687 1627.506 222.917 1604.056 209.767 1566.446 Z" fill="#FFC0AA" transform="matrix(-1, 0, 0, -1, 509.137329, 3101.375488)"/>
  <rect width="127.001" height="148.171" fill="black" fill-opacity="0" x="288.98" y="1655.83"/>
  <path d="M 307.89 1759.822 C 282.94 1722.432 282.64 1678.652 307.26 1662.132 C 331.88 1645.652 372.13 1662.602 397.08 1699.992 C 422.03 1737.392 422.33 1781.162 397.71 1797.682 C 373.14 1814.202 332.89 1797.222 307.89 1759.822 Z" fill="#FFC0AA" transform="matrix(-1, 0, 0, -1, 704.969971, 3459.83252)"/>
  <rect width="24.548" height="36.584" fill="black" fill-opacity="0" x="462.95" y="647.789"/>
  <path d="M 463.383 668.189 C 461.613 658.175 465.453 649.091 471.983 647.908 C 478.513 646.767 485.263 653.95 487.073 663.964 C 488.843 674.02 484.963 683.104 478.433 684.245 C 471.903 685.428 465.153 678.245 463.383 668.189 Z" fill="#FFC0AA" transform="matrix(-1, 0, 0, -1, 950.453125, 1332.161377)"/>
  <rect width="103.46" height="128.071" fill="black" fill-opacity="0" x="318.74" y="1469.6"/>
  <path d="M 330.923 1555.714 C 312.503 1522.544 315.283 1485.704 337.123 1473.534 C 358.913 1461.364 391.623 1478.394 410.003 1511.554 C 428.423 1544.764 425.683 1581.574 403.843 1593.744 C 382.013 1605.904 349.343 1588.884 330.923 1555.714 Z" fill="#FFC0AA" transform="matrix(-1, 0, 0, -1, 740.942688, 3067.273926)"/>
  <rect width="33.118" height="51.488" fill="black" fill-opacity="0" x="494.62" y="746.839"/>
  <path d="M 494.738 771.336 C 495.838 757.139 504.058 746.154 513.158 746.872 C 522.228 747.548 528.718 759.632 527.618 773.829 C 526.528 788.026 518.258 799.012 509.198 798.294 C 500.138 797.618 493.648 785.533 494.738 771.336 Z" fill="#FFC0AA" transform="matrix(-1, 0, 0, -1, 1022.358032, 1545.166016)"/>
  <rect width="34.244" height="51.476" fill="black" fill-opacity="0" x="457.36" y="740.108"/>
  <path d="M 457.522 764.285 C 458.832 750.13 467.472 739.271 476.822 740.159 C 486.182 741.004 492.712 753.215 491.452 767.369 C 490.142 781.566 481.502 792.383 472.142 791.538 C 462.792 790.693 456.252 778.482 457.522 764.285 Z" fill="#FFC0AA" transform="matrix(-1, 0, 0, -1, 948.971863, 1531.692627)"/>
  <rect width="25.164" height="38.619" fill="black" fill-opacity="0" x="468.73" y="689.155"/>
  <path d="M 468.73 708.465 C 468.73 697.817 474.38 689.155 481.34 689.155 C 488.25 689.155 493.9 697.817 493.9 708.465 C 493.9 719.155 488.25 727.774 481.29 727.774 C 474.34 727.774 468.73 719.112 468.73 708.465 Z" fill="#FFC0AA" transform="matrix(-1, 0, 0, -1, 962.630005, 1416.928955)"/>
  <rect width="25.184" height="38.625" fill="black" fill-opacity="0" x="499.28" y="692.912"/>
  <path d="M 499.288 712.563 C 499.028 701.915 504.428 693.127 511.378 692.915 C 518.288 692.746 524.148 701.239 524.448 711.929 C 524.738 722.577 519.308 731.365 512.388 731.534 C 505.438 731.746 499.578 723.253 499.288 712.563 Z" fill="#FFC0AA" transform="matrix(-1, 0, 0, -1, 1023.738098, 1424.450317)"/>
  <rect width="44.335" height="55.5" fill="black" fill-opacity="0" x="452.98" y="1664.11"/>
  <path d="M 457.96 1701.114 C 450.25 1686.664 451.64 1670.814 461.12 1665.704 C 470.57 1660.594 484.56 1668.154 492.32 1682.604 C 500.07 1697.014 498.64 1712.904 489.2 1718.014 C 479.71 1723.124 465.72 1715.524 457.96 1701.114 Z" fill="#845F53" transform="matrix(-1, 0, 0, -1, 950.299927, 3383.713867)"/>
  <rect width="44.341" height="55.483" fill="black" fill-opacity="0" x="332.38" y="1697.52"/>
  <path d="M 337.397 1734.51 C 329.637 1720.1 331.027 1704.21 340.517 1699.1 C 349.997 1694.03 363.987 1701.59 371.707 1716 C 379.457 1730.45 378.067 1746.3 368.587 1751.41 C 359.097 1756.52 345.147 1748.96 337.397 1734.51 Z" fill="#845F53" transform="matrix(-1, 0, 0, -1, 709.096619, 3450.530029)"/>
  <rect width="40.897" height="58.104" fill="black" fill-opacity="0" x="234.04" y="1519.54"/>
  <path d="M 235.77 1554.009 C 231.22 1538.249 235.94 1523.039 246.31 1520.039 C 256.64 1517.079 268.69 1527.439 273.2 1543.199 C 277.75 1558.959 273.03 1574.169 262.66 1577.129 C 252.34 1580.129 240.28 1569.729 235.77 1554.009 Z" fill="#845F53" transform="matrix(-1, 0, 0, -1, 508.970001, 3097.178711)"/>
  <rect width="40.89" height="51.171" fill="black" fill-opacity="0" x="350.87" y="1506.32"/>
  <path d="M 355.499 1540.455 C 348.329 1527.145 349.639 1512.485 358.369 1507.795 C 367.089 1503.065 379.989 1510.075 387.149 1523.385 C 394.279 1536.695 393.009 1551.315 384.249 1556.005 C 375.519 1560.735 362.619 1553.765 355.499 1540.455 Z" fill="#845F53" transform="matrix(-1, 0, 0, -1, 742.628845, 3063.804443)"/>
  <rect width="35.913" height="54.675" fill="black" fill-opacity="0" x="200.62" y="1335.28"/>
  <path d="M 200.62 1362.75 C 200.54 1347.62 208.5 1335.32 218.41 1335.28 C 228.31 1335.2 236.45 1347.41 236.53 1362.49 C 236.62 1377.58 228.65 1389.91 218.75 1389.96 C 208.84 1390 200.71 1377.83 200.62 1362.75 Z" fill="#845F53" transform="matrix(-1, 0, 0, -1, 437.150146, 2725.239746)"/>
  <rect width="35.913" height="54.675" fill="black" fill-opacity="0" x="298.23" y="1345.93"/>
  <path d="M 298.24 1373.4 C 298.16 1358.31 306.12 1345.98 316.03 1345.93 C 325.94 1345.89 334.07 1358.06 334.15 1373.19 C 334.24 1388.27 326.27 1400.57 316.37 1400.61 C 306.46 1400.69 298.37 1388.48 298.24 1373.4 Z" fill="#845F53" transform="matrix(-1, 0, 0, -1, 632.390137, 2746.540283)"/>
  <rect width="31.897" height="40.516" fill="black" fill-opacity="0" x="328.44" y="1215.25"/>
  <path d="M 331.79 1229.059 C 337.18 1218.459 347.21 1212.749 354.17 1216.299 C 361.12 1219.889 362.39 1231.339 356.99 1241.949 C 351.6 1252.559 341.57 1258.259 334.61 1254.709 C 327.66 1251.159 326.39 1239.669 331.79 1229.059 Z" fill="#845F53" transform="matrix(-1, 0, 0, -1, 688.780029, 2471.009033)"/>
  <rect width="31.855" height="40.49" fill="black" fill-opacity="0" x="250.34" y="1170.25"/>
  <path d="M 253.68 1184.036 C 259.08 1173.476 269.07 1167.726 276.02 1171.316 C 282.98 1174.866 284.24 1186.366 278.85 1196.926 C 273.45 1207.526 263.46 1213.236 256.51 1209.686 C 249.55 1206.136 248.29 1194.646 253.68 1184.036 Z" fill="#845F53" transform="matrix(-1, 0, 0, -1, 532.529968, 2380.986084)"/>
  <rect width="29.374" height="35.634" fill="black" fill-opacity="0" x="341.1" y="1063.38"/>
  <path d="M 344.892 1074.71 C 350.332 1065.54 359.652 1061.02 365.632 1064.61 C 371.662 1068.16 372.122 1078.51 366.682 1087.68 C 361.252 1096.85 351.972 1101.37 345.952 1097.78 C 339.922 1094.19 339.462 1083.83 344.892 1074.71 Z" fill="#845F53" transform="matrix(-1, 0, 0, -1, 711.582458, 2162.390137)"/>
  <rect width="29.378" height="35.677" fill="black" fill-opacity="0" x="403.06" y="1104.53"/>
  <path d="M 406.861 1115.866 C 412.301 1106.696 421.571 1102.176 427.601 1105.766 C 433.631 1109.356 434.091 1119.716 428.651 1128.886 C 423.221 1138.046 413.901 1142.576 407.871 1138.976 C 401.891 1135.386 401.421 1125.036 406.861 1115.866 Z" fill="#845F53" transform="matrix(-1, 0, 0, -1, 835.511414, 2244.746338)"/>
  <rect width="25.372" height="35.707" fill="black" fill-opacity="0" x="461.56" y="1001.6"/>
  <path d="M 462.775 1015.913 C 465.725 1006.233 473.315 999.983 479.635 1001.963 C 485.955 1003.913 488.695 1013.333 485.745 1023.003 C 482.755 1032.643 475.215 1038.893 468.845 1036.953 C 462.525 1035.003 459.785 1025.543 462.775 1015.913 Z" fill="#845F53" transform="matrix(-1, 0, 0, -1, 948.4953, 2038.902954)"/>
  <rect width="25.372" height="35.736" fill="black" fill-opacity="0" x="405.08" y="979.668"/>
  <path d="M 406.295 993.962 C 409.245 984.332 416.795 978.082 423.155 980.022 C 429.475 982.012 432.215 991.432 429.265 1001.064 C 426.275 1010.74 418.735 1016.993 412.365 1015.049 C 406.045 1013.064 403.305 1003.641 406.295 993.962 Z" fill="#845F53" transform="matrix(-1, 0, 0, -1, 835.535339, 1995.072144)"/>
  <rect width="20.526" height="31.06" fill="black" fill-opacity="0" x="490.23" y="913.24"/>
  <path d="M 490.312 927.882 C 491.022 919.347 496.212 912.798 501.822 913.263 C 507.422 913.727 511.382 921.079 510.672 929.656 C 509.952 938.191 504.772 944.741 499.162 944.276 C 493.552 943.811 489.592 936.459 490.312 927.882 Z" fill="#845F53" transform="matrix(-1, 0, 0, -1, 1000.981812, 1857.53894)"/>
  <rect width="20.526" height="31.06" fill="black" fill-opacity="0" x="433.83" y="902.085"/>
  <path d="M 433.918 916.727 C 434.638 908.192 439.828 901.643 445.428 902.108 C 451.038 902.573 454.998 909.925 454.278 918.502 C 453.568 927.037 448.378 933.586 442.778 933.122 C 437.168 932.614 433.208 925.305 433.918 916.727 Z" fill="#845F53" transform="matrix(-1, 0, 0, -1, 888.198181, 1835.229858)"/>
  <rect width="16.956" height="25.643" fill="black" fill-opacity="0" x="449.57" y="825.148"/>
  <path d="M 449.641 837.252 C 450.231 830.195 454.491 824.787 459.131 825.167 C 463.761 825.547 467.051 831.632 466.461 838.688 C 465.831 845.744 461.571 851.153 456.941 850.772 C 452.301 850.392 449.051 844.308 449.641 837.252 Z" fill="#845F53" transform="matrix(-1, 0, 0, -1, 916.101318, 1675.939087)"/>
  <rect width="16.89" height="25.697" fill="black" fill-opacity="0" x="501.6" y="834.289"/>
  <path d="M 501.614 846.8 C 501.914 839.702 505.874 834.124 510.554 834.293 C 515.184 834.505 518.724 840.378 518.474 847.476 C 518.184 854.575 514.174 860.152 509.534 859.983 C 504.864 859.814 501.324 853.898 501.614 846.8 Z" fill="#845F53" transform="matrix(-1, 0, 0, -1, 1020.083862, 1694.276001)"/>
  <rect width="12.897" height="19.585" fill="black" fill-opacity="0" x="505.7" y="762.495"/>
  <path d="M 505.749 771.802 C 506.129 766.436 509.329 762.253 512.869 762.506 C 516.409 762.76 518.939 767.365 518.559 772.774 C 518.179 778.14 514.979 782.323 511.439 782.069 C 507.899 781.816 505.319 777.21 505.749 771.802 Z" fill="#845F53" transform="matrix(-1, 0, 0, -1, 1024.29895, 1544.574951)"/>
  <rect width="12.897" height="19.585" fill="black" fill-opacity="0" x="468.69" y="756.537"/>
  <path d="M 468.723 765.886 C 469.103 760.478 472.313 756.295 475.853 756.548 C 479.393 756.802 481.963 761.407 481.543 766.816 C 481.163 772.182 477.953 776.365 474.413 776.111 C 470.873 775.858 468.343 771.252 468.723 765.886 Z" fill="#845F53" transform="matrix(-1, 0, 0, -1, 950.273254, 1532.659058)"/>
  <rect width="10.416" height="15.888" fill="black" fill-opacity="0" x="507" y="704.197"/>
  <path d="M 507 712.225 C 506.92 707.873 509.15 704.239 512.06 704.197 C 514.93 704.155 517.33 707.662 517.42 712.056 C 517.5 716.408 515.22 720.042 512.36 720.084 C 509.49 720.126 507.09 716.619 507 712.225 Z" fill="#845F53" transform="matrix(-1, 0, 0, -1, 1024.419922, 1424.281006)"/>
  <rect width="10.416" height="15.888" fill="black" fill-opacity="0" x="476.65" y="700.647"/>
  <path d="M 476.659 708.507 C 476.749 704.113 479.149 700.606 482.019 700.648 C 484.879 700.733 487.159 704.324 487.069 708.718 C 486.989 713.07 484.589 716.577 481.719 716.535 C 478.849 716.493 476.579 712.901 476.659 708.507 Z" fill="#845F53" transform="matrix(-1, 0, 0, -1, 963.728516, 1417.182983)"/>
  <rect width="8.942" height="13.577" fill="black" fill-opacity="0" x="471.15" y="659.698"/>
  <path d="M 471.178 666.804 C 470.928 663.043 472.698 659.874 475.178 659.705 C 477.628 659.536 479.818 662.409 480.068 666.17 C 480.328 669.93 478.558 673.099 476.108 673.268 C 473.618 673.437 471.428 670.522 471.178 666.804 Z" fill="#845F53" transform="matrix(-1, 0, 0, -1, 951.247803, 1332.9729)"/>
  <rect width="9.144" height="13.468" fill="black" fill-opacity="0" x="500.28" y="658.848"/>
  <path d="M 500.47 666.432 C 499.75 662.756 501.15 659.376 503.55 658.911 C 505.99 658.404 508.52 661.024 509.24 664.7 C 509.96 668.418 508.56 671.798 506.16 672.263 C 503.72 672.728 501.19 670.108 500.47 666.432 Z" fill="#845F53" transform="matrix(-1, 0, 0, -1, 1009.709961, 1331.164673)"/>
  <rect width="9.467" height="13.222" fill="black" fill-opacity="0" x="479.51" y="615.236"/>
  <path d="M 479.991 623.241 C 478.851 619.649 479.821 616.142 482.141 615.382 C 484.501 614.621 487.321 616.903 488.501 620.452 C 489.641 624.043 488.671 627.55 486.311 628.311 C 483.991 629.071 481.131 626.79 479.991 623.241 Z" fill="#845F53" transform="matrix(-1, 0, 0, -1, 968.491089, 1243.692627)"/>
  <rect width="22.539" height="29.885" fill="black" fill-opacity="0" x="458.45" y="569.333"/>
  <path d="M 460.389 588.409 C 456.889 580.465 458.279 572.184 463.429 569.902 C 468.609 567.663 475.609 572.226 479.059 580.17 C 482.559 588.071 481.169 596.352 476.029 598.634 C 470.839 600.916 463.849 596.31 460.389 588.409 Z" fill="#FFC0AA" transform="matrix(-1, 0, 0, -1, 939.448547, 1168.551514)"/>
  <rect width="24.471" height="36.634" fill="black" fill-opacity="0" x="490.15" y="647.223"/>
  <path d="M 490.526 667.488 C 488.876 657.431 492.836 648.389 499.376 647.333 C 505.906 646.234 512.566 653.502 514.256 663.558 C 515.896 673.614 511.896 682.656 505.356 683.755 C 498.826 684.811 492.166 677.544 490.526 667.488 Z" fill="#FFC0AA" transform="matrix(-1, 0, 0, -1, 1004.775513, 1331.079956)"/>
  <rect width="21.378" height="30.359" fill="black" fill-opacity="0" x="475.96" y="606.265"/>
  <path d="M 476.959 624.382 C 474.469 616.185 476.789 608.157 482.139 606.551 C 487.499 604.945 493.859 610.269 496.349 618.509 C 498.839 626.748 496.469 634.734 491.119 636.339 C 485.769 637.945 479.399 632.621 476.959 624.382 Z" fill="#FFC0AA" transform="matrix(-1, 0, 0, -1, 973.29895, 1242.890015)"/>
  <rect width="17.622" height="25.092" fill="black" fill-opacity="0" x="455.46" y="615.448"/>
  <path d="M 456.23 630.381 C 454.25 623.578 456.23 616.987 460.66 615.677 C 465.09 614.367 470.31 618.804 472.29 625.607 C 474.32 632.409 472.34 639.001 467.91 640.311 C 463.48 641.62 458.26 637.184 456.23 630.381 Z" fill="#FFC0AA" transform="matrix(-1, 0, 0, -1, 928.550171, 1255.987671)"/>
  <rect width="18.135" height="24.739" fill="black" fill-opacity="0" x="442.02" y="582.731"/>
  <path d="M 443.273 598.1 C 440.743 591.509 442.173 584.791 446.473 583.101 C 450.773 581.453 456.343 585.467 458.913 592.1 C 461.443 598.692 460.003 605.41 455.703 607.1 C 451.363 608.748 445.803 604.734 443.273 598.1 Z" fill="#FFC0AA" transform="matrix(-1, 0, 0, -1, 902.18335, 1190.20105)"/>
  <rect width="22.539" height="29.861" fill="black" fill-opacity="0" x="435.38" y="537.686"/>
  <path d="M 437.291 556.738 C 433.831 548.795 435.181 540.513 440.361 538.274 C 445.511 535.992 452.501 540.555 456.001 548.499 C 459.461 556.442 458.111 564.682 452.921 566.963 C 447.781 569.245 440.741 564.639 437.291 556.738 Z" fill="#FFC0AA" transform="matrix(-1, 0, 0, -1, 893.291443, 1105.233887)"/>
  <rect width="8.983" height="13.577" fill="black" fill-opacity="0" x="497.96" y="658.937"/>
  <path d="M 497.98 666.042 C 497.73 662.282 499.54 659.113 501.98 658.944 C 504.43 658.775 506.66 661.69 506.92 665.408 C 507.17 669.169 505.4 672.338 502.91 672.507 C 500.47 672.676 498.27 669.802 497.98 666.042 Z" fill="#845F53" transform="matrix(-1, 0, 0, -1, 1004.900452, 1331.45105)"/>
  <rect width="9.374" height="13.3" fill="black" fill-opacity="0" x="481.9" y="613.986"/>
  <path d="M 482.3 621.917 C 481.25 618.284 482.3 614.819 484.66 614.101 C 487.06 613.424 489.8 615.791 490.86 619.382 C 491.91 622.974 490.86 626.481 488.49 627.157 C 486.13 627.875 483.35 625.509 482.3 621.917 Z" fill="#845F53" transform="matrix(-1, 0, 0, -1, 973.159851, 1241.270874)"/>
  <rect width="9.767" height="12.993" fill="black" fill-opacity="0" x="464.68" y="577.492"/>
  <path d="M 465.463 585.721 C 463.983 582.256 464.663 578.665 466.933 577.735 C 469.213 576.763 472.203 578.792 473.683 582.256 C 475.113 585.721 474.483 589.27 472.203 590.242 C 469.923 591.214 466.893 589.186 465.463 585.721 Z" fill="#845F53" transform="matrix(-1, 0, 0, -1, 939.123474, 1167.977051)"/>
  <rect width="9.733" height="13.039" fill="black" fill-opacity="0" x="442.1" y="545.781"/>
  <path d="M 442.823 553.991 C 441.433 550.527 442.103 546.935 444.383 546.006 C 446.653 545.076 449.693 547.104 451.083 550.611 C 452.513 554.076 451.843 557.625 449.523 558.597 C 447.243 559.526 444.253 557.456 442.823 553.991 Z" fill="#845F53" transform="matrix(-1, 0, 0, -1, 893.93335, 1104.599731)"/>
  <rect width="7.357" height="10.46" fill="black" fill-opacity="0" x="460.19" y="622.173"/>
  <path d="M 460.51 628.395 C 459.67 625.564 460.51 622.818 462.37 622.269 C 464.22 621.719 466.42 623.578 467.22 626.409 C 468.06 629.24 467.22 631.987 465.36 632.536 C 463.51 633.085 461.32 631.226 460.51 628.395 Z" fill="#845F53" transform="matrix(-1, 0, 0, -1, 927.730042, 1254.804688)"/>
  <rect width="7.374" height="10.418" fill="black" fill-opacity="0" x="447.2" y="589.638"/>
  <path d="M 447.511 595.819 C 446.701 593.03 447.551 590.284 449.401 589.734 C 451.261 589.185 453.411 591.044 454.251 593.875 C 455.091 596.706 454.251 599.41 452.391 599.96 C 450.541 600.509 448.351 598.65 447.511 595.819 Z" fill="#845F53" transform="matrix(-1, 0, 0, -1, 901.781372, 1189.694092)"/>
  <path d="M 440.657 1823.769 C 231.62 1850.589 60.454 1815.309 1 1765.019 L 1 1527.999 L 1921 1527.999 L 1921 1636.319 C 1909.34 1624.339 1875.53 1603.869 1808.5 1601.379 C 1596.42 1593.489 1427.61 1874.269 1106.5 1717.849 C 739.5 1539.059 701.952 1790.239 440.657 1823.769 Z" transform="matrix(-1, 0, 0, -1, 1922, 3360.999756)"/>
</svg>