<?xml version="1.0" encoding="utf-8"?>
<svg viewBox="619.595 0 1300.405 684" fill="none" xmlns="http://www.w3.org/2000/svg">
  <path d="M805.642 608.22C806.542 608.22 807.382 608.388 808.162 608.724C808.942 609.048 809.626 609.504 810.214 610.092C810.814 610.668 811.282 611.346 811.618 612.126C811.954 612.894 812.122 613.728 812.122 614.628C812.122 615.528 811.954 616.368 811.618 617.148C811.282 617.928 810.814 618.612 810.214 619.2C809.626 619.788 808.942 620.25 808.162 620.586C807.382 620.922 806.542 621.09 805.642 621.09C804.742 621.09 803.902 620.922 803.122 620.586C802.342 620.25 801.658 619.788 801.07 619.2C800.482 618.612 800.02 617.928 799.684 617.148C799.348 616.368 799.18 615.528 799.18 614.628C799.18 613.728 799.348 612.894 799.684 612.126C800.02 611.346 800.482 610.668 801.07 610.092C801.658 609.504 802.342 609.048 803.122 608.724C803.902 608.388 804.742 608.22 805.642 608.22ZM805.966 610.884C806.314 610.884 806.644 610.92 806.956 610.992C807.28 611.064 807.538 611.154 807.73 611.262C807.922 611.358 808.018 611.454 808.018 611.55C808.018 611.61 807.994 611.694 807.946 611.802C807.91 611.898 807.862 611.988 807.802 612.072C807.742 612.144 807.688 612.18 807.64 612.18C807.604 612.18 807.52 612.138 807.388 612.054C807.256 611.97 807.07 611.892 806.83 611.82C806.602 611.736 806.32 611.694 805.984 611.694C805.12 611.694 804.478 611.934 804.058 612.414C803.65 612.894 803.446 613.662 803.446 614.718C803.446 615.75 803.65 616.512 804.058 617.004C804.466 617.484 805.09 617.724 805.93 617.724C806.302 617.724 806.614 617.682 806.866 617.598C807.13 617.502 807.334 617.412 807.478 617.328C807.634 617.232 807.736 617.184 807.784 617.184C807.832 617.184 807.886 617.226 807.946 617.31C808.006 617.382 808.054 617.466 808.09 617.562C808.138 617.646 808.162 617.712 808.162 617.76C808.162 617.856 808.06 617.964 807.856 618.084C807.664 618.204 807.4 618.312 807.064 618.408C806.728 618.492 806.35 618.534 805.93 618.534C804.766 618.534 803.896 618.228 803.32 617.616C802.756 616.992 802.474 616.026 802.474 614.718C802.474 612.162 803.638 610.884 805.966 610.884ZM805.642 609.084C804.874 609.084 804.148 609.228 803.464 609.516C802.792 609.792 802.198 610.188 801.682 610.704C801.178 611.208 800.776 611.796 800.476 612.468C800.188 613.14 800.044 613.86 800.044 614.628C800.044 615.396 800.188 616.122 800.476 616.806C800.776 617.478 801.178 618.072 801.682 618.588C802.198 619.092 802.792 619.494 803.464 619.794C804.148 620.082 804.874 620.226 805.642 620.226C806.422 620.226 807.148 620.082 807.82 619.794C808.504 619.494 809.098 619.092 809.602 618.588C810.118 618.072 810.52 617.478 810.808 616.806C811.108 616.122 811.258 615.396 811.258 614.628C811.258 613.86 811.108 613.14 810.808 612.468C810.52 611.796 810.118 611.208 809.602 610.704C809.098 610.188 808.504 609.792 807.82 609.516C807.148 609.228 806.422 609.084 805.642 609.084ZM835.009 608.364C835.189 608.364 835.345 608.388 835.477 608.436C835.609 608.472 835.693 608.544 835.729 608.652L839.995 620.496C840.031 620.592 840.049 620.67 840.049 620.73C840.049 620.934 839.791 621.036 839.275 621.036H839.131C838.951 621.036 838.795 621.018 838.663 620.982C838.531 620.934 838.447 620.856 838.411 620.748L837.349 617.796H832.057L831.031 620.748C830.995 620.856 830.911 620.934 830.779 620.982C830.647 621.018 830.491 621.036 830.311 621.036H830.221C829.705 621.036 829.447 620.934 829.447 620.73C829.447 620.694 829.453 620.658 829.465 620.622C829.477 620.586 829.489 620.538 829.501 620.478L833.767 608.652C833.803 608.544 833.887 608.472 834.019 608.436C834.151 608.388 834.307 608.364 834.487 608.364H835.009ZM834.757 610.02H834.721C834.685 610.188 834.643 610.362 834.595 610.542C834.559 610.722 834.511 610.896 834.451 611.064L832.561 616.428H836.863L834.973 611.064C834.913 610.896 834.865 610.722 834.829 610.542C834.805 610.362 834.781 610.188 834.757 610.02ZM849.18 608.364C849.66 608.364 849.9 608.496 849.9 608.76V619.632H854.85C855.09 619.632 855.21 619.812 855.21 620.172V620.46C855.21 620.82 855.09 621 854.85 621H848.856C848.496 621 848.316 620.82 848.316 620.46V608.76C848.316 608.496 848.556 608.364 849.036 608.364H849.18ZM864.199 608.364C864.679 608.364 864.919 608.496 864.919 608.76V619.632H869.869C870.109 619.632 870.229 619.812 870.229 620.172V620.46C870.229 620.82 870.109 621 869.869 621H863.875C863.515 621 863.335 620.82 863.335 620.46V608.76C863.335 608.496 863.575 608.364 864.055 608.364H864.199ZM892.542 608.4C893.946 608.4 895.02 608.646 895.764 609.138C896.508 609.63 896.88 610.446 896.88 611.586C896.88 612.366 896.694 613.008 896.322 613.512C895.95 614.004 895.446 614.376 894.81 614.628V614.7C895.182 614.82 895.488 615.078 895.728 615.474C895.968 615.87 896.202 616.362 896.43 616.95L897.834 620.496C897.87 620.604 897.888 620.688 897.888 620.748C897.888 620.94 897.636 621.036 897.132 621.036H896.952C896.772 621.036 896.616 621.012 896.484 620.964C896.352 620.916 896.268 620.844 896.232 620.748L894.864 617.22C894.6 616.524 894.264 616.056 893.856 615.816C893.448 615.576 892.89 615.456 892.182 615.456H890.562V620.64C890.562 620.904 890.322 621.036 889.842 621.036H889.698C889.218 621.036 888.978 620.904 888.978 620.64V608.94C888.978 608.58 889.158 608.4 889.518 608.4H892.542ZM892.812 609.768H890.562V614.088H892.938C893.37 614.088 893.76 613.986 894.108 613.782C894.456 613.578 894.732 613.308 894.936 612.972C895.14 612.636 895.242 612.27 895.242 611.874C895.242 611.142 895.02 610.608 894.576 610.272C894.132 609.936 893.544 609.768 892.812 609.768ZM907.128 608.364C907.608 608.364 907.848 608.496 907.848 608.76V620.64C907.848 620.904 907.608 621.036 907.128 621.036H906.984C906.504 621.036 906.264 620.904 906.264 620.64V608.76C906.264 608.496 906.504 608.364 906.984 608.364H907.128ZM922.756 608.292C923.2 608.292 923.626 608.328 924.034 608.4C924.454 608.472 924.826 608.562 925.15 608.67C925.474 608.778 925.726 608.898 925.906 609.03C926.098 609.162 926.194 609.288 926.194 609.408C926.194 609.504 926.158 609.636 926.086 609.804C926.014 609.972 925.93 610.122 925.834 610.254C925.738 610.386 925.654 610.452 925.582 610.452C925.51 610.452 925.366 610.386 925.15 610.254C924.934 610.122 924.628 609.99 924.232 609.858C923.848 609.726 923.368 609.66 922.792 609.66C921.724 609.66 920.884 609.858 920.272 610.254C919.66 610.65 919.222 611.22 918.958 611.964C918.694 612.708 918.562 613.602 918.562 614.646C918.562 615.33 918.622 615.984 918.742 616.608C918.862 617.22 919.072 617.76 919.372 618.228C919.672 618.696 920.08 619.068 920.596 619.344C921.124 619.608 921.79 619.74 922.594 619.74C923.062 619.74 923.506 619.716 923.926 619.668C924.346 619.62 924.676 619.566 924.916 619.506V615.87H922.81C922.57 615.87 922.45 615.69 922.45 615.33V615.042C922.45 614.682 922.57 614.502 922.81 614.502H925.96C926.32 614.502 926.5 614.682 926.5 615.042V619.812C926.5 620.064 926.386 620.274 926.158 620.442C925.942 620.61 925.642 620.742 925.258 620.838C924.886 620.934 924.46 621 923.98 621.036C923.5 621.084 923.002 621.108 922.486 621.108C920.698 621.108 919.324 620.592 918.364 619.56C917.404 618.528 916.924 616.944 916.924 614.808C916.924 612.564 917.422 610.92 918.418 609.876C919.426 608.82 920.872 608.292 922.756 608.292ZM945.002 608.364C945.482 608.364 945.722 608.496 945.722 608.76V620.64C945.722 620.904 945.482 621.036 945.002 621.036H944.858C944.378 621.036 944.138 620.904 944.138 620.64V615.222H937.622V620.64C937.622 620.904 937.382 621.036 936.902 621.036H936.758C936.278 621.036 936.038 620.904 936.038 620.64V608.76C936.038 608.496 936.278 608.364 936.758 608.364H936.902C937.382 608.364 937.622 608.496 937.622 608.76V613.854H944.138V608.76C944.138 608.496 944.378 608.364 944.858 608.364H945.002ZM962.955 608.4C963.195 608.4 963.315 608.58 963.315 608.94V609.228C963.315 609.588 963.195 609.768 962.955 609.768H959.553V620.64C959.553 620.904 959.313 621.036 958.833 621.036H958.689C958.209 621.036 957.969 620.904 957.969 620.64V609.768H954.513C954.273 609.768 954.153 609.588 954.153 609.228V608.94C954.153 608.58 954.273 608.4 954.513 608.4H962.955ZM974.868 608.292C975.12 608.292 975.408 608.322 975.732 608.382C976.068 608.43 976.392 608.502 976.704 608.598C977.016 608.694 977.268 608.814 977.46 608.958C977.664 609.09 977.766 609.234 977.766 609.39C977.766 609.474 977.73 609.594 977.658 609.75C977.586 609.906 977.502 610.044 977.406 610.164C977.322 610.284 977.25 610.344 977.19 610.344C977.106 610.344 976.968 610.29 976.776 610.182C976.584 610.062 976.332 609.948 976.02 609.84C975.708 609.72 975.312 609.66 974.832 609.66C974.376 609.66 973.974 609.738 973.626 609.894C973.278 610.05 973.002 610.278 972.798 610.578C972.606 610.878 972.51 611.25 972.51 611.694C972.51 612.138 972.624 612.486 972.852 612.738C973.08 612.99 973.38 613.194 973.752 613.35C974.124 613.506 974.526 613.668 974.958 613.836C975.354 613.992 975.75 614.166 976.146 614.358C976.554 614.538 976.926 614.766 977.262 615.042C977.598 615.318 977.862 615.666 978.054 616.086C978.258 616.494 978.36 617.004 978.36 617.616C978.36 618.156 978.264 618.642 978.072 619.074C977.892 619.506 977.622 619.872 977.262 620.172C976.914 620.472 976.494 620.706 976.002 620.874C975.522 621.03 974.976 621.108 974.364 621.108C973.668 621.108 973.038 621.036 972.474 620.892C971.91 620.736 971.46 620.556 971.124 620.352C970.8 620.136 970.638 619.95 970.638 619.794C970.638 619.698 970.674 619.572 970.746 619.416C970.83 619.26 970.92 619.122 971.016 619.002C971.112 618.882 971.196 618.822 971.268 618.822C971.34 618.822 971.502 618.9 971.754 619.056C972.006 619.212 972.348 619.368 972.78 619.524C973.212 619.668 973.74 619.74 974.364 619.74C974.82 619.74 975.222 619.656 975.57 619.488C975.93 619.308 976.212 619.062 976.416 618.75C976.62 618.426 976.722 618.048 976.722 617.616C976.722 617.136 976.59 616.752 976.326 616.464C976.074 616.164 975.738 615.918 975.318 615.726C974.898 615.534 974.46 615.348 974.004 615.168C973.62 615.024 973.242 614.868 972.87 614.7C972.498 614.52 972.162 614.304 971.862 614.052C971.562 613.8 971.322 613.482 971.142 613.098C970.962 612.702 970.872 612.21 970.872 611.622C970.872 610.974 971.034 610.404 971.358 609.912C971.694 609.408 972.162 609.012 972.762 608.724C973.362 608.436 974.064 608.292 974.868 608.292ZM1001.21 608.4C1002.61 608.4 1003.68 608.646 1004.43 609.138C1005.17 609.63 1005.54 610.446 1005.54 611.586C1005.54 612.366 1005.36 613.008 1004.99 613.512C1004.61 614.004 1004.11 614.376 1003.47 614.628V614.7C1003.85 614.82 1004.15 615.078 1004.39 615.474C1004.63 615.87 1004.87 616.362 1005.09 616.95L1006.5 620.496C1006.53 620.604 1006.55 620.688 1006.55 620.748C1006.55 620.94 1006.3 621.036 1005.8 621.036H1005.62C1005.44 621.036 1005.28 621.012 1005.15 620.964C1005.02 620.916 1004.93 620.844 1004.9 620.748L1003.53 617.22C1003.26 616.524 1002.93 616.056 1002.52 615.816C1002.11 615.576 1001.55 615.456 1000.85 615.456H999.226V620.64C999.226 620.904 998.986 621.036 998.506 621.036H998.362C997.882 621.036 997.642 620.904 997.642 620.64V608.94C997.642 608.58 997.822 608.4 998.182 608.4H1001.21ZM1001.48 609.768H999.226V614.088H1001.6C1002.03 614.088 1002.42 613.986 1002.77 613.782C1003.12 613.578 1003.4 613.308 1003.6 612.972C1003.8 612.636 1003.91 612.27 1003.91 611.874C1003.91 611.142 1003.68 610.608 1003.24 610.272C1002.8 609.936 1002.21 609.768 1001.48 609.768ZM1021.75 608.4C1021.99 608.4 1022.11 608.58 1022.11 608.94V609.228C1022.11 609.588 1021.99 609.768 1021.75 609.768H1016.51V613.872H1021.21C1021.45 613.872 1021.57 614.052 1021.57 614.412V614.7C1021.57 615.06 1021.45 615.24 1021.21 615.24H1016.51V619.632H1021.77C1022.01 619.632 1022.13 619.812 1022.13 620.172V620.46C1022.13 620.82 1022.01 621 1021.77 621H1015.47C1015.11 621 1014.93 620.82 1014.93 620.46V608.94C1014.93 608.58 1015.11 608.4 1015.47 608.4H1021.75ZM1034.2 608.292C1034.46 608.292 1034.74 608.322 1035.07 608.382C1035.4 608.43 1035.73 608.502 1036.04 608.598C1036.35 608.694 1036.6 608.814 1036.8 608.958C1037 609.09 1037.1 609.234 1037.1 609.39C1037.1 609.474 1037.07 609.594 1036.99 609.75C1036.92 609.906 1036.84 610.044 1036.74 610.164C1036.66 610.284 1036.59 610.344 1036.53 610.344C1036.44 610.344 1036.3 610.29 1036.11 610.182C1035.92 610.062 1035.67 609.948 1035.36 609.84C1035.04 609.72 1034.65 609.66 1034.17 609.66C1033.71 609.66 1033.31 609.738 1032.96 609.894C1032.61 610.05 1032.34 610.278 1032.13 610.578C1031.94 610.878 1031.85 611.25 1031.85 611.694C1031.85 612.138 1031.96 612.486 1032.19 612.738C1032.42 612.99 1032.72 613.194 1033.09 613.35C1033.46 613.506 1033.86 613.668 1034.29 613.836C1034.69 613.992 1035.09 614.166 1035.48 614.358C1035.89 614.538 1036.26 614.766 1036.6 615.042C1036.93 615.318 1037.2 615.666 1037.39 616.086C1037.59 616.494 1037.7 617.004 1037.7 617.616C1037.7 618.156 1037.6 618.642 1037.41 619.074C1037.23 619.506 1036.96 619.872 1036.6 620.172C1036.25 620.472 1035.83 620.706 1035.34 620.874C1034.86 621.03 1034.31 621.108 1033.7 621.108C1033 621.108 1032.37 621.036 1031.81 620.892C1031.25 620.736 1030.8 620.556 1030.46 620.352C1030.14 620.136 1029.97 619.95 1029.97 619.794C1029.97 619.698 1030.01 619.572 1030.08 619.416C1030.17 619.26 1030.26 619.122 1030.35 619.002C1030.45 618.882 1030.53 618.822 1030.6 618.822C1030.68 618.822 1030.84 618.9 1031.09 619.056C1031.34 619.212 1031.68 619.368 1032.12 619.524C1032.55 619.668 1033.08 619.74 1033.7 619.74C1034.16 619.74 1034.56 619.656 1034.91 619.488C1035.27 619.308 1035.55 619.062 1035.75 618.75C1035.96 618.426 1036.06 618.048 1036.06 617.616C1036.06 617.136 1035.93 616.752 1035.66 616.464C1035.41 616.164 1035.07 615.918 1034.65 615.726C1034.23 615.534 1033.8 615.348 1033.34 615.168C1032.96 615.024 1032.58 614.868 1032.21 614.7C1031.83 614.52 1031.5 614.304 1031.2 614.052C1030.9 613.8 1030.66 613.482 1030.48 613.098C1030.3 612.702 1030.21 612.21 1030.21 611.622C1030.21 610.974 1030.37 610.404 1030.69 609.912C1031.03 609.408 1031.5 609.012 1032.1 608.724C1032.7 608.436 1033.4 608.292 1034.2 608.292ZM1053.18 608.4C1053.42 608.4 1053.54 608.58 1053.54 608.94V609.228C1053.54 609.588 1053.42 609.768 1053.18 609.768H1047.94V613.872H1052.64C1052.88 613.872 1053 614.052 1053 614.412V614.7C1053 615.06 1052.88 615.24 1052.64 615.24H1047.94V619.632H1053.19C1053.43 619.632 1053.55 619.812 1053.55 620.172V620.46C1053.55 620.82 1053.43 621 1053.19 621H1046.89C1046.53 621 1046.35 620.82 1046.35 620.46V608.94C1046.35 608.58 1046.53 608.4 1046.89 608.4H1053.18ZM1066.04 608.4C1067.45 608.4 1068.52 608.646 1069.27 609.138C1070.01 609.63 1070.38 610.446 1070.38 611.586C1070.38 612.366 1070.2 613.008 1069.82 613.512C1069.45 614.004 1068.95 614.376 1068.31 614.628V614.7C1068.68 614.82 1068.99 615.078 1069.23 615.474C1069.47 615.87 1069.7 616.362 1069.93 616.95L1071.34 620.496C1071.37 620.604 1071.39 620.688 1071.39 620.748C1071.39 620.94 1071.14 621.036 1070.63 621.036H1070.45C1070.27 621.036 1070.12 621.012 1069.99 620.964C1069.85 620.916 1069.77 620.844 1069.73 620.748L1068.37 617.22C1068.1 616.524 1067.77 616.056 1067.36 615.816C1066.95 615.576 1066.39 615.456 1065.68 615.456H1064.06V620.64C1064.06 620.904 1063.82 621.036 1063.34 621.036H1063.2C1062.72 621.036 1062.48 620.904 1062.48 620.64V608.94C1062.48 608.58 1062.66 608.4 1063.02 608.4H1066.04ZM1066.31 609.768H1064.06V614.088H1066.44C1066.87 614.088 1067.26 613.986 1067.61 613.782C1067.96 613.578 1068.23 613.308 1068.44 612.972C1068.64 612.636 1068.74 612.27 1068.74 611.874C1068.74 611.142 1068.52 610.608 1068.08 610.272C1067.63 609.936 1067.05 609.768 1066.31 609.768ZM1087.98 608.364C1088.49 608.364 1088.75 608.466 1088.75 608.67C1088.75 608.73 1088.73 608.814 1088.7 608.922L1084.57 620.748C1084.54 620.856 1084.45 620.934 1084.32 620.982C1084.19 621.018 1084.03 621.036 1083.85 621.036H1083.3C1083.12 621.036 1082.96 621.018 1082.83 620.982C1082.7 620.934 1082.61 620.856 1082.58 620.748L1078.45 608.904C1078.43 608.856 1078.41 608.814 1078.4 608.778C1078.4 608.742 1078.4 608.706 1078.4 608.67C1078.4 608.466 1078.66 608.364 1079.17 608.364H1079.34C1079.52 608.364 1079.67 608.388 1079.8 608.436C1079.94 608.472 1080.02 608.544 1080.06 608.652L1083.39 618.264L1083.57 619.2H1083.62L1083.82 618.246L1087.15 608.652C1087.18 608.544 1087.27 608.472 1087.4 608.436C1087.53 608.388 1087.69 608.364 1087.87 608.364H1087.98ZM1104 608.4C1104.24 608.4 1104.36 608.58 1104.36 608.94V609.228C1104.36 609.588 1104.24 609.768 1104 609.768H1098.76V613.872H1103.46C1103.7 613.872 1103.82 614.052 1103.82 614.412V614.7C1103.82 615.06 1103.7 615.24 1103.46 615.24H1098.76V619.632H1104.02C1104.26 619.632 1104.38 619.812 1104.38 620.172V620.46C1104.38 620.82 1104.26 621 1104.02 621H1097.72C1097.36 621 1097.18 620.82 1097.18 620.46V608.94C1097.18 608.58 1097.36 608.4 1097.72 608.4H1104ZM1117.48 608.4C1118.51 608.4 1119.45 608.604 1120.29 609.012C1121.13 609.408 1121.79 610.068 1122.28 610.992C1122.79 611.904 1123.04 613.14 1123.04 614.7C1123.04 615.876 1122.9 616.866 1122.61 617.67C1122.32 618.474 1121.92 619.122 1121.42 619.614C1120.92 620.094 1120.33 620.448 1119.66 620.676C1118.98 620.892 1118.26 621 1117.48 621H1113.84C1113.48 621 1113.3 620.82 1113.3 620.46V608.94C1113.3 608.58 1113.48 608.4 1113.84 608.4H1117.48ZM1117.35 609.768H1114.89V619.632H1117.35C1118.1 619.632 1118.77 619.47 1119.39 619.146C1120.01 618.822 1120.5 618.3 1120.86 617.58C1121.22 616.86 1121.4 615.9 1121.4 614.7C1121.4 613.5 1121.22 612.54 1120.86 611.82C1120.5 611.1 1120.01 610.578 1119.39 610.254C1118.77 609.93 1118.1 609.768 1117.35 609.768Z" fill="#E8E8E8"/>
  <path d="M1638.85 476.454L1626.35 476.454L1626.35 476.454L1638.85 476.454ZM1581.31 412.393C1581.47 405.491 1587.19 400.025 1594.09 400.183C1601 400.341 1606.46 406.065 1606.3 412.966L1581.31 412.393ZM1626.35 657.333V476.454H1651.35V657.333H1626.35ZM1626.35 476.454C1626.35 467.517 1620.5 461.683 1608.52 452.535C1603.27 448.532 1596.43 443.524 1591.23 437.651C1585.68 431.381 1581.06 423.13 1581.31 412.393L1606.3 412.966C1606.25 415.493 1607.11 417.874 1609.95 421.084C1613.14 424.691 1617.59 428.011 1623.69 432.665C1634.38 440.83 1651.35 453.619 1651.35 476.454L1626.35 476.454Z" fill="#42A1A9"/>
  <path d="M1809.41 524.107C1809.41 531.01 1803.81 536.607 1796.91 536.607C1790.01 536.607 1784.41 531.01 1784.41 524.107H1809.41ZM1889.75 300.631L1901.53 296.459L1889.75 300.631ZM1822.55 214.493C1822.62 207.59 1828.27 202.052 1835.18 202.123C1842.08 202.195 1847.62 207.849 1847.55 214.752L1822.55 214.493ZM1784.41 524.107V381.706H1809.41V524.107H1784.41ZM1784.41 381.706C1784.41 374.348 1784.1 360.53 1794.27 349.724C1804.3 339.066 1821.4 334.351 1846.94 334.351V359.351C1823.01 359.351 1815.09 364.08 1812.48 366.859C1810 369.488 1809.41 373.098 1809.41 381.706H1784.41ZM1846.94 334.351C1867.13 334.351 1874.33 328.033 1877.03 323.609C1880.2 318.428 1880.19 311.091 1877.97 304.803L1901.53 296.459C1905.33 307.194 1906.72 322.967 1898.37 336.64C1889.55 351.07 1872.33 359.351 1846.94 359.351V334.351ZM1877.97 304.803C1876.48 300.606 1874.48 299.198 1872.08 298.286C1868.68 296.995 1864.35 296.712 1857.73 296.442C1852.48 296.227 1843.6 296.086 1836.41 292.464C1832.27 290.379 1828.5 287.121 1825.93 282.338C1823.46 277.74 1822.55 272.573 1822.55 267.273H1847.55C1847.55 269.81 1848 270.583 1847.95 270.504C1847.81 270.239 1847.54 270.077 1847.66 270.139C1849 270.813 1851.71 271.174 1858.75 271.462C1864.42 271.694 1873.06 271.914 1880.96 274.918C1889.86 278.301 1897.47 284.982 1901.53 296.459L1877.97 304.803ZM1822.55 267.273C1822.55 250.542 1822.42 227.302 1822.55 214.493L1847.55 214.752C1847.42 227.398 1847.55 250.243 1847.55 267.273H1822.55Z" fill="#64A730"/>
  <ellipse cx="1593.87" cy="412.717" rx="8.87064" ry="8.99398" fill="#EAFFE0"/>
  <path d="M1827.61 218.945C1825.64 214.704 1827.42 209.64 1831.6 207.633C1835.79 205.627 1840.78 207.438 1842.76 211.678C1844.74 215.918 1842.95 220.983 1838.77 222.989C1834.59 224.996 1829.59 223.185 1827.61 218.945Z" fill="#EAFFE0"/>
  <path d="M0 259.284C0 259.284 148.5 266.5 266 310.827C383.5 355.154 467.5 416.491 467.5 416.491C565 478.858 664.312 529.667 780.123 506.119C934.867 474.654 1254.05 445.87 1522 540.71C1638.5 581.944 1772 490.941 1920 445.87V684H0V259.284Z" style="fill: rgb(231, 167, 104);"/>
  <path d="M1880.23 625.25C1880.23 632.154 1874.64 637.75 1867.73 637.75C1860.83 637.75 1855.23 632.154 1855.23 625.25H1880.23ZM1867.73 420.474L1855.23 420.474L1855.23 420.474L1867.73 420.474ZM1707.11 273.794C1709.95 267.499 1717.35 264.696 1723.64 267.531C1729.94 270.367 1732.74 277.768 1729.9 284.063L1707.11 273.794ZM1855.23 625.25L1855.23 420.474H1880.23L1880.23 625.25H1855.23ZM1855.23 420.474C1855.23 412.404 1853.11 408.29 1850.76 405.814C1848.14 403.056 1843.67 400.674 1836.16 399.077C1828.67 397.485 1819.4 396.93 1808.45 396.842C1796.96 396.75 1786.35 397.13 1773.21 397.13V372.13C1784.45 372.13 1797.85 371.757 1808.65 371.843C1819.99 371.934 1831.31 372.488 1841.35 374.623C1851.38 376.754 1861.4 380.715 1868.89 388.603C1876.64 396.774 1880.23 407.608 1880.23 420.474L1855.23 420.474ZM1773.21 397.13C1747.67 397.13 1728.42 392.337 1714.76 383.022C1700.65 373.408 1693.88 359.931 1691.73 345.877C1689.65 332.258 1691.87 318.14 1695.21 305.893C1698.58 293.522 1703.34 282.154 1707.11 273.794L1729.9 284.063C1726.34 291.98 1722.19 301.963 1719.33 312.464C1716.43 323.088 1715.11 333.36 1716.45 342.098C1717.71 350.399 1721.33 357.245 1728.84 362.363C1736.78 367.78 1750.39 372.13 1773.21 372.13V397.13Z" fill="#97D485"/>
  <path d="M1710.7 282.82C1708.72 278.579 1710.51 273.515 1714.69 271.508C1718.87 269.502 1723.87 271.313 1725.85 275.553C1727.82 279.793 1726.04 284.858 1721.86 286.864C1717.67 288.871 1712.68 287.06 1710.7 282.82Z" fill="#42A1A9"/>
  <ellipse cx="673.675" cy="521.609" rx="2.46407" ry="2.49833" fill="black"/>
  <ellipse cx="649.035" cy="516.612" rx="2.46407" ry="2.49833" fill="black"/>
  <ellipse cx="659.877" cy="526.605" rx="2.46407" ry="2.49833" fill="black"/>
  <ellipse cx="627.351" cy="507.618" rx="2.46407" ry="2.49833" fill="black"/>
  <ellipse cx="622.423" cy="531.602" rx="2.46407" ry="2.49833" fill="black"/>
  <ellipse cx="688.46" cy="522.608" rx="2.46407" ry="2.49833" fill="black"/>
  <ellipse cx="660.862" cy="518.611" rx="2.46407" ry="2.49833" fill="black"/>
  <ellipse cx="884.6" cy="523.607" rx="2.46407" ry="2.49833" fill="black"/>
  <ellipse cx="927.967" cy="500.623" rx="2.46407" ry="2.49833" fill="black"/>
  <ellipse cx="1024.56" cy="494.627" rx="2.46407" ry="2.49833" fill="black"/>
  <ellipse cx="956.55" cy="515.613" rx="2.46407" ry="2.49833" fill="black"/>
  <ellipse cx="919.096" cy="497.625" rx="2.46407" ry="2.49833" fill="black"/>
  <ellipse cx="779.138" cy="520.61" rx="2.46407" ry="2.49833" fill="black"/>
  <ellipse cx="812.649" cy="537.598" rx="2.46407" ry="2.49833" fill="black"/>
  <ellipse cx="1099.47" cy="499.623" rx="2.46407" ry="2.49833" fill="black"/>
  <ellipse cx="1088.62" cy="487.631" rx="2.46407" ry="2.49833" fill="black"/>
  <ellipse cx="930.924" cy="533.601" rx="2.46407" ry="2.49833" fill="black"/>
  <ellipse cx="908.255" cy="516.612" rx="2.46407" ry="2.49833" fill="black"/>
  <ellipse cx="835.318" cy="562.581" rx="2.46407" ry="2.49833" fill="black"/>
  <ellipse cx="896.427" cy="507.618" rx="2.46407" ry="2.49833" fill="black"/>
  <ellipse cx="956.55" cy="497.625" rx="2.46407" ry="2.49833" fill="black"/>
  <ellipse cx="807.721" cy="543.594" rx="2.46407" ry="2.49833" fill="black"/>
  <ellipse cx="748.583" cy="569.576" rx="2.46407" ry="2.49833" fill="black"/>
  <ellipse cx="855.031" cy="535.599" rx="2.46407" ry="2.49833" fill="black"/>
  <ellipse cx="835.318" cy="525.606" rx="2.46407" ry="2.49833" fill="black"/>
  <ellipse cx="863.902" cy="516.612" rx="2.46407" ry="2.49833" fill="black"/>
  <ellipse cx="812.649" cy="519.61" rx="2.46407" ry="2.49833" fill="black"/>
  <ellipse cx="847.146" cy="512.615" rx="2.46407" ry="2.49833" fill="black"/>
  <ellipse cx="1297.58" cy="549.59" rx="2.46407" ry="2.49833" fill="black"/>
  <ellipse cx="1447.39" cy="549.59" rx="2.46407" ry="2.49833" fill="black"/>
  <ellipse cx="1295.61" cy="523.607" rx="2.46407" ry="2.49833" fill="black"/>
  <ellipse cx="1336.02" cy="510.616" rx="2.46407" ry="2.49833" fill="black"/>
  <ellipse cx="1273.92" cy="503.62" rx="2.46407" ry="2.49833" fill="black"/>
  <ellipse cx="1184.23" cy="503.62" rx="2.46407" ry="2.49833" fill="black"/>
  <ellipse cx="1184.23" cy="600.556" rx="2.46407" ry="2.49833" fill="black"/>
  <ellipse cx="1164.52" cy="564.58" rx="2.46407" ry="2.49833" fill="black"/>
  <ellipse cx="1121.15" cy="607.551" rx="2.46407" ry="2.49833" fill="black"/>
  <ellipse cx="1619.88" cy="560.582" rx="2.46407" ry="2.49833" fill="black"/>
  <ellipse cx="1657.46" cy="590.498" rx="2.46407" ry="2.49833" fill="black"/>
  <ellipse cx="1681.97" cy="546.592" rx="2.46407" ry="2.49833" fill="black"/>
  <ellipse cx="1657.33" cy="563.58" rx="2.46407" ry="2.49833" fill="black"/>
  <ellipse cx="1750.46" cy="526.498" rx="2.46407" ry="2.49833" fill="black"/>
  <ellipse cx="1826.86" cy="499.623" rx="2.46407" ry="2.49833" fill="black"/>
  <ellipse cx="1793.35" cy="549.59" rx="2.46407" ry="2.49833" fill="black"/>
  <ellipse cx="1661.46" cy="549.498" rx="2.46407" ry="2.49833" fill="black"/>
  <ellipse cx="1696.76" cy="573.574" rx="2.46407" ry="2.49833" fill="black"/>
  <ellipse cx="1730.27" cy="547.591" rx="2.46407" ry="2.49833" fill="black"/>
  <ellipse cx="1631.7" cy="565.579" rx="2.46407" ry="2.49833" fill="black"/>
  <ellipse cx="1685.91" cy="560.582" rx="2.46407" ry="2.49833" fill="black"/>
  <ellipse cx="1822.92" cy="575.573" rx="2.46407" ry="2.49833" fill="black"/>
  <ellipse cx="1426.69" cy="535.599" rx="2.46407" ry="2.49833" fill="black"/>
  <ellipse cx="1449.36" cy="534.6" rx="2.46407" ry="2.49833" fill="black"/>
  <ellipse cx="1412.9" cy="518.611" rx="2.46407" ry="2.49833" fill="black"/>
  <ellipse cx="1553.84" cy="595.559" rx="2.46407" ry="2.49833" fill="black"/>
  <ellipse cx="1548.91" cy="569.576" rx="2.46407" ry="2.49833" fill="black"/>
  <path d="M1710.63 478.495C1710.63 471.592 1716.23 465.995 1723.13 465.995C1730.04 465.995 1735.63 471.592 1735.63 478.495H1710.63ZM1710.63 659.374V478.495H1735.63V659.374H1710.63Z" fill="#42A1A9"/>
  <ellipse cx="1494.7" cy="553.587" rx="2.46407" ry="2.49833" fill="black"/>
  <ellipse cx="1407.97" cy="567.123" rx="2.46407" ry="2.49833" fill="black"/>
  <ellipse cx="1379.38" cy="543.594" rx="2.46407" ry="2.49833" fill="black"/>
  <ellipse cx="1722.99" cy="478.848" rx="8.87064" ry="8.99398" fill="#EAFFE0"/>
  <ellipse cx="1386.28" cy="528.604" rx="2.46407" ry="2.49833" fill="black"/>
  <ellipse cx="1194.09" cy="489.63" rx="2.46407" ry="2.49833" fill="black"/>
  <ellipse cx="1340.94" cy="527.605" rx="2.46407" ry="2.49833" fill="black"/>
  <ellipse cx="1526.24" cy="555.586" rx="2.46407" ry="2.49833" fill="black"/>
  <path d="M324.993 553.99C250.497 525.298 151.317 536.099 0 465.146V683.951C0 683.951 1418.52 684.061 1320.85 683.951C1223.17 683.84 1066.39 632.171 1049.35 626.676C1032.31 621.181 930.848 576.119 713.97 626.676C597.751 653.768 513.71 626.676 324.993 553.99Z" style="fill: rgb(216, 137, 70);"/>
  <ellipse cx="627.351" cy="647.525" rx="2.46407" ry="2.49833" fill="#FF8B64"/>
  <ellipse cx="891.499" cy="620.542" rx="2.46407" ry="2.49833" fill="#FF8B64"/>
  <ellipse cx="881.643" cy="611.548" rx="2.46407" ry="2.49833" fill="#FF8B64"/>
  <ellipse cx="841.232" cy="622.541" rx="2.46407" ry="2.49833" fill="#FF8B64"/>
  <ellipse cx="951.622" cy="617.544" rx="2.46407" ry="2.49833" fill="#FF8B64"/>
  <ellipse cx="938.809" cy="660.516" rx="2.46407" ry="2.49833" fill="#FF8B64"/>
  <ellipse cx="778.152" cy="625.539" rx="2.46407" ry="2.49833" fill="#FF8B64"/>
  <ellipse cx="785.051" cy="638.531" rx="2.46407" ry="2.49833" fill="#FF8B64"/>
  <ellipse cx="1098.48" cy="653.52" rx="2.46407" ry="2.49833" fill="#FF8B64"/>
  <ellipse cx="1360.66" cy="638.531" rx="2.46407" ry="2.49833" fill="#FF8B64"/>
  <ellipse cx="1452.32" cy="648.524" rx="2.46407" ry="2.49833" fill="#FF8B64"/>
  <ellipse cx="1521.31" cy="613.547" rx="2.46407" ry="2.49833" fill="#FF8B64"/>
  <ellipse cx="1477.95" cy="635.533" rx="2.46407" ry="2.49833" fill="#FF8B64"/>
  <ellipse cx="1721.4" cy="642.528" rx="2.46407" ry="2.49833" fill="#FF8B64"/>
  <ellipse cx="1881.07" cy="610.549" rx="2.46407" ry="2.49833" fill="#FF8B64"/>
  <ellipse cx="1745.05" cy="633.534" rx="2.46407" ry="2.49833" fill="#FF8B64"/>
  <ellipse cx="1731.25" cy="627.538" rx="2.46407" ry="2.49833" fill="#FF8B64"/>
  <ellipse cx="1464.15" cy="618.544" rx="2.46407" ry="2.49833" fill="#FF8B64"/>
  <ellipse cx="1575.52" cy="621.542" rx="2.46407" ry="2.49833" fill="#FF8B64"/>
  <ellipse cx="1588.34" cy="631.535" rx="2.46407" ry="2.49833" fill="#FF8B64"/>
  <path d="M1675.5 441C1675.5 434.096 1681.1 428.5 1688 428.5C1694.9 428.5 1700.5 434.096 1700.5 441H1675.5ZM1675.5 621.879V441H1700.5V621.879H1675.5Z" fill="#64A730"/>
  <path d="M1770.68 613.547C1825.87 613.547 1876.63 605.053 1920 584.567V683.95C1920 683.95 1067.51 684.061 1111.29 683.95C1155.08 683.839 892.977 591.062 1026.53 619.543C1160.08 648.024 1369 614.05 1477.95 605.552C1625.3 594.06 1659.78 613.547 1770.68 613.547Z" style="fill: rgb(216, 137, 70);"/>
  <ellipse cx="1687.92" cy="441.382" rx="8.87064" ry="8.99398" fill="#EAFFE0"/>
</svg>