<svg id="visual" viewBox="0 0 1440 500" preserveAspectRatio="xMinYMin slice" width="1440" height="500" xmlns="http://www.w3.org/2000/svg" xmlns:xlink="http://www.w3.org/1999/xlink" version="1.1">
    <rect x="0" y="0" width="1440" height="500" fill="#3C7DA6"></rect>
    <path d="M0 67L30 62C60 57 120 47 180 45.3C240 43.7 300 50.3 360 46.2C420 42 480 27 540 34.3C600 41.7 660 71.3 720 89C780 106.7 840 112.3 900 105.2C960 98 1020 78 1080 71C1140 64 1200 70 1260 76.3C1320 82.7 1380 89.3 1410 92.7L1440 96L1440 501L1410 501C1380 501 1320 501 1260 501C1200 501 1140 501 1080 501C1020 501 960 501 900 501C840 501 780 501 720 501C660 501 600 501 540 501C480 501 420 501 360 501C300 501 240 501 180 501C120 501 60 501 30 501L0 501Z" fill="#3c7da6"></path>
    <path d="M0 90L30 95C60 100 120 110 180 117.5C240 125 300 130 360 130.2C420 130.3 480 125.7 540 123.2C600 120.7 660 120.3 720 107.7C780 95 840 70 900 64C960 58 1020 71 1080 83C1140 95 1200 106 1260 99.8C1320 93.7 1380 70.3 1410 58.7L1440 47L1440 501L1410 501C1380 501 1320 501 1260 501C1200 501 1140 501 1080 501C1020 501 960 501 900 501C840 501 780 501 720 501C660 501 600 501 540 501C480 501 420 501 360 501C300 501 240 501 180 501C120 501 60 501 30 501L0 501Z" fill="#357399"></path>
    <path d="M0 157L30 146C60 135 120 113 180 112.3C240 111.7 300 132.3 360 130.7C420 129 480 105 540 96.5C600 88 660 95 720 97C780 99 840 96 900 102.8C960 109.7 1020 126.3 1080 137C1140 147.7 1200 152.3 1260 151.8C1320 151.3 1380 145.7 1410 142.8L1440 140L1440 501L1410 501C1380 501 1320 501 1260 501C1200 501 1140 501 1080 501C1020 501 960 501 900 501C840 501 780 501 720 501C660 501 600 501 540 501C480 501 420 501 360 501C300 501 240 501 180 501C120 501 60 501 30 501L0 501Z" fill="#2d6a8c"></path>
    <path d="M0 139L30 152.7C60 166.3 120 193.7 180 197.3C240 201 300 181 360 166.8C420 152.7 480 144.3 540 154C600 163.7 660 191.3 720 205.3C780 219.3 840 219.7 900 216C960 212.3 1020 204.7 1080 196.8C1140 189 1200 181 1260 175.7C1320 170.3 1380 167.7 1410 166.3L1440 165L1440 501L1410 501C1380 501 1320 501 1260 501C1200 501 1140 501 1080 501C1020 501 960 501 900 501C840 501 780 501 720 501C660 501 600 501 540 501C480 501 420 501 360 501C300 501 240 501 180 501C120 501 60 501 30 501L0 501Z" fill="#276180"></path>
    <path d="M0 202L30 203.2C60 204.3 120 206.7 180 199C240 191.3 300 173.7 360 173.5C420 173.3 480 190.7 540 191.3C600 192 660 176 720 178C780 180 840 200 900 215.3C960 230.7 1020 241.3 1080 241C1140 240.7 1200 229.3 1260 222.2C1320 215 1380 212 1410 210.5L1440 209L1440 501L1410 501C1380 501 1320 501 1260 501C1200 501 1140 501 1080 501C1020 501 960 501 900 501C840 501 780 501 720 501C660 501 600 501 540 501C480 501 420 501 360 501C300 501 240 501 180 501C120 501 60 501 30 501L0 501Z" fill="#205874"></path>
    <path d="M0 212L30 220C60 228 120 244 180 255.5C240 267 300 274 360 277.8C420 281.7 480 282.3 540 270.8C600 259.3 660 235.7 720 232.3C780 229 840 246 900 249.3C960 252.7 1020 242.3 1080 235.7C1140 229 1200 226 1260 226.3C1320 226.7 1380 230.3 1410 232.2L1440 234L1440 501L1410 501C1380 501 1320 501 1260 501C1200 501 1140 501 1080 501C1020 501 960 501 900 501C840 501 780 501 720 501C660 501 600 501 540 501C480 501 420 501 360 501C300 501 240 501 180 501C120 501 60 501 30 501L0 501Z" fill="#1a4e68"></path>
    <path d="M0 316L30 305.8C60 295.7 120 275.3 180 268.3C240 261.3 300 267.7 360 264.3C420 261 480 248 540 255.2C600 262.3 660 289.7 720 292.8C780 296 840 275 900 263.5C960 252 1020 250 1080 254.8C1140 259.7 1200 271.3 1260 281.7C1320 292 1380 301 1410 305.5L1440 310L1440 501L1410 501C1380 501 1320 501 1260 501C1200 501 1140 501 1080 501C1020 501 960 501 900 501C840 501 780 501 720 501C660 501 600 501 540 501C480 501 420 501 360 501C300 501 240 501 180 501C120 501 60 501 30 501L0 501Z" fill="#14465c"></path>
    <path d="M0 277L30 279.5C60 282 120 287 180 292C240 297 300 302 360 303.5C420 305 480 303 540 304.3C600 305.7 660 310.3 720 308.3C780 306.3 840 297.7 900 296.8C960 296 1020 303 1080 314C1140 325 1200 340 1260 344.3C1320 348.7 1380 342.3 1410 339.2L1440 336L1440 501L1410 501C1380 501 1320 501 1260 501C1200 501 1140 501 1080 501C1020 501 960 501 900 501C840 501 780 501 720 501C660 501 600 501 540 501C480 501 420 501 360 501C300 501 240 501 180 501C120 501 60 501 30 501L0 501Z" fill="#0f3d51"></path>
    <path d="M0 364L30 361.7C60 359.3 120 354.7 180 359.8C240 365 300 380 360 377.7C420 375.3 480 355.7 540 349.2C600 342.7 660 349.3 720 358.7C780 368 840 380 900 381.2C960 382.3 1020 372.7 1080 364.7C1140 356.7 1200 350.3 1260 349.2C1320 348 1380 352 1410 354L1440 356L1440 501L1410 501C1380 501 1320 501 1260 501C1200 501 1140 501 1080 501C1020 501 960 501 900 501C840 501 780 501 720 501C660 501 600 501 540 501C480 501 420 501 360 501C300 501 240 501 180 501C120 501 60 501 30 501L0 501Z" fill="#093445"></path>
    <path d="M0 371L30 375.5C60 380 120 389 180 386C240 383 300 368 360 361.7C420 355.3 480 357.7 540 368.7C600 379.7 660 399.3 720 400.7C780 402 840 385 900 373.8C960 362.7 1020 357.3 1080 360.2C1140 363 1200 374 1260 385.8C1320 397.7 1380 410.3 1410 416.7L1440 423L1440 501L1410 501C1380 501 1320 501 1260 501C1200 501 1140 501 1080 501C1020 501 960 501 900 501C840 501 780 501 720 501C660 501 600 501 540 501C480 501 420 501 360 501C300 501 240 501 180 501C120 501 60 501 30 501L0 501Z" fill="#052c3b"></path>
    <path d="M0 394L30 400.7C60 407.3 120 420.7 180 421.2C240 421.7 300 409.3 360 411.5C420 413.7 480 430.3 540 431C600 431.7 660 416.3 720 414.5C780 412.7 840 424.3 900 434.8C960 445.3 1020 454.7 1080 454.3C1140 454 1200 444 1260 439.7C1320 435.3 1380 436.7 1410 437.3L1440 438L1440 501L1410 501C1380 501 1320 501 1260 501C1200 501 1140 501 1080 501C1020 501 960 501 900 501C840 501 780 501 720 501C660 501 600 501 540 501C480 501 420 501 360 501C300 501 240 501 180 501C120 501 60 501 30 501L0 501Z" fill="#032430"></path>
    <path d="M0 498L30 488.5C60 479 120 460 180 453.7C240 447.3 300 453.7 360 457.5C420 461.3 480 462.7 540 467C600 471.3 660 478.7 720 474.7C780 470.7 840 455.3 900 454.7C960 454 1020 468 1080 473.3C1140 478.7 1200 475.3 1260 476.5C1320 477.7 1380 483.3 1410 486.2L1440 489L1440 501L1410 501C1380 501 1320 501 1260 501C1200 501 1140 501 1080 501C1020 501 960 501 900 501C840 501 780 501 720 501C660 501 600 501 540 501C480 501 420 501 360 501C300 501 240 501 180 501C120 501 60 501 30 501L0 501Z" fill="#011c26"></path>
</svg>