<svg xmlns="http://www.w3.org/2000/svg" preserveAspectRatio="xMinYMin slice" xmlns:xlink="http://www.w3.org/1999/xlink" id="visual" viewBox="0 0 1440 500" width="1440" height="500" version="1.1">
    <rect x="0" y="0" width="1440" height="500" fill="#80e5de"/>
    <path d="M0 113L40 109.5C80 106 160 99 240 101.8C320 104.7 400 117.3 480 119C560 120.7 640 111.3 720 98.2C800 85 880 68 960 60.7C1040 53.3 1120 55.7 1200 67.5C1280 79.3 1360 100.7 1400 111.3L1440 122L1440 501L1400 501C1360 501 1280 501 1200 501C1120 501 1040 501 960 501C880 501 800 501 720 501C640 501 560 501 480 501C400 501 320 501 240 501C160 501 80 501 40 501L0 501Z" fill="#40cacb"/>
    <path d="M0 201L40 205C80 209 160 217 240 212.3C320 207.7 400 190.3 480 179.7C560 169 640 165 720 173C800 181 880 201 960 204.5C1040 208 1120 195 1200 192.8C1280 190.7 1360 199.3 1400 203.7L1440 208L1440 501L1400 501C1360 501 1280 501 1200 501C1120 501 1040 501 960 501C880 501 800 501 720 501C640 501 560 501 480 501C400 501 320 501 240 501C160 501 80 501 40 501L0 501Z" fill="#1bb2c5"/>
    <path d="M0 283L40 284.7C80 286.3 160 289.7 240 279.7C320 269.7 400 246.3 480 246.3C560 246.3 640 269.7 720 272.5C800 275.3 880 257.7 960 258.8C1040 260 1120 280 1200 281.3C1280 282.7 1360 265.3 1400 256.7L1440 248L1440 501L1400 501C1360 501 1280 501 1200 501C1120 501 1040 501 960 501C880 501 800 501 720 501C640 501 560 501 480 501C400 501 320 501 240 501C160 501 80 501 40 501L0 501Z" fill="#009aba"/>
    <path d="M0 371L40 361.7C80 352.3 160 333.7 240 323.5C320 313.3 400 311.7 480 317.5C560 323.3 640 336.7 720 336.2C800 335.7 880 321.3 960 325.8C1040 330.3 1120 353.7 1200 363C1280 372.3 1360 367.7 1400 365.3L1440 363L1440 501L1400 501C1360 501 1280 501 1200 501C1120 501 1040 501 960 501C880 501 800 501 720 501C640 501 560 501 480 501C400 501 320 501 240 501C160 501 80 501 40 501L0 501Z" fill="#0081ac"/>
    <path d="M0 420L40 424.8C80 429.7 160 439.3 240 438.8C320 438.3 400 427.7 480 416.7C560 405.7 640 394.3 720 397C800 399.7 880 416.3 960 423.2C1040 430 1120 427 1200 417.3C1280 407.7 1360 391.3 1400 383.2L1440 375L1440 501L1400 501C1360 501 1280 501 1200 501C1120 501 1040 501 960 501C880 501 800 501 720 501C640 501 560 501 480 501C400 501 320 501 240 501C160 501 80 501 40 501L0 501Z" fill="#00699a"/>
</svg>