<svg xmlns="http://www.w3.org/2000/svg" version="1.1" xmlns:xlink="http://www.w3.org/1999/xlink" xmlns:svgjs="http://svgjs.com/svgjs" width="1440" height="500" preserveAspectRatio="xMidYMid slice" viewBox="0 0 1440 500">
    <g mask="url(&quot;#SvgjsMask1186&quot;)" fill="none">
        <rect width="1440" height="500" x="0" y="0" fill="rgba(62, 137, 123, 1)"></rect>
        <path d="M 0,45 C 41.2,39 123.6,9.4 206,15 C 288.4,20.6 329.6,73.8 412,73 C 494.4,72.2 535.6,10.2 618,11 C 700.4,11.8 741.6,76.8 824,77 C 906.4,77.2 947.6,16.8 1030,12 C 1112.4,7.2 1154,53.8 1236,53 C 1318,52.2 1399.2,17 1440,8L1440 500L0 500z" fill="rgba(44, 92, 103, 1)"></path>
        <path d="M 0,150 C 41.2,143.8 123.6,117.4 206,119 C 288.4,120.6 329.6,159.6 412,158 C 494.4,156.4 535.6,109.2 618,111 C 700.4,112.8 741.6,168.6 824,167 C 906.4,165.4 947.6,105.6 1030,103 C 1112.4,100.4 1154,153 1236,154 C 1318,155 1399.2,117.2 1440,108L1440 500L0 500z" fill="rgba(34, 82, 91, 1)"></path>
        <path d="M 0,184 C 41.2,192 123.6,222.6 206,224 C 288.4,225.4 329.6,190.2 412,191 C 494.4,191.8 535.6,226.8 618,228 C 700.4,229.2 741.6,192.6 824,197 C 906.4,201.4 947.6,253 1030,250 C 1112.4,247 1154,189.8 1236,182 C 1318,174.2 1399.2,205.2 1440,211L1440 500L0 500z" fill="rgba(28, 67, 75, 1)"></path>
        <path d="M 0,306 C 41.2,302 123.6,288 206,286 C 288.4,284 329.6,295.4 412,296 C 494.4,296.6 535.6,282.4 618,289 C 700.4,295.6 741.6,331.4 824,329 C 906.4,326.6 947.6,278.8 1030,277 C 1112.4,275.2 1154,325 1236,320 C 1318,315 1399.2,265.6 1440,252L1440 500L0 500z" fill="rgba(23, 52, 59, 1)"></path>
        <path d="M 0,373 C 41.2,378.6 123.6,407.4 206,401 C 288.4,394.6 329.6,338 412,341 C 494.4,344 535.6,411 618,416 C 700.4,421 741.6,367.6 824,366 C 906.4,364.4 947.6,412.2 1030,408 C 1112.4,403.8 1154,343.4 1236,345 C 1318,346.6 1399.2,401.8 1440,416L1440 500L0 500z" fill="rgba(23, 34, 41, 1)"></path>
        <path d="M 0,477 C 36,467.4 108,427.2 180,429 C 252,430.8 288,486.2 360,486 C 432,485.8 468,429.8 540,428 C 612,426.2 648,477.4 720,477 C 792,476.6 828,422.8 900,426 C 972,429.2 1008,495 1080,493 C 1152,491 1188,419 1260,416 C 1332,413 1404,465.6 1440,478L1440 500L0 500z" fill="rgba(16, 23, 27, 1)"></path>
    </g>
    <defs>
        <mask id="SvgjsMask1186">
            <rect width="1440" height="500" fill="#ffffff"></rect>
        </mask>
    </defs>
</svg>